%TF.GenerationSoftware,KiCad,Pcbnew,10.0.6*%
%TF.CreationDate,2026-10-04T23:35:59+03:00*%
%TF.ProjectId,ControlledUsb,436f6e74-726f-46c6-9c65-645573622e6b,v2.1-Dense*%
%TF.SameCoordinates,Original*%
%TF.FileFunction,Legend,Bot*%
%TF.FilePolarity,Positive*%
%FSLAX46Y46*%
G04 Gerber Fmt 4.6, Leading zero omitted, Abs format (unit mm)*
G04 Created by KiCad (PCBNEW 10.0.6) date 2026-10-04 23:35:59*
%MOMM*%
%LPD*%
G01*
G04 APERTURE LIST*
G04 Aperture macros list*
%AMRoundRect*
0 Rectangle with rounded corners*
0 $1 Rounding radius*
0 $2 $3 $4 $5 $6 $7 $8 $9 X,Y pos of 4 corners*
0 Add a 4 corners polygon primitive as box body*
4,1,4,$2,$3,$4,$5,$6,$7,$8,$9,$2,$3,0*
0 Add four circle primitives for the rounded corners*
1,1,$1+$1,$2,$3*
1,1,$1+$1,$4,$5*
1,1,$1+$1,$6,$7*
1,1,$1+$1,$8,$9*
0 Add four rect primitives between the rounded corners*
20,1,$1+$1,$2,$3,$4,$5,0*
20,1,$1+$1,$4,$5,$6,$7,0*
20,1,$1+$1,$6,$7,$8,$9,0*
20,1,$1+$1,$8,$9,$2,$3,0*%
G04 Aperture macros list end*
%ADD10C,0.200000*%
%ADD11C,0.110000*%
%ADD12C,0.120000*%
%ADD13C,0.140000*%
%ADD14C,0.280000*%
%ADD15RoundRect,0.250000X0.500000X-0.550000X0.500000X0.550000X-0.500000X0.550000X-0.500000X-0.550000X0*%
%ADD16C,1.600000*%
%ADD17C,3.000000*%
%ADD18C,1.100000*%
%ADD19O,3.500000X1.900000*%
G04 APERTURE END LIST*
D10*
X112000000Y-103000000D02*
X147000000Y-103000000D01*
X147000000Y-117800000D01*
X112000000Y-117800000D01*
X112000000Y-103000000D01*
D11*
X142426189Y-117094982D02*
X142426189Y-116444982D01*
X142426189Y-116754506D02*
X142054760Y-116754506D01*
X142054760Y-117094982D02*
X142054760Y-116444982D01*
X141466665Y-117094982D02*
X141466665Y-116754506D01*
X141466665Y-116754506D02*
X141497618Y-116692601D01*
X141497618Y-116692601D02*
X141559522Y-116661649D01*
X141559522Y-116661649D02*
X141683332Y-116661649D01*
X141683332Y-116661649D02*
X141745237Y-116692601D01*
X141466665Y-117064030D02*
X141528570Y-117094982D01*
X141528570Y-117094982D02*
X141683332Y-117094982D01*
X141683332Y-117094982D02*
X141745237Y-117064030D01*
X141745237Y-117064030D02*
X141776189Y-117002125D01*
X141776189Y-117002125D02*
X141776189Y-116940220D01*
X141776189Y-116940220D02*
X141745237Y-116878315D01*
X141745237Y-116878315D02*
X141683332Y-116847363D01*
X141683332Y-116847363D02*
X141528570Y-116847363D01*
X141528570Y-116847363D02*
X141466665Y-116816410D01*
X141157142Y-117094982D02*
X141157142Y-116661649D01*
X141157142Y-116785458D02*
X141126189Y-116723553D01*
X141126189Y-116723553D02*
X141095237Y-116692601D01*
X141095237Y-116692601D02*
X141033332Y-116661649D01*
X141033332Y-116661649D02*
X140971427Y-116661649D01*
X140476189Y-117094982D02*
X140476189Y-116444982D01*
X140476189Y-117064030D02*
X140538094Y-117094982D01*
X140538094Y-117094982D02*
X140661903Y-117094982D01*
X140661903Y-117094982D02*
X140723808Y-117064030D01*
X140723808Y-117064030D02*
X140754761Y-117033077D01*
X140754761Y-117033077D02*
X140785713Y-116971172D01*
X140785713Y-116971172D02*
X140785713Y-116785458D01*
X140785713Y-116785458D02*
X140754761Y-116723553D01*
X140754761Y-116723553D02*
X140723808Y-116692601D01*
X140723808Y-116692601D02*
X140661903Y-116661649D01*
X140661903Y-116661649D02*
X140538094Y-116661649D01*
X140538094Y-116661649D02*
X140476189Y-116692601D01*
X140228570Y-116661649D02*
X140104761Y-117094982D01*
X140104761Y-117094982D02*
X139980951Y-116785458D01*
X139980951Y-116785458D02*
X139857142Y-117094982D01*
X139857142Y-117094982D02*
X139733332Y-116661649D01*
X139207142Y-117094982D02*
X139207142Y-116754506D01*
X139207142Y-116754506D02*
X139238095Y-116692601D01*
X139238095Y-116692601D02*
X139299999Y-116661649D01*
X139299999Y-116661649D02*
X139423809Y-116661649D01*
X139423809Y-116661649D02*
X139485714Y-116692601D01*
X139207142Y-117064030D02*
X139269047Y-117094982D01*
X139269047Y-117094982D02*
X139423809Y-117094982D01*
X139423809Y-117094982D02*
X139485714Y-117064030D01*
X139485714Y-117064030D02*
X139516666Y-117002125D01*
X139516666Y-117002125D02*
X139516666Y-116940220D01*
X139516666Y-116940220D02*
X139485714Y-116878315D01*
X139485714Y-116878315D02*
X139423809Y-116847363D01*
X139423809Y-116847363D02*
X139269047Y-116847363D01*
X139269047Y-116847363D02*
X139207142Y-116816410D01*
X138897619Y-117094982D02*
X138897619Y-116661649D01*
X138897619Y-116785458D02*
X138866666Y-116723553D01*
X138866666Y-116723553D02*
X138835714Y-116692601D01*
X138835714Y-116692601D02*
X138773809Y-116661649D01*
X138773809Y-116661649D02*
X138711904Y-116661649D01*
X138247619Y-117064030D02*
X138309523Y-117094982D01*
X138309523Y-117094982D02*
X138433333Y-117094982D01*
X138433333Y-117094982D02*
X138495238Y-117064030D01*
X138495238Y-117064030D02*
X138526190Y-117002125D01*
X138526190Y-117002125D02*
X138526190Y-116754506D01*
X138526190Y-116754506D02*
X138495238Y-116692601D01*
X138495238Y-116692601D02*
X138433333Y-116661649D01*
X138433333Y-116661649D02*
X138309523Y-116661649D01*
X138309523Y-116661649D02*
X138247619Y-116692601D01*
X138247619Y-116692601D02*
X138216666Y-116754506D01*
X138216666Y-116754506D02*
X138216666Y-116816410D01*
X138216666Y-116816410D02*
X138526190Y-116878315D01*
X137504761Y-116661649D02*
X137349999Y-117094982D01*
X137349999Y-117094982D02*
X137195238Y-116661649D01*
X136978571Y-116506887D02*
X136947619Y-116475934D01*
X136947619Y-116475934D02*
X136885714Y-116444982D01*
X136885714Y-116444982D02*
X136730952Y-116444982D01*
X136730952Y-116444982D02*
X136669047Y-116475934D01*
X136669047Y-116475934D02*
X136638095Y-116506887D01*
X136638095Y-116506887D02*
X136607142Y-116568791D01*
X136607142Y-116568791D02*
X136607142Y-116630696D01*
X136607142Y-116630696D02*
X136638095Y-116723553D01*
X136638095Y-116723553D02*
X137009523Y-117094982D01*
X137009523Y-117094982D02*
X136607142Y-117094982D01*
X136328571Y-117033077D02*
X136297618Y-117064030D01*
X136297618Y-117064030D02*
X136328571Y-117094982D01*
X136328571Y-117094982D02*
X136359523Y-117064030D01*
X136359523Y-117064030D02*
X136328571Y-117033077D01*
X136328571Y-117033077D02*
X136328571Y-117094982D01*
X135678570Y-117094982D02*
X136049999Y-117094982D01*
X135864285Y-117094982D02*
X135864285Y-116444982D01*
X135864285Y-116444982D02*
X135926189Y-116537839D01*
X135926189Y-116537839D02*
X135988094Y-116599744D01*
X135988094Y-116599744D02*
X136049999Y-116630696D01*
X134749999Y-117311649D02*
X134749999Y-116383077D01*
X133790475Y-117094982D02*
X133790475Y-116444982D01*
X133419046Y-117094982D02*
X133697617Y-116723553D01*
X133419046Y-116444982D02*
X133790475Y-116816410D01*
X133140475Y-117094982D02*
X133140475Y-116661649D01*
X133140475Y-116444982D02*
X133171427Y-116475934D01*
X133171427Y-116475934D02*
X133140475Y-116506887D01*
X133140475Y-116506887D02*
X133109522Y-116475934D01*
X133109522Y-116475934D02*
X133140475Y-116444982D01*
X133140475Y-116444982D02*
X133140475Y-116506887D01*
X132459522Y-117033077D02*
X132490474Y-117064030D01*
X132490474Y-117064030D02*
X132583332Y-117094982D01*
X132583332Y-117094982D02*
X132645236Y-117094982D01*
X132645236Y-117094982D02*
X132738093Y-117064030D01*
X132738093Y-117064030D02*
X132799998Y-117002125D01*
X132799998Y-117002125D02*
X132830951Y-116940220D01*
X132830951Y-116940220D02*
X132861903Y-116816410D01*
X132861903Y-116816410D02*
X132861903Y-116723553D01*
X132861903Y-116723553D02*
X132830951Y-116599744D01*
X132830951Y-116599744D02*
X132799998Y-116537839D01*
X132799998Y-116537839D02*
X132738093Y-116475934D01*
X132738093Y-116475934D02*
X132645236Y-116444982D01*
X132645236Y-116444982D02*
X132583332Y-116444982D01*
X132583332Y-116444982D02*
X132490474Y-116475934D01*
X132490474Y-116475934D02*
X132459522Y-116506887D01*
X131902379Y-117094982D02*
X131902379Y-116754506D01*
X131902379Y-116754506D02*
X131933332Y-116692601D01*
X131933332Y-116692601D02*
X131995236Y-116661649D01*
X131995236Y-116661649D02*
X132119046Y-116661649D01*
X132119046Y-116661649D02*
X132180951Y-116692601D01*
X131902379Y-117064030D02*
X131964284Y-117094982D01*
X131964284Y-117094982D02*
X132119046Y-117094982D01*
X132119046Y-117094982D02*
X132180951Y-117064030D01*
X132180951Y-117064030D02*
X132211903Y-117002125D01*
X132211903Y-117002125D02*
X132211903Y-116940220D01*
X132211903Y-116940220D02*
X132180951Y-116878315D01*
X132180951Y-116878315D02*
X132119046Y-116847363D01*
X132119046Y-116847363D02*
X131964284Y-116847363D01*
X131964284Y-116847363D02*
X131902379Y-116816410D01*
X131314284Y-117094982D02*
X131314284Y-116444982D01*
X131314284Y-117064030D02*
X131376189Y-117094982D01*
X131376189Y-117094982D02*
X131499998Y-117094982D01*
X131499998Y-117094982D02*
X131561903Y-117064030D01*
X131561903Y-117064030D02*
X131592856Y-117033077D01*
X131592856Y-117033077D02*
X131623808Y-116971172D01*
X131623808Y-116971172D02*
X131623808Y-116785458D01*
X131623808Y-116785458D02*
X131592856Y-116723553D01*
X131592856Y-116723553D02*
X131561903Y-116692601D01*
X131561903Y-116692601D02*
X131499998Y-116661649D01*
X131499998Y-116661649D02*
X131376189Y-116661649D01*
X131376189Y-116661649D02*
X131314284Y-116692601D01*
X130169046Y-117094982D02*
X130540475Y-117094982D01*
X130354761Y-117094982D02*
X130354761Y-116444982D01*
X130354761Y-116444982D02*
X130416665Y-116537839D01*
X130416665Y-116537839D02*
X130478570Y-116599744D01*
X130478570Y-116599744D02*
X130540475Y-116630696D01*
X129766665Y-116444982D02*
X129704760Y-116444982D01*
X129704760Y-116444982D02*
X129642856Y-116475934D01*
X129642856Y-116475934D02*
X129611903Y-116506887D01*
X129611903Y-116506887D02*
X129580951Y-116568791D01*
X129580951Y-116568791D02*
X129549998Y-116692601D01*
X129549998Y-116692601D02*
X129549998Y-116847363D01*
X129549998Y-116847363D02*
X129580951Y-116971172D01*
X129580951Y-116971172D02*
X129611903Y-117033077D01*
X129611903Y-117033077D02*
X129642856Y-117064030D01*
X129642856Y-117064030D02*
X129704760Y-117094982D01*
X129704760Y-117094982D02*
X129766665Y-117094982D01*
X129766665Y-117094982D02*
X129828570Y-117064030D01*
X129828570Y-117064030D02*
X129859522Y-117033077D01*
X129859522Y-117033077D02*
X129890475Y-116971172D01*
X129890475Y-116971172D02*
X129921427Y-116847363D01*
X129921427Y-116847363D02*
X129921427Y-116692601D01*
X129921427Y-116692601D02*
X129890475Y-116568791D01*
X129890475Y-116568791D02*
X129859522Y-116506887D01*
X129859522Y-116506887D02*
X129828570Y-116475934D01*
X129828570Y-116475934D02*
X129766665Y-116444982D01*
X128621427Y-117311649D02*
X128621427Y-116383077D01*
X127538093Y-116444982D02*
X127414284Y-116444982D01*
X127414284Y-116444982D02*
X127352379Y-116475934D01*
X127352379Y-116475934D02*
X127290474Y-116537839D01*
X127290474Y-116537839D02*
X127259522Y-116661649D01*
X127259522Y-116661649D02*
X127259522Y-116878315D01*
X127259522Y-116878315D02*
X127290474Y-117002125D01*
X127290474Y-117002125D02*
X127352379Y-117064030D01*
X127352379Y-117064030D02*
X127414284Y-117094982D01*
X127414284Y-117094982D02*
X127538093Y-117094982D01*
X127538093Y-117094982D02*
X127599998Y-117064030D01*
X127599998Y-117064030D02*
X127661903Y-117002125D01*
X127661903Y-117002125D02*
X127692855Y-116878315D01*
X127692855Y-116878315D02*
X127692855Y-116661649D01*
X127692855Y-116661649D02*
X127661903Y-116537839D01*
X127661903Y-116537839D02*
X127599998Y-116475934D01*
X127599998Y-116475934D02*
X127538093Y-116444982D01*
X126980951Y-116661649D02*
X126980951Y-117311649D01*
X126980951Y-116692601D02*
X126919046Y-116661649D01*
X126919046Y-116661649D02*
X126795236Y-116661649D01*
X126795236Y-116661649D02*
X126733332Y-116692601D01*
X126733332Y-116692601D02*
X126702379Y-116723553D01*
X126702379Y-116723553D02*
X126671427Y-116785458D01*
X126671427Y-116785458D02*
X126671427Y-116971172D01*
X126671427Y-116971172D02*
X126702379Y-117033077D01*
X126702379Y-117033077D02*
X126733332Y-117064030D01*
X126733332Y-117064030D02*
X126795236Y-117094982D01*
X126795236Y-117094982D02*
X126919046Y-117094982D01*
X126919046Y-117094982D02*
X126980951Y-117064030D01*
X126145237Y-117064030D02*
X126207141Y-117094982D01*
X126207141Y-117094982D02*
X126330951Y-117094982D01*
X126330951Y-117094982D02*
X126392856Y-117064030D01*
X126392856Y-117064030D02*
X126423808Y-117002125D01*
X126423808Y-117002125D02*
X126423808Y-116754506D01*
X126423808Y-116754506D02*
X126392856Y-116692601D01*
X126392856Y-116692601D02*
X126330951Y-116661649D01*
X126330951Y-116661649D02*
X126207141Y-116661649D01*
X126207141Y-116661649D02*
X126145237Y-116692601D01*
X126145237Y-116692601D02*
X126114284Y-116754506D01*
X126114284Y-116754506D02*
X126114284Y-116816410D01*
X126114284Y-116816410D02*
X126423808Y-116878315D01*
X125835713Y-116661649D02*
X125835713Y-117094982D01*
X125835713Y-116723553D02*
X125804760Y-116692601D01*
X125804760Y-116692601D02*
X125742855Y-116661649D01*
X125742855Y-116661649D02*
X125649998Y-116661649D01*
X125649998Y-116661649D02*
X125588094Y-116692601D01*
X125588094Y-116692601D02*
X125557141Y-116754506D01*
X125557141Y-116754506D02*
X125557141Y-117094982D01*
X124752380Y-117094982D02*
X124752380Y-116444982D01*
X124752380Y-116754506D02*
X124380951Y-116754506D01*
X124380951Y-117094982D02*
X124380951Y-116444982D01*
X123792856Y-117094982D02*
X123792856Y-116754506D01*
X123792856Y-116754506D02*
X123823809Y-116692601D01*
X123823809Y-116692601D02*
X123885713Y-116661649D01*
X123885713Y-116661649D02*
X124009523Y-116661649D01*
X124009523Y-116661649D02*
X124071428Y-116692601D01*
X123792856Y-117064030D02*
X123854761Y-117094982D01*
X123854761Y-117094982D02*
X124009523Y-117094982D01*
X124009523Y-117094982D02*
X124071428Y-117064030D01*
X124071428Y-117064030D02*
X124102380Y-117002125D01*
X124102380Y-117002125D02*
X124102380Y-116940220D01*
X124102380Y-116940220D02*
X124071428Y-116878315D01*
X124071428Y-116878315D02*
X124009523Y-116847363D01*
X124009523Y-116847363D02*
X123854761Y-116847363D01*
X123854761Y-116847363D02*
X123792856Y-116816410D01*
X123483333Y-117094982D02*
X123483333Y-116661649D01*
X123483333Y-116785458D02*
X123452380Y-116723553D01*
X123452380Y-116723553D02*
X123421428Y-116692601D01*
X123421428Y-116692601D02*
X123359523Y-116661649D01*
X123359523Y-116661649D02*
X123297618Y-116661649D01*
X122802380Y-117094982D02*
X122802380Y-116444982D01*
X122802380Y-117064030D02*
X122864285Y-117094982D01*
X122864285Y-117094982D02*
X122988094Y-117094982D01*
X122988094Y-117094982D02*
X123049999Y-117064030D01*
X123049999Y-117064030D02*
X123080952Y-117033077D01*
X123080952Y-117033077D02*
X123111904Y-116971172D01*
X123111904Y-116971172D02*
X123111904Y-116785458D01*
X123111904Y-116785458D02*
X123080952Y-116723553D01*
X123080952Y-116723553D02*
X123049999Y-116692601D01*
X123049999Y-116692601D02*
X122988094Y-116661649D01*
X122988094Y-116661649D02*
X122864285Y-116661649D01*
X122864285Y-116661649D02*
X122802380Y-116692601D01*
X122554761Y-116661649D02*
X122430952Y-117094982D01*
X122430952Y-117094982D02*
X122307142Y-116785458D01*
X122307142Y-116785458D02*
X122183333Y-117094982D01*
X122183333Y-117094982D02*
X122059523Y-116661649D01*
X121533333Y-117094982D02*
X121533333Y-116754506D01*
X121533333Y-116754506D02*
X121564286Y-116692601D01*
X121564286Y-116692601D02*
X121626190Y-116661649D01*
X121626190Y-116661649D02*
X121750000Y-116661649D01*
X121750000Y-116661649D02*
X121811905Y-116692601D01*
X121533333Y-117064030D02*
X121595238Y-117094982D01*
X121595238Y-117094982D02*
X121750000Y-117094982D01*
X121750000Y-117094982D02*
X121811905Y-117064030D01*
X121811905Y-117064030D02*
X121842857Y-117002125D01*
X121842857Y-117002125D02*
X121842857Y-116940220D01*
X121842857Y-116940220D02*
X121811905Y-116878315D01*
X121811905Y-116878315D02*
X121750000Y-116847363D01*
X121750000Y-116847363D02*
X121595238Y-116847363D01*
X121595238Y-116847363D02*
X121533333Y-116816410D01*
X121223810Y-117094982D02*
X121223810Y-116661649D01*
X121223810Y-116785458D02*
X121192857Y-116723553D01*
X121192857Y-116723553D02*
X121161905Y-116692601D01*
X121161905Y-116692601D02*
X121100000Y-116661649D01*
X121100000Y-116661649D02*
X121038095Y-116661649D01*
X120573810Y-117064030D02*
X120635714Y-117094982D01*
X120635714Y-117094982D02*
X120759524Y-117094982D01*
X120759524Y-117094982D02*
X120821429Y-117064030D01*
X120821429Y-117064030D02*
X120852381Y-117002125D01*
X120852381Y-117002125D02*
X120852381Y-116754506D01*
X120852381Y-116754506D02*
X120821429Y-116692601D01*
X120821429Y-116692601D02*
X120759524Y-116661649D01*
X120759524Y-116661649D02*
X120635714Y-116661649D01*
X120635714Y-116661649D02*
X120573810Y-116692601D01*
X120573810Y-116692601D02*
X120542857Y-116754506D01*
X120542857Y-116754506D02*
X120542857Y-116816410D01*
X120542857Y-116816410D02*
X120852381Y-116878315D01*
D12*
X142933330Y-110150926D02*
X142999997Y-110117593D01*
X142999997Y-110117593D02*
X143099997Y-110117593D01*
X143099997Y-110117593D02*
X143199997Y-110150926D01*
X143199997Y-110150926D02*
X143266664Y-110217593D01*
X143266664Y-110217593D02*
X143299997Y-110284260D01*
X143299997Y-110284260D02*
X143333330Y-110417593D01*
X143333330Y-110417593D02*
X143333330Y-110517593D01*
X143333330Y-110517593D02*
X143299997Y-110650926D01*
X143299997Y-110650926D02*
X143266664Y-110717593D01*
X143266664Y-110717593D02*
X143199997Y-110784260D01*
X143199997Y-110784260D02*
X143099997Y-110817593D01*
X143099997Y-110817593D02*
X143033330Y-110817593D01*
X143033330Y-110817593D02*
X142933330Y-110784260D01*
X142933330Y-110784260D02*
X142899997Y-110750926D01*
X142899997Y-110750926D02*
X142899997Y-110517593D01*
X142899997Y-110517593D02*
X143033330Y-110517593D01*
X142599997Y-110817593D02*
X142599997Y-110117593D01*
X142599997Y-110117593D02*
X142333330Y-110117593D01*
X142333330Y-110117593D02*
X142266664Y-110150926D01*
X142266664Y-110150926D02*
X142233330Y-110184260D01*
X142233330Y-110184260D02*
X142199997Y-110250926D01*
X142199997Y-110250926D02*
X142199997Y-110350926D01*
X142199997Y-110350926D02*
X142233330Y-110417593D01*
X142233330Y-110417593D02*
X142266664Y-110450926D01*
X142266664Y-110450926D02*
X142333330Y-110484260D01*
X142333330Y-110484260D02*
X142599997Y-110484260D01*
X141933330Y-110184260D02*
X141899997Y-110150926D01*
X141899997Y-110150926D02*
X141833330Y-110117593D01*
X141833330Y-110117593D02*
X141666664Y-110117593D01*
X141666664Y-110117593D02*
X141599997Y-110150926D01*
X141599997Y-110150926D02*
X141566664Y-110184260D01*
X141566664Y-110184260D02*
X141533330Y-110250926D01*
X141533330Y-110250926D02*
X141533330Y-110317593D01*
X141533330Y-110317593D02*
X141566664Y-110417593D01*
X141566664Y-110417593D02*
X141966664Y-110817593D01*
X141966664Y-110817593D02*
X141533330Y-110817593D01*
X140933330Y-110117593D02*
X141066663Y-110117593D01*
X141066663Y-110117593D02*
X141133330Y-110150926D01*
X141133330Y-110150926D02*
X141166663Y-110184260D01*
X141166663Y-110184260D02*
X141233330Y-110284260D01*
X141233330Y-110284260D02*
X141266663Y-110417593D01*
X141266663Y-110417593D02*
X141266663Y-110684260D01*
X141266663Y-110684260D02*
X141233330Y-110750926D01*
X141233330Y-110750926D02*
X141199997Y-110784260D01*
X141199997Y-110784260D02*
X141133330Y-110817593D01*
X141133330Y-110817593D02*
X140999997Y-110817593D01*
X140999997Y-110817593D02*
X140933330Y-110784260D01*
X140933330Y-110784260D02*
X140899997Y-110750926D01*
X140899997Y-110750926D02*
X140866663Y-110684260D01*
X140866663Y-110684260D02*
X140866663Y-110517593D01*
X140866663Y-110517593D02*
X140899997Y-110450926D01*
X140899997Y-110450926D02*
X140933330Y-110417593D01*
X140933330Y-110417593D02*
X140999997Y-110384260D01*
X140999997Y-110384260D02*
X141133330Y-110384260D01*
X141133330Y-110384260D02*
X141199997Y-110417593D01*
X141199997Y-110417593D02*
X141233330Y-110450926D01*
X141233330Y-110450926D02*
X141266663Y-110517593D01*
X140566663Y-110750926D02*
X140533330Y-110784260D01*
X140533330Y-110784260D02*
X140566663Y-110817593D01*
X140566663Y-110817593D02*
X140599996Y-110784260D01*
X140599996Y-110784260D02*
X140566663Y-110750926D01*
X140566663Y-110750926D02*
X140566663Y-110817593D01*
X140566663Y-110384260D02*
X140533330Y-110417593D01*
X140533330Y-110417593D02*
X140566663Y-110450926D01*
X140566663Y-110450926D02*
X140599996Y-110417593D01*
X140599996Y-110417593D02*
X140566663Y-110384260D01*
X140566663Y-110384260D02*
X140566663Y-110450926D01*
X139699997Y-110117593D02*
X139699997Y-110684260D01*
X139699997Y-110684260D02*
X139666664Y-110750926D01*
X139666664Y-110750926D02*
X139633330Y-110784260D01*
X139633330Y-110784260D02*
X139566664Y-110817593D01*
X139566664Y-110817593D02*
X139433330Y-110817593D01*
X139433330Y-110817593D02*
X139366664Y-110784260D01*
X139366664Y-110784260D02*
X139333330Y-110750926D01*
X139333330Y-110750926D02*
X139299997Y-110684260D01*
X139299997Y-110684260D02*
X139299997Y-110117593D01*
X138999997Y-110784260D02*
X138899997Y-110817593D01*
X138899997Y-110817593D02*
X138733331Y-110817593D01*
X138733331Y-110817593D02*
X138666664Y-110784260D01*
X138666664Y-110784260D02*
X138633331Y-110750926D01*
X138633331Y-110750926D02*
X138599997Y-110684260D01*
X138599997Y-110684260D02*
X138599997Y-110617593D01*
X138599997Y-110617593D02*
X138633331Y-110550926D01*
X138633331Y-110550926D02*
X138666664Y-110517593D01*
X138666664Y-110517593D02*
X138733331Y-110484260D01*
X138733331Y-110484260D02*
X138866664Y-110450926D01*
X138866664Y-110450926D02*
X138933331Y-110417593D01*
X138933331Y-110417593D02*
X138966664Y-110384260D01*
X138966664Y-110384260D02*
X138999997Y-110317593D01*
X138999997Y-110317593D02*
X138999997Y-110250926D01*
X138999997Y-110250926D02*
X138966664Y-110184260D01*
X138966664Y-110184260D02*
X138933331Y-110150926D01*
X138933331Y-110150926D02*
X138866664Y-110117593D01*
X138866664Y-110117593D02*
X138699997Y-110117593D01*
X138699997Y-110117593D02*
X138599997Y-110150926D01*
X138299997Y-110450926D02*
X138066664Y-110450926D01*
X137966664Y-110817593D02*
X138299997Y-110817593D01*
X138299997Y-110817593D02*
X138299997Y-110117593D01*
X138299997Y-110117593D02*
X137966664Y-110117593D01*
X137266664Y-110817593D02*
X137499997Y-110484260D01*
X137666664Y-110817593D02*
X137666664Y-110117593D01*
X137666664Y-110117593D02*
X137399997Y-110117593D01*
X137399997Y-110117593D02*
X137333331Y-110150926D01*
X137333331Y-110150926D02*
X137299997Y-110184260D01*
X137299997Y-110184260D02*
X137266664Y-110250926D01*
X137266664Y-110250926D02*
X137266664Y-110350926D01*
X137266664Y-110350926D02*
X137299997Y-110417593D01*
X137299997Y-110417593D02*
X137333331Y-110450926D01*
X137333331Y-110450926D02*
X137399997Y-110484260D01*
X137399997Y-110484260D02*
X137666664Y-110484260D01*
X136199998Y-110450926D02*
X136099998Y-110484260D01*
X136099998Y-110484260D02*
X136066664Y-110517593D01*
X136066664Y-110517593D02*
X136033331Y-110584260D01*
X136033331Y-110584260D02*
X136033331Y-110684260D01*
X136033331Y-110684260D02*
X136066664Y-110750926D01*
X136066664Y-110750926D02*
X136099998Y-110784260D01*
X136099998Y-110784260D02*
X136166664Y-110817593D01*
X136166664Y-110817593D02*
X136433331Y-110817593D01*
X136433331Y-110817593D02*
X136433331Y-110117593D01*
X136433331Y-110117593D02*
X136199998Y-110117593D01*
X136199998Y-110117593D02*
X136133331Y-110150926D01*
X136133331Y-110150926D02*
X136099998Y-110184260D01*
X136099998Y-110184260D02*
X136066664Y-110250926D01*
X136066664Y-110250926D02*
X136066664Y-110317593D01*
X136066664Y-110317593D02*
X136099998Y-110384260D01*
X136099998Y-110384260D02*
X136133331Y-110417593D01*
X136133331Y-110417593D02*
X136199998Y-110450926D01*
X136199998Y-110450926D02*
X136433331Y-110450926D01*
X135833331Y-110117593D02*
X135433331Y-110117593D01*
X135633331Y-110817593D02*
X135633331Y-110117593D01*
X135199998Y-110817593D02*
X135199998Y-110117593D01*
X135199998Y-110117593D02*
X134799998Y-110817593D01*
X134799998Y-110817593D02*
X134799998Y-110117593D01*
X132699999Y-111050926D02*
X132699999Y-110050926D01*
X130233333Y-110150926D02*
X130300000Y-110117593D01*
X130300000Y-110117593D02*
X130400000Y-110117593D01*
X130400000Y-110117593D02*
X130500000Y-110150926D01*
X130500000Y-110150926D02*
X130566667Y-110217593D01*
X130566667Y-110217593D02*
X130600000Y-110284260D01*
X130600000Y-110284260D02*
X130633333Y-110417593D01*
X130633333Y-110417593D02*
X130633333Y-110517593D01*
X130633333Y-110517593D02*
X130600000Y-110650926D01*
X130600000Y-110650926D02*
X130566667Y-110717593D01*
X130566667Y-110717593D02*
X130500000Y-110784260D01*
X130500000Y-110784260D02*
X130400000Y-110817593D01*
X130400000Y-110817593D02*
X130333333Y-110817593D01*
X130333333Y-110817593D02*
X130233333Y-110784260D01*
X130233333Y-110784260D02*
X130200000Y-110750926D01*
X130200000Y-110750926D02*
X130200000Y-110517593D01*
X130200000Y-110517593D02*
X130333333Y-110517593D01*
X129900000Y-110817593D02*
X129900000Y-110117593D01*
X129900000Y-110117593D02*
X129633333Y-110117593D01*
X129633333Y-110117593D02*
X129566667Y-110150926D01*
X129566667Y-110150926D02*
X129533333Y-110184260D01*
X129533333Y-110184260D02*
X129500000Y-110250926D01*
X129500000Y-110250926D02*
X129500000Y-110350926D01*
X129500000Y-110350926D02*
X129533333Y-110417593D01*
X129533333Y-110417593D02*
X129566667Y-110450926D01*
X129566667Y-110450926D02*
X129633333Y-110484260D01*
X129633333Y-110484260D02*
X129900000Y-110484260D01*
X128833333Y-110817593D02*
X129233333Y-110817593D01*
X129033333Y-110817593D02*
X129033333Y-110117593D01*
X129033333Y-110117593D02*
X129100000Y-110217593D01*
X129100000Y-110217593D02*
X129166667Y-110284260D01*
X129166667Y-110284260D02*
X129233333Y-110317593D01*
X128233333Y-110117593D02*
X128366666Y-110117593D01*
X128366666Y-110117593D02*
X128433333Y-110150926D01*
X128433333Y-110150926D02*
X128466666Y-110184260D01*
X128466666Y-110184260D02*
X128533333Y-110284260D01*
X128533333Y-110284260D02*
X128566666Y-110417593D01*
X128566666Y-110417593D02*
X128566666Y-110684260D01*
X128566666Y-110684260D02*
X128533333Y-110750926D01*
X128533333Y-110750926D02*
X128500000Y-110784260D01*
X128500000Y-110784260D02*
X128433333Y-110817593D01*
X128433333Y-110817593D02*
X128300000Y-110817593D01*
X128300000Y-110817593D02*
X128233333Y-110784260D01*
X128233333Y-110784260D02*
X128200000Y-110750926D01*
X128200000Y-110750926D02*
X128166666Y-110684260D01*
X128166666Y-110684260D02*
X128166666Y-110517593D01*
X128166666Y-110517593D02*
X128200000Y-110450926D01*
X128200000Y-110450926D02*
X128233333Y-110417593D01*
X128233333Y-110417593D02*
X128300000Y-110384260D01*
X128300000Y-110384260D02*
X128433333Y-110384260D01*
X128433333Y-110384260D02*
X128500000Y-110417593D01*
X128500000Y-110417593D02*
X128533333Y-110450926D01*
X128533333Y-110450926D02*
X128566666Y-110517593D01*
X127866666Y-110750926D02*
X127833333Y-110784260D01*
X127833333Y-110784260D02*
X127866666Y-110817593D01*
X127866666Y-110817593D02*
X127899999Y-110784260D01*
X127899999Y-110784260D02*
X127866666Y-110750926D01*
X127866666Y-110750926D02*
X127866666Y-110817593D01*
X127866666Y-110384260D02*
X127833333Y-110417593D01*
X127833333Y-110417593D02*
X127866666Y-110450926D01*
X127866666Y-110450926D02*
X127899999Y-110417593D01*
X127899999Y-110417593D02*
X127866666Y-110384260D01*
X127866666Y-110384260D02*
X127866666Y-110450926D01*
X126600000Y-110817593D02*
X126833333Y-110484260D01*
X127000000Y-110817593D02*
X127000000Y-110117593D01*
X127000000Y-110117593D02*
X126733333Y-110117593D01*
X126733333Y-110117593D02*
X126666667Y-110150926D01*
X126666667Y-110150926D02*
X126633333Y-110184260D01*
X126633333Y-110184260D02*
X126600000Y-110250926D01*
X126600000Y-110250926D02*
X126600000Y-110350926D01*
X126600000Y-110350926D02*
X126633333Y-110417593D01*
X126633333Y-110417593D02*
X126666667Y-110450926D01*
X126666667Y-110450926D02*
X126733333Y-110484260D01*
X126733333Y-110484260D02*
X127000000Y-110484260D01*
X125933333Y-110150926D02*
X126000000Y-110117593D01*
X126000000Y-110117593D02*
X126100000Y-110117593D01*
X126100000Y-110117593D02*
X126200000Y-110150926D01*
X126200000Y-110150926D02*
X126266667Y-110217593D01*
X126266667Y-110217593D02*
X126300000Y-110284260D01*
X126300000Y-110284260D02*
X126333333Y-110417593D01*
X126333333Y-110417593D02*
X126333333Y-110517593D01*
X126333333Y-110517593D02*
X126300000Y-110650926D01*
X126300000Y-110650926D02*
X126266667Y-110717593D01*
X126266667Y-110717593D02*
X126200000Y-110784260D01*
X126200000Y-110784260D02*
X126100000Y-110817593D01*
X126100000Y-110817593D02*
X126033333Y-110817593D01*
X126033333Y-110817593D02*
X125933333Y-110784260D01*
X125933333Y-110784260D02*
X125900000Y-110750926D01*
X125900000Y-110750926D02*
X125900000Y-110517593D01*
X125900000Y-110517593D02*
X126033333Y-110517593D01*
X125366667Y-110450926D02*
X125266667Y-110484260D01*
X125266667Y-110484260D02*
X125233333Y-110517593D01*
X125233333Y-110517593D02*
X125200000Y-110584260D01*
X125200000Y-110584260D02*
X125200000Y-110684260D01*
X125200000Y-110684260D02*
X125233333Y-110750926D01*
X125233333Y-110750926D02*
X125266667Y-110784260D01*
X125266667Y-110784260D02*
X125333333Y-110817593D01*
X125333333Y-110817593D02*
X125600000Y-110817593D01*
X125600000Y-110817593D02*
X125600000Y-110117593D01*
X125600000Y-110117593D02*
X125366667Y-110117593D01*
X125366667Y-110117593D02*
X125300000Y-110150926D01*
X125300000Y-110150926D02*
X125266667Y-110184260D01*
X125266667Y-110184260D02*
X125233333Y-110250926D01*
X125233333Y-110250926D02*
X125233333Y-110317593D01*
X125233333Y-110317593D02*
X125266667Y-110384260D01*
X125266667Y-110384260D02*
X125300000Y-110417593D01*
X125300000Y-110417593D02*
X125366667Y-110450926D01*
X125366667Y-110450926D02*
X125600000Y-110450926D01*
X124366667Y-110817593D02*
X124366667Y-110117593D01*
X124366667Y-110117593D02*
X123966667Y-110817593D01*
X123966667Y-110817593D02*
X123966667Y-110117593D01*
X123633334Y-110450926D02*
X123400001Y-110450926D01*
X123300001Y-110817593D02*
X123633334Y-110817593D01*
X123633334Y-110817593D02*
X123633334Y-110117593D01*
X123633334Y-110117593D02*
X123300001Y-110117593D01*
X122866668Y-110117593D02*
X122733334Y-110117593D01*
X122733334Y-110117593D02*
X122666668Y-110150926D01*
X122666668Y-110150926D02*
X122600001Y-110217593D01*
X122600001Y-110217593D02*
X122566668Y-110350926D01*
X122566668Y-110350926D02*
X122566668Y-110584260D01*
X122566668Y-110584260D02*
X122600001Y-110717593D01*
X122600001Y-110717593D02*
X122666668Y-110784260D01*
X122666668Y-110784260D02*
X122733334Y-110817593D01*
X122733334Y-110817593D02*
X122866668Y-110817593D01*
X122866668Y-110817593D02*
X122933334Y-110784260D01*
X122933334Y-110784260D02*
X123000001Y-110717593D01*
X123000001Y-110717593D02*
X123033334Y-110584260D01*
X123033334Y-110584260D02*
X123033334Y-110350926D01*
X123033334Y-110350926D02*
X123000001Y-110217593D01*
X123000001Y-110217593D02*
X122933334Y-110150926D01*
X122933334Y-110150926D02*
X122866668Y-110117593D01*
X122266668Y-110817593D02*
X122266668Y-110117593D01*
X122266668Y-110117593D02*
X122000001Y-110117593D01*
X122000001Y-110117593D02*
X121933335Y-110150926D01*
X121933335Y-110150926D02*
X121900001Y-110184260D01*
X121900001Y-110184260D02*
X121866668Y-110250926D01*
X121866668Y-110250926D02*
X121866668Y-110350926D01*
X121866668Y-110350926D02*
X121900001Y-110417593D01*
X121900001Y-110417593D02*
X121933335Y-110450926D01*
X121933335Y-110450926D02*
X122000001Y-110484260D01*
X122000001Y-110484260D02*
X122266668Y-110484260D01*
X121566668Y-110817593D02*
X121566668Y-110117593D01*
X121300002Y-110117593D02*
X120833335Y-110817593D01*
X120833335Y-110117593D02*
X121300002Y-110817593D01*
X120566668Y-110450926D02*
X120333335Y-110450926D01*
X120233335Y-110817593D02*
X120566668Y-110817593D01*
X120566668Y-110817593D02*
X120566668Y-110117593D01*
X120566668Y-110117593D02*
X120233335Y-110117593D01*
X119600002Y-110817593D02*
X119933335Y-110817593D01*
X119933335Y-110817593D02*
X119933335Y-110117593D01*
X142533331Y-112350926D02*
X142599998Y-112317593D01*
X142599998Y-112317593D02*
X142699998Y-112317593D01*
X142699998Y-112317593D02*
X142799998Y-112350926D01*
X142799998Y-112350926D02*
X142866665Y-112417593D01*
X142866665Y-112417593D02*
X142899998Y-112484260D01*
X142899998Y-112484260D02*
X142933331Y-112617593D01*
X142933331Y-112617593D02*
X142933331Y-112717593D01*
X142933331Y-112717593D02*
X142899998Y-112850926D01*
X142899998Y-112850926D02*
X142866665Y-112917593D01*
X142866665Y-112917593D02*
X142799998Y-112984260D01*
X142799998Y-112984260D02*
X142699998Y-113017593D01*
X142699998Y-113017593D02*
X142633331Y-113017593D01*
X142633331Y-113017593D02*
X142533331Y-112984260D01*
X142533331Y-112984260D02*
X142499998Y-112950926D01*
X142499998Y-112950926D02*
X142499998Y-112717593D01*
X142499998Y-112717593D02*
X142633331Y-112717593D01*
X142199998Y-113017593D02*
X142199998Y-112317593D01*
X142199998Y-112317593D02*
X141933331Y-112317593D01*
X141933331Y-112317593D02*
X141866665Y-112350926D01*
X141866665Y-112350926D02*
X141833331Y-112384260D01*
X141833331Y-112384260D02*
X141799998Y-112450926D01*
X141799998Y-112450926D02*
X141799998Y-112550926D01*
X141799998Y-112550926D02*
X141833331Y-112617593D01*
X141833331Y-112617593D02*
X141866665Y-112650926D01*
X141866665Y-112650926D02*
X141933331Y-112684260D01*
X141933331Y-112684260D02*
X142199998Y-112684260D01*
X141133331Y-113017593D02*
X141533331Y-113017593D01*
X141333331Y-113017593D02*
X141333331Y-112317593D01*
X141333331Y-112317593D02*
X141399998Y-112417593D01*
X141399998Y-112417593D02*
X141466665Y-112484260D01*
X141466665Y-112484260D02*
X141533331Y-112517593D01*
X140533331Y-112550926D02*
X140533331Y-113017593D01*
X140699998Y-112284260D02*
X140866664Y-112784260D01*
X140866664Y-112784260D02*
X140433331Y-112784260D01*
X140166664Y-112950926D02*
X140133331Y-112984260D01*
X140133331Y-112984260D02*
X140166664Y-113017593D01*
X140166664Y-113017593D02*
X140199997Y-112984260D01*
X140199997Y-112984260D02*
X140166664Y-112950926D01*
X140166664Y-112950926D02*
X140166664Y-113017593D01*
X140166664Y-112584260D02*
X140133331Y-112617593D01*
X140133331Y-112617593D02*
X140166664Y-112650926D01*
X140166664Y-112650926D02*
X140199997Y-112617593D01*
X140199997Y-112617593D02*
X140166664Y-112584260D01*
X140166664Y-112584260D02*
X140166664Y-112650926D01*
X138966665Y-112317593D02*
X139299998Y-112317593D01*
X139299998Y-112317593D02*
X139333331Y-112650926D01*
X139333331Y-112650926D02*
X139299998Y-112617593D01*
X139299998Y-112617593D02*
X139233331Y-112584260D01*
X139233331Y-112584260D02*
X139066665Y-112584260D01*
X139066665Y-112584260D02*
X138999998Y-112617593D01*
X138999998Y-112617593D02*
X138966665Y-112650926D01*
X138966665Y-112650926D02*
X138933331Y-112717593D01*
X138933331Y-112717593D02*
X138933331Y-112884260D01*
X138933331Y-112884260D02*
X138966665Y-112950926D01*
X138966665Y-112950926D02*
X138999998Y-112984260D01*
X138999998Y-112984260D02*
X139066665Y-113017593D01*
X139066665Y-113017593D02*
X139233331Y-113017593D01*
X139233331Y-113017593D02*
X139299998Y-112984260D01*
X139299998Y-112984260D02*
X139333331Y-112950926D01*
X138733331Y-112317593D02*
X138499998Y-113017593D01*
X138499998Y-113017593D02*
X138266664Y-112317593D01*
X137166665Y-113017593D02*
X137499998Y-113017593D01*
X137499998Y-113017593D02*
X137499998Y-112317593D01*
X136799998Y-112317593D02*
X136666664Y-112317593D01*
X136666664Y-112317593D02*
X136599998Y-112350926D01*
X136599998Y-112350926D02*
X136533331Y-112417593D01*
X136533331Y-112417593D02*
X136499998Y-112550926D01*
X136499998Y-112550926D02*
X136499998Y-112784260D01*
X136499998Y-112784260D02*
X136533331Y-112917593D01*
X136533331Y-112917593D02*
X136599998Y-112984260D01*
X136599998Y-112984260D02*
X136666664Y-113017593D01*
X136666664Y-113017593D02*
X136799998Y-113017593D01*
X136799998Y-113017593D02*
X136866664Y-112984260D01*
X136866664Y-112984260D02*
X136933331Y-112917593D01*
X136933331Y-112917593D02*
X136966664Y-112784260D01*
X136966664Y-112784260D02*
X136966664Y-112550926D01*
X136966664Y-112550926D02*
X136933331Y-112417593D01*
X136933331Y-112417593D02*
X136866664Y-112350926D01*
X136866664Y-112350926D02*
X136799998Y-112317593D01*
X136233331Y-112817593D02*
X135899998Y-112817593D01*
X136299998Y-113017593D02*
X136066665Y-112317593D01*
X136066665Y-112317593D02*
X135833331Y-113017593D01*
X135599998Y-113017593D02*
X135599998Y-112317593D01*
X135599998Y-112317593D02*
X135433331Y-112317593D01*
X135433331Y-112317593D02*
X135333331Y-112350926D01*
X135333331Y-112350926D02*
X135266665Y-112417593D01*
X135266665Y-112417593D02*
X135233331Y-112484260D01*
X135233331Y-112484260D02*
X135199998Y-112617593D01*
X135199998Y-112617593D02*
X135199998Y-112717593D01*
X135199998Y-112717593D02*
X135233331Y-112850926D01*
X135233331Y-112850926D02*
X135266665Y-112917593D01*
X135266665Y-112917593D02*
X135333331Y-112984260D01*
X135333331Y-112984260D02*
X135433331Y-113017593D01*
X135433331Y-113017593D02*
X135599998Y-113017593D01*
X134399998Y-112984260D02*
X134299998Y-113017593D01*
X134299998Y-113017593D02*
X134133332Y-113017593D01*
X134133332Y-113017593D02*
X134066665Y-112984260D01*
X134066665Y-112984260D02*
X134033332Y-112950926D01*
X134033332Y-112950926D02*
X133999998Y-112884260D01*
X133999998Y-112884260D02*
X133999998Y-112817593D01*
X133999998Y-112817593D02*
X134033332Y-112750926D01*
X134033332Y-112750926D02*
X134066665Y-112717593D01*
X134066665Y-112717593D02*
X134133332Y-112684260D01*
X134133332Y-112684260D02*
X134266665Y-112650926D01*
X134266665Y-112650926D02*
X134333332Y-112617593D01*
X134333332Y-112617593D02*
X134366665Y-112584260D01*
X134366665Y-112584260D02*
X134399998Y-112517593D01*
X134399998Y-112517593D02*
X134399998Y-112450926D01*
X134399998Y-112450926D02*
X134366665Y-112384260D01*
X134366665Y-112384260D02*
X134333332Y-112350926D01*
X134333332Y-112350926D02*
X134266665Y-112317593D01*
X134266665Y-112317593D02*
X134099998Y-112317593D01*
X134099998Y-112317593D02*
X133999998Y-112350926D01*
X133766665Y-112317593D02*
X133599998Y-113017593D01*
X133599998Y-113017593D02*
X133466665Y-112517593D01*
X133466665Y-112517593D02*
X133333331Y-113017593D01*
X133333331Y-113017593D02*
X133166665Y-112317593D01*
X132199998Y-113250926D02*
X132199998Y-112250926D01*
X129733332Y-112350926D02*
X129799999Y-112317593D01*
X129799999Y-112317593D02*
X129899999Y-112317593D01*
X129899999Y-112317593D02*
X129999999Y-112350926D01*
X129999999Y-112350926D02*
X130066666Y-112417593D01*
X130066666Y-112417593D02*
X130099999Y-112484260D01*
X130099999Y-112484260D02*
X130133332Y-112617593D01*
X130133332Y-112617593D02*
X130133332Y-112717593D01*
X130133332Y-112717593D02*
X130099999Y-112850926D01*
X130099999Y-112850926D02*
X130066666Y-112917593D01*
X130066666Y-112917593D02*
X129999999Y-112984260D01*
X129999999Y-112984260D02*
X129899999Y-113017593D01*
X129899999Y-113017593D02*
X129833332Y-113017593D01*
X129833332Y-113017593D02*
X129733332Y-112984260D01*
X129733332Y-112984260D02*
X129699999Y-112950926D01*
X129699999Y-112950926D02*
X129699999Y-112717593D01*
X129699999Y-112717593D02*
X129833332Y-112717593D01*
X129399999Y-113017593D02*
X129399999Y-112317593D01*
X129399999Y-112317593D02*
X129133332Y-112317593D01*
X129133332Y-112317593D02*
X129066666Y-112350926D01*
X129066666Y-112350926D02*
X129033332Y-112384260D01*
X129033332Y-112384260D02*
X128999999Y-112450926D01*
X128999999Y-112450926D02*
X128999999Y-112550926D01*
X128999999Y-112550926D02*
X129033332Y-112617593D01*
X129033332Y-112617593D02*
X129066666Y-112650926D01*
X129066666Y-112650926D02*
X129133332Y-112684260D01*
X129133332Y-112684260D02*
X129399999Y-112684260D01*
X128333332Y-113017593D02*
X128733332Y-113017593D01*
X128533332Y-113017593D02*
X128533332Y-112317593D01*
X128533332Y-112317593D02*
X128599999Y-112417593D01*
X128599999Y-112417593D02*
X128666666Y-112484260D01*
X128666666Y-112484260D02*
X128733332Y-112517593D01*
X127699999Y-112317593D02*
X128033332Y-112317593D01*
X128033332Y-112317593D02*
X128066665Y-112650926D01*
X128066665Y-112650926D02*
X128033332Y-112617593D01*
X128033332Y-112617593D02*
X127966665Y-112584260D01*
X127966665Y-112584260D02*
X127799999Y-112584260D01*
X127799999Y-112584260D02*
X127733332Y-112617593D01*
X127733332Y-112617593D02*
X127699999Y-112650926D01*
X127699999Y-112650926D02*
X127666665Y-112717593D01*
X127666665Y-112717593D02*
X127666665Y-112884260D01*
X127666665Y-112884260D02*
X127699999Y-112950926D01*
X127699999Y-112950926D02*
X127733332Y-112984260D01*
X127733332Y-112984260D02*
X127799999Y-113017593D01*
X127799999Y-113017593D02*
X127966665Y-113017593D01*
X127966665Y-113017593D02*
X128033332Y-112984260D01*
X128033332Y-112984260D02*
X128066665Y-112950926D01*
X127366665Y-112950926D02*
X127333332Y-112984260D01*
X127333332Y-112984260D02*
X127366665Y-113017593D01*
X127366665Y-113017593D02*
X127399998Y-112984260D01*
X127399998Y-112984260D02*
X127366665Y-112950926D01*
X127366665Y-112950926D02*
X127366665Y-113017593D01*
X127366665Y-112584260D02*
X127333332Y-112617593D01*
X127333332Y-112617593D02*
X127366665Y-112650926D01*
X127366665Y-112650926D02*
X127399998Y-112617593D01*
X127399998Y-112617593D02*
X127366665Y-112584260D01*
X127366665Y-112584260D02*
X127366665Y-112650926D01*
X126499999Y-113017593D02*
X126499999Y-112317593D01*
X126499999Y-112317593D02*
X126333332Y-112317593D01*
X126333332Y-112317593D02*
X126233332Y-112350926D01*
X126233332Y-112350926D02*
X126166666Y-112417593D01*
X126166666Y-112417593D02*
X126133332Y-112484260D01*
X126133332Y-112484260D02*
X126099999Y-112617593D01*
X126099999Y-112617593D02*
X126099999Y-112717593D01*
X126099999Y-112717593D02*
X126133332Y-112850926D01*
X126133332Y-112850926D02*
X126166666Y-112917593D01*
X126166666Y-112917593D02*
X126233332Y-112984260D01*
X126233332Y-112984260D02*
X126333332Y-113017593D01*
X126333332Y-113017593D02*
X126499999Y-113017593D01*
X125833332Y-112817593D02*
X125499999Y-112817593D01*
X125899999Y-113017593D02*
X125666666Y-112317593D01*
X125666666Y-112317593D02*
X125433332Y-113017593D01*
X125299999Y-112317593D02*
X124899999Y-112317593D01*
X125099999Y-113017593D02*
X125099999Y-112317593D01*
X124699999Y-112817593D02*
X124366666Y-112817593D01*
X124766666Y-113017593D02*
X124533333Y-112317593D01*
X124533333Y-112317593D02*
X124299999Y-113017593D01*
X123566666Y-112984260D02*
X123466666Y-113017593D01*
X123466666Y-113017593D02*
X123300000Y-113017593D01*
X123300000Y-113017593D02*
X123233333Y-112984260D01*
X123233333Y-112984260D02*
X123200000Y-112950926D01*
X123200000Y-112950926D02*
X123166666Y-112884260D01*
X123166666Y-112884260D02*
X123166666Y-112817593D01*
X123166666Y-112817593D02*
X123200000Y-112750926D01*
X123200000Y-112750926D02*
X123233333Y-112717593D01*
X123233333Y-112717593D02*
X123300000Y-112684260D01*
X123300000Y-112684260D02*
X123433333Y-112650926D01*
X123433333Y-112650926D02*
X123500000Y-112617593D01*
X123500000Y-112617593D02*
X123533333Y-112584260D01*
X123533333Y-112584260D02*
X123566666Y-112517593D01*
X123566666Y-112517593D02*
X123566666Y-112450926D01*
X123566666Y-112450926D02*
X123533333Y-112384260D01*
X123533333Y-112384260D02*
X123500000Y-112350926D01*
X123500000Y-112350926D02*
X123433333Y-112317593D01*
X123433333Y-112317593D02*
X123266666Y-112317593D01*
X123266666Y-112317593D02*
X123166666Y-112350926D01*
X122933333Y-112317593D02*
X122766666Y-113017593D01*
X122766666Y-113017593D02*
X122633333Y-112517593D01*
X122633333Y-112517593D02*
X122499999Y-113017593D01*
X122499999Y-113017593D02*
X122333333Y-112317593D01*
X122066666Y-113017593D02*
X122066666Y-112317593D01*
X121833333Y-112317593D02*
X121433333Y-112317593D01*
X121633333Y-113017593D02*
X121633333Y-112317593D01*
X120800000Y-112950926D02*
X120833333Y-112984260D01*
X120833333Y-112984260D02*
X120933333Y-113017593D01*
X120933333Y-113017593D02*
X121000000Y-113017593D01*
X121000000Y-113017593D02*
X121100000Y-112984260D01*
X121100000Y-112984260D02*
X121166667Y-112917593D01*
X121166667Y-112917593D02*
X121200000Y-112850926D01*
X121200000Y-112850926D02*
X121233333Y-112717593D01*
X121233333Y-112717593D02*
X121233333Y-112617593D01*
X121233333Y-112617593D02*
X121200000Y-112484260D01*
X121200000Y-112484260D02*
X121166667Y-112417593D01*
X121166667Y-112417593D02*
X121100000Y-112350926D01*
X121100000Y-112350926D02*
X121000000Y-112317593D01*
X121000000Y-112317593D02*
X120933333Y-112317593D01*
X120933333Y-112317593D02*
X120833333Y-112350926D01*
X120833333Y-112350926D02*
X120800000Y-112384260D01*
X120500000Y-113017593D02*
X120500000Y-112317593D01*
X120500000Y-112650926D02*
X120100000Y-112650926D01*
X120100000Y-113017593D02*
X120100000Y-112317593D01*
X142583333Y-114517593D02*
X142583333Y-115084260D01*
X142583333Y-115084260D02*
X142550000Y-115150926D01*
X142550000Y-115150926D02*
X142516666Y-115184260D01*
X142516666Y-115184260D02*
X142450000Y-115217593D01*
X142450000Y-115217593D02*
X142316666Y-115217593D01*
X142316666Y-115217593D02*
X142250000Y-115184260D01*
X142250000Y-115184260D02*
X142216666Y-115150926D01*
X142216666Y-115150926D02*
X142183333Y-115084260D01*
X142183333Y-115084260D02*
X142183333Y-114517593D01*
X141883333Y-115017593D02*
X141550000Y-115017593D01*
X141950000Y-115217593D02*
X141716667Y-114517593D01*
X141716667Y-114517593D02*
X141483333Y-115217593D01*
X140850000Y-115217593D02*
X141083333Y-114884260D01*
X141250000Y-115217593D02*
X141250000Y-114517593D01*
X141250000Y-114517593D02*
X140983333Y-114517593D01*
X140983333Y-114517593D02*
X140916667Y-114550926D01*
X140916667Y-114550926D02*
X140883333Y-114584260D01*
X140883333Y-114584260D02*
X140850000Y-114650926D01*
X140850000Y-114650926D02*
X140850000Y-114750926D01*
X140850000Y-114750926D02*
X140883333Y-114817593D01*
X140883333Y-114817593D02*
X140916667Y-114850926D01*
X140916667Y-114850926D02*
X140983333Y-114884260D01*
X140983333Y-114884260D02*
X141250000Y-114884260D01*
X140650000Y-114517593D02*
X140250000Y-114517593D01*
X140450000Y-115217593D02*
X140450000Y-114517593D01*
X140016667Y-115150926D02*
X139983334Y-115184260D01*
X139983334Y-115184260D02*
X140016667Y-115217593D01*
X140016667Y-115217593D02*
X140050000Y-115184260D01*
X140050000Y-115184260D02*
X140016667Y-115150926D01*
X140016667Y-115150926D02*
X140016667Y-115217593D01*
X140016667Y-114784260D02*
X139983334Y-114817593D01*
X139983334Y-114817593D02*
X140016667Y-114850926D01*
X140016667Y-114850926D02*
X140050000Y-114817593D01*
X140050000Y-114817593D02*
X140016667Y-114784260D01*
X140016667Y-114784260D02*
X140016667Y-114850926D01*
X138783334Y-114550926D02*
X138850001Y-114517593D01*
X138850001Y-114517593D02*
X138950001Y-114517593D01*
X138950001Y-114517593D02*
X139050001Y-114550926D01*
X139050001Y-114550926D02*
X139116668Y-114617593D01*
X139116668Y-114617593D02*
X139150001Y-114684260D01*
X139150001Y-114684260D02*
X139183334Y-114817593D01*
X139183334Y-114817593D02*
X139183334Y-114917593D01*
X139183334Y-114917593D02*
X139150001Y-115050926D01*
X139150001Y-115050926D02*
X139116668Y-115117593D01*
X139116668Y-115117593D02*
X139050001Y-115184260D01*
X139050001Y-115184260D02*
X138950001Y-115217593D01*
X138950001Y-115217593D02*
X138883334Y-115217593D01*
X138883334Y-115217593D02*
X138783334Y-115184260D01*
X138783334Y-115184260D02*
X138750001Y-115150926D01*
X138750001Y-115150926D02*
X138750001Y-114917593D01*
X138750001Y-114917593D02*
X138883334Y-114917593D01*
X138450001Y-115217593D02*
X138450001Y-114517593D01*
X138450001Y-114517593D02*
X138183334Y-114517593D01*
X138183334Y-114517593D02*
X138116668Y-114550926D01*
X138116668Y-114550926D02*
X138083334Y-114584260D01*
X138083334Y-114584260D02*
X138050001Y-114650926D01*
X138050001Y-114650926D02*
X138050001Y-114750926D01*
X138050001Y-114750926D02*
X138083334Y-114817593D01*
X138083334Y-114817593D02*
X138116668Y-114850926D01*
X138116668Y-114850926D02*
X138183334Y-114884260D01*
X138183334Y-114884260D02*
X138450001Y-114884260D01*
X137616668Y-114517593D02*
X137550001Y-114517593D01*
X137550001Y-114517593D02*
X137483334Y-114550926D01*
X137483334Y-114550926D02*
X137450001Y-114584260D01*
X137450001Y-114584260D02*
X137416668Y-114650926D01*
X137416668Y-114650926D02*
X137383334Y-114784260D01*
X137383334Y-114784260D02*
X137383334Y-114950926D01*
X137383334Y-114950926D02*
X137416668Y-115084260D01*
X137416668Y-115084260D02*
X137450001Y-115150926D01*
X137450001Y-115150926D02*
X137483334Y-115184260D01*
X137483334Y-115184260D02*
X137550001Y-115217593D01*
X137550001Y-115217593D02*
X137616668Y-115217593D01*
X137616668Y-115217593D02*
X137683334Y-115184260D01*
X137683334Y-115184260D02*
X137716668Y-115150926D01*
X137716668Y-115150926D02*
X137750001Y-115084260D01*
X137750001Y-115084260D02*
X137783334Y-114950926D01*
X137783334Y-114950926D02*
X137783334Y-114784260D01*
X137783334Y-114784260D02*
X137750001Y-114650926D01*
X137750001Y-114650926D02*
X137716668Y-114584260D01*
X137716668Y-114584260D02*
X137683334Y-114550926D01*
X137683334Y-114550926D02*
X137616668Y-114517593D01*
X136350001Y-115484260D02*
X136383334Y-115450926D01*
X136383334Y-115450926D02*
X136450001Y-115350926D01*
X136450001Y-115350926D02*
X136483334Y-115284260D01*
X136483334Y-115284260D02*
X136516668Y-115184260D01*
X136516668Y-115184260D02*
X136550001Y-115017593D01*
X136550001Y-115017593D02*
X136550001Y-114884260D01*
X136550001Y-114884260D02*
X136516668Y-114717593D01*
X136516668Y-114717593D02*
X136483334Y-114617593D01*
X136483334Y-114617593D02*
X136450001Y-114550926D01*
X136450001Y-114550926D02*
X136383334Y-114450926D01*
X136383334Y-114450926D02*
X136350001Y-114417593D01*
X136183334Y-114517593D02*
X135783334Y-114517593D01*
X135983334Y-115217593D02*
X135983334Y-114517593D01*
X135616668Y-114517593D02*
X135150001Y-115217593D01*
X135150001Y-114517593D02*
X135616668Y-115217593D01*
X134950001Y-115484260D02*
X134916667Y-115450926D01*
X134916667Y-115450926D02*
X134850001Y-115350926D01*
X134850001Y-115350926D02*
X134816667Y-115284260D01*
X134816667Y-115284260D02*
X134783334Y-115184260D01*
X134783334Y-115184260D02*
X134750001Y-115017593D01*
X134750001Y-115017593D02*
X134750001Y-114884260D01*
X134750001Y-114884260D02*
X134783334Y-114717593D01*
X134783334Y-114717593D02*
X134816667Y-114617593D01*
X134816667Y-114617593D02*
X134850001Y-114550926D01*
X134850001Y-114550926D02*
X134916667Y-114450926D01*
X134916667Y-114450926D02*
X134950001Y-114417593D01*
X134383334Y-115184260D02*
X134383334Y-115217593D01*
X134383334Y-115217593D02*
X134416667Y-115284260D01*
X134416667Y-115284260D02*
X134450000Y-115317593D01*
X133183334Y-114550926D02*
X133250001Y-114517593D01*
X133250001Y-114517593D02*
X133350001Y-114517593D01*
X133350001Y-114517593D02*
X133450001Y-114550926D01*
X133450001Y-114550926D02*
X133516668Y-114617593D01*
X133516668Y-114617593D02*
X133550001Y-114684260D01*
X133550001Y-114684260D02*
X133583334Y-114817593D01*
X133583334Y-114817593D02*
X133583334Y-114917593D01*
X133583334Y-114917593D02*
X133550001Y-115050926D01*
X133550001Y-115050926D02*
X133516668Y-115117593D01*
X133516668Y-115117593D02*
X133450001Y-115184260D01*
X133450001Y-115184260D02*
X133350001Y-115217593D01*
X133350001Y-115217593D02*
X133283334Y-115217593D01*
X133283334Y-115217593D02*
X133183334Y-115184260D01*
X133183334Y-115184260D02*
X133150001Y-115150926D01*
X133150001Y-115150926D02*
X133150001Y-114917593D01*
X133150001Y-114917593D02*
X133283334Y-114917593D01*
X132850001Y-115217593D02*
X132850001Y-114517593D01*
X132850001Y-114517593D02*
X132583334Y-114517593D01*
X132583334Y-114517593D02*
X132516668Y-114550926D01*
X132516668Y-114550926D02*
X132483334Y-114584260D01*
X132483334Y-114584260D02*
X132450001Y-114650926D01*
X132450001Y-114650926D02*
X132450001Y-114750926D01*
X132450001Y-114750926D02*
X132483334Y-114817593D01*
X132483334Y-114817593D02*
X132516668Y-114850926D01*
X132516668Y-114850926D02*
X132583334Y-114884260D01*
X132583334Y-114884260D02*
X132850001Y-114884260D01*
X131783334Y-115217593D02*
X132183334Y-115217593D01*
X131983334Y-115217593D02*
X131983334Y-114517593D01*
X131983334Y-114517593D02*
X132050001Y-114617593D01*
X132050001Y-114617593D02*
X132116668Y-114684260D01*
X132116668Y-114684260D02*
X132183334Y-114717593D01*
X130750001Y-115484260D02*
X130783334Y-115450926D01*
X130783334Y-115450926D02*
X130850001Y-115350926D01*
X130850001Y-115350926D02*
X130883334Y-115284260D01*
X130883334Y-115284260D02*
X130916668Y-115184260D01*
X130916668Y-115184260D02*
X130950001Y-115017593D01*
X130950001Y-115017593D02*
X130950001Y-114884260D01*
X130950001Y-114884260D02*
X130916668Y-114717593D01*
X130916668Y-114717593D02*
X130883334Y-114617593D01*
X130883334Y-114617593D02*
X130850001Y-114550926D01*
X130850001Y-114550926D02*
X130783334Y-114450926D01*
X130783334Y-114450926D02*
X130750001Y-114417593D01*
X130083334Y-115217593D02*
X130316667Y-114884260D01*
X130483334Y-115217593D02*
X130483334Y-114517593D01*
X130483334Y-114517593D02*
X130216667Y-114517593D01*
X130216667Y-114517593D02*
X130150001Y-114550926D01*
X130150001Y-114550926D02*
X130116667Y-114584260D01*
X130116667Y-114584260D02*
X130083334Y-114650926D01*
X130083334Y-114650926D02*
X130083334Y-114750926D01*
X130083334Y-114750926D02*
X130116667Y-114817593D01*
X130116667Y-114817593D02*
X130150001Y-114850926D01*
X130150001Y-114850926D02*
X130216667Y-114884260D01*
X130216667Y-114884260D02*
X130483334Y-114884260D01*
X129850001Y-114517593D02*
X129383334Y-115217593D01*
X129383334Y-114517593D02*
X129850001Y-115217593D01*
X129183334Y-115484260D02*
X129150000Y-115450926D01*
X129150000Y-115450926D02*
X129083334Y-115350926D01*
X129083334Y-115350926D02*
X129050000Y-115284260D01*
X129050000Y-115284260D02*
X129016667Y-115184260D01*
X129016667Y-115184260D02*
X128983334Y-115017593D01*
X128983334Y-115017593D02*
X128983334Y-114884260D01*
X128983334Y-114884260D02*
X129016667Y-114717593D01*
X129016667Y-114717593D02*
X129050000Y-114617593D01*
X129050000Y-114617593D02*
X129083334Y-114550926D01*
X129083334Y-114550926D02*
X129150000Y-114450926D01*
X129150000Y-114450926D02*
X129183334Y-114417593D01*
X127683334Y-114884260D02*
X127716667Y-114850926D01*
X127716667Y-114850926D02*
X127783334Y-114817593D01*
X127783334Y-114817593D02*
X127850000Y-114817593D01*
X127850000Y-114817593D02*
X127916667Y-114850926D01*
X127916667Y-114850926D02*
X127950000Y-114884260D01*
X127950000Y-114884260D02*
X127983334Y-114950926D01*
X127983334Y-114950926D02*
X127983334Y-115017593D01*
X127983334Y-115017593D02*
X127950000Y-115084260D01*
X127950000Y-115084260D02*
X127916667Y-115117593D01*
X127916667Y-115117593D02*
X127850000Y-115150926D01*
X127850000Y-115150926D02*
X127783334Y-115150926D01*
X127783334Y-115150926D02*
X127716667Y-115117593D01*
X127716667Y-115117593D02*
X127683334Y-115084260D01*
X127683334Y-114817593D02*
X127683334Y-115084260D01*
X127683334Y-115084260D02*
X127650000Y-115117593D01*
X127650000Y-115117593D02*
X127616667Y-115117593D01*
X127616667Y-115117593D02*
X127550000Y-115084260D01*
X127550000Y-115084260D02*
X127516667Y-115017593D01*
X127516667Y-115017593D02*
X127516667Y-114850926D01*
X127516667Y-114850926D02*
X127583334Y-114750926D01*
X127583334Y-114750926D02*
X127683334Y-114684260D01*
X127683334Y-114684260D02*
X127816667Y-114650926D01*
X127816667Y-114650926D02*
X127950000Y-114684260D01*
X127950000Y-114684260D02*
X128050000Y-114750926D01*
X128050000Y-114750926D02*
X128116667Y-114850926D01*
X128116667Y-114850926D02*
X128150000Y-114984260D01*
X128150000Y-114984260D02*
X128116667Y-115117593D01*
X128116667Y-115117593D02*
X128050000Y-115217593D01*
X128050000Y-115217593D02*
X127950000Y-115284260D01*
X127950000Y-115284260D02*
X127816667Y-115317593D01*
X127816667Y-115317593D02*
X127683334Y-115284260D01*
X127683334Y-115284260D02*
X127583334Y-115217593D01*
X126316667Y-115217593D02*
X126716667Y-115217593D01*
X126516667Y-115217593D02*
X126516667Y-114517593D01*
X126516667Y-114517593D02*
X126583334Y-114617593D01*
X126583334Y-114617593D02*
X126650001Y-114684260D01*
X126650001Y-114684260D02*
X126716667Y-114717593D01*
X125650000Y-115217593D02*
X126050000Y-115217593D01*
X125850000Y-115217593D02*
X125850000Y-114517593D01*
X125850000Y-114517593D02*
X125916667Y-114617593D01*
X125916667Y-114617593D02*
X125983334Y-114684260D01*
X125983334Y-114684260D02*
X126050000Y-114717593D01*
X125016667Y-114517593D02*
X125350000Y-114517593D01*
X125350000Y-114517593D02*
X125383333Y-114850926D01*
X125383333Y-114850926D02*
X125350000Y-114817593D01*
X125350000Y-114817593D02*
X125283333Y-114784260D01*
X125283333Y-114784260D02*
X125116667Y-114784260D01*
X125116667Y-114784260D02*
X125050000Y-114817593D01*
X125050000Y-114817593D02*
X125016667Y-114850926D01*
X125016667Y-114850926D02*
X124983333Y-114917593D01*
X124983333Y-114917593D02*
X124983333Y-115084260D01*
X124983333Y-115084260D02*
X125016667Y-115150926D01*
X125016667Y-115150926D02*
X125050000Y-115184260D01*
X125050000Y-115184260D02*
X125116667Y-115217593D01*
X125116667Y-115217593D02*
X125283333Y-115217593D01*
X125283333Y-115217593D02*
X125350000Y-115184260D01*
X125350000Y-115184260D02*
X125383333Y-115150926D01*
X124716666Y-114584260D02*
X124683333Y-114550926D01*
X124683333Y-114550926D02*
X124616666Y-114517593D01*
X124616666Y-114517593D02*
X124450000Y-114517593D01*
X124450000Y-114517593D02*
X124383333Y-114550926D01*
X124383333Y-114550926D02*
X124350000Y-114584260D01*
X124350000Y-114584260D02*
X124316666Y-114650926D01*
X124316666Y-114650926D02*
X124316666Y-114717593D01*
X124316666Y-114717593D02*
X124350000Y-114817593D01*
X124350000Y-114817593D02*
X124750000Y-115217593D01*
X124750000Y-115217593D02*
X124316666Y-115217593D01*
X123883333Y-114517593D02*
X123816666Y-114517593D01*
X123816666Y-114517593D02*
X123749999Y-114550926D01*
X123749999Y-114550926D02*
X123716666Y-114584260D01*
X123716666Y-114584260D02*
X123683333Y-114650926D01*
X123683333Y-114650926D02*
X123649999Y-114784260D01*
X123649999Y-114784260D02*
X123649999Y-114950926D01*
X123649999Y-114950926D02*
X123683333Y-115084260D01*
X123683333Y-115084260D02*
X123716666Y-115150926D01*
X123716666Y-115150926D02*
X123749999Y-115184260D01*
X123749999Y-115184260D02*
X123816666Y-115217593D01*
X123816666Y-115217593D02*
X123883333Y-115217593D01*
X123883333Y-115217593D02*
X123949999Y-115184260D01*
X123949999Y-115184260D02*
X123983333Y-115150926D01*
X123983333Y-115150926D02*
X124016666Y-115084260D01*
X124016666Y-115084260D02*
X124049999Y-114950926D01*
X124049999Y-114950926D02*
X124049999Y-114784260D01*
X124049999Y-114784260D02*
X124016666Y-114650926D01*
X124016666Y-114650926D02*
X123983333Y-114584260D01*
X123983333Y-114584260D02*
X123949999Y-114550926D01*
X123949999Y-114550926D02*
X123883333Y-114517593D01*
X123216666Y-114517593D02*
X123149999Y-114517593D01*
X123149999Y-114517593D02*
X123083332Y-114550926D01*
X123083332Y-114550926D02*
X123049999Y-114584260D01*
X123049999Y-114584260D02*
X123016666Y-114650926D01*
X123016666Y-114650926D02*
X122983332Y-114784260D01*
X122983332Y-114784260D02*
X122983332Y-114950926D01*
X122983332Y-114950926D02*
X123016666Y-115084260D01*
X123016666Y-115084260D02*
X123049999Y-115150926D01*
X123049999Y-115150926D02*
X123083332Y-115184260D01*
X123083332Y-115184260D02*
X123149999Y-115217593D01*
X123149999Y-115217593D02*
X123216666Y-115217593D01*
X123216666Y-115217593D02*
X123283332Y-115184260D01*
X123283332Y-115184260D02*
X123316666Y-115150926D01*
X123316666Y-115150926D02*
X123349999Y-115084260D01*
X123349999Y-115084260D02*
X123383332Y-114950926D01*
X123383332Y-114950926D02*
X123383332Y-114784260D01*
X123383332Y-114784260D02*
X123349999Y-114650926D01*
X123349999Y-114650926D02*
X123316666Y-114584260D01*
X123316666Y-114584260D02*
X123283332Y-114550926D01*
X123283332Y-114550926D02*
X123216666Y-114517593D01*
X122049999Y-114817593D02*
X122116666Y-114784260D01*
X122116666Y-114784260D02*
X122149999Y-114750926D01*
X122149999Y-114750926D02*
X122183332Y-114684260D01*
X122183332Y-114684260D02*
X122183332Y-114650926D01*
X122183332Y-114650926D02*
X122149999Y-114584260D01*
X122149999Y-114584260D02*
X122116666Y-114550926D01*
X122116666Y-114550926D02*
X122049999Y-114517593D01*
X122049999Y-114517593D02*
X121916666Y-114517593D01*
X121916666Y-114517593D02*
X121849999Y-114550926D01*
X121849999Y-114550926D02*
X121816666Y-114584260D01*
X121816666Y-114584260D02*
X121783332Y-114650926D01*
X121783332Y-114650926D02*
X121783332Y-114684260D01*
X121783332Y-114684260D02*
X121816666Y-114750926D01*
X121816666Y-114750926D02*
X121849999Y-114784260D01*
X121849999Y-114784260D02*
X121916666Y-114817593D01*
X121916666Y-114817593D02*
X122049999Y-114817593D01*
X122049999Y-114817593D02*
X122116666Y-114850926D01*
X122116666Y-114850926D02*
X122149999Y-114884260D01*
X122149999Y-114884260D02*
X122183332Y-114950926D01*
X122183332Y-114950926D02*
X122183332Y-115084260D01*
X122183332Y-115084260D02*
X122149999Y-115150926D01*
X122149999Y-115150926D02*
X122116666Y-115184260D01*
X122116666Y-115184260D02*
X122049999Y-115217593D01*
X122049999Y-115217593D02*
X121916666Y-115217593D01*
X121916666Y-115217593D02*
X121849999Y-115184260D01*
X121849999Y-115184260D02*
X121816666Y-115150926D01*
X121816666Y-115150926D02*
X121783332Y-115084260D01*
X121783332Y-115084260D02*
X121783332Y-114950926D01*
X121783332Y-114950926D02*
X121816666Y-114884260D01*
X121816666Y-114884260D02*
X121849999Y-114850926D01*
X121849999Y-114850926D02*
X121916666Y-114817593D01*
X121483332Y-115217593D02*
X121483332Y-114517593D01*
X121483332Y-114517593D02*
X121083332Y-115217593D01*
X121083332Y-115217593D02*
X121083332Y-114517593D01*
X120383332Y-115217593D02*
X120783332Y-115217593D01*
X120583332Y-115217593D02*
X120583332Y-114517593D01*
X120583332Y-114517593D02*
X120649999Y-114617593D01*
X120649999Y-114617593D02*
X120716666Y-114684260D01*
X120716666Y-114684260D02*
X120783332Y-114717593D01*
D13*
X146111905Y-108185947D02*
X146111905Y-107335947D01*
X146111905Y-107740709D02*
X145626190Y-107740709D01*
X145626190Y-108185947D02*
X145626190Y-107335947D01*
X145221429Y-108185947D02*
X145221429Y-107619280D01*
X145221429Y-107335947D02*
X145261905Y-107376423D01*
X145261905Y-107376423D02*
X145221429Y-107416899D01*
X145221429Y-107416899D02*
X145180952Y-107376423D01*
X145180952Y-107376423D02*
X145221429Y-107335947D01*
X145221429Y-107335947D02*
X145221429Y-107416899D01*
X144452381Y-107619280D02*
X144452381Y-108307375D01*
X144452381Y-108307375D02*
X144492857Y-108388328D01*
X144492857Y-108388328D02*
X144533333Y-108428804D01*
X144533333Y-108428804D02*
X144614286Y-108469280D01*
X144614286Y-108469280D02*
X144735714Y-108469280D01*
X144735714Y-108469280D02*
X144816667Y-108428804D01*
X144452381Y-108145471D02*
X144533333Y-108185947D01*
X144533333Y-108185947D02*
X144695238Y-108185947D01*
X144695238Y-108185947D02*
X144776190Y-108145471D01*
X144776190Y-108145471D02*
X144816667Y-108104994D01*
X144816667Y-108104994D02*
X144857143Y-108024042D01*
X144857143Y-108024042D02*
X144857143Y-107781185D01*
X144857143Y-107781185D02*
X144816667Y-107700232D01*
X144816667Y-107700232D02*
X144776190Y-107659756D01*
X144776190Y-107659756D02*
X144695238Y-107619280D01*
X144695238Y-107619280D02*
X144533333Y-107619280D01*
X144533333Y-107619280D02*
X144452381Y-107659756D01*
X144047619Y-108185947D02*
X144047619Y-107335947D01*
X143683333Y-108185947D02*
X143683333Y-107740709D01*
X143683333Y-107740709D02*
X143723809Y-107659756D01*
X143723809Y-107659756D02*
X143804761Y-107619280D01*
X143804761Y-107619280D02*
X143926190Y-107619280D01*
X143926190Y-107619280D02*
X144007142Y-107659756D01*
X144007142Y-107659756D02*
X144047619Y-107700232D01*
X143278571Y-107862137D02*
X142630952Y-107862137D01*
X142266666Y-108145471D02*
X142145237Y-108185947D01*
X142145237Y-108185947D02*
X141942856Y-108185947D01*
X141942856Y-108185947D02*
X141861904Y-108145471D01*
X141861904Y-108145471D02*
X141821428Y-108104994D01*
X141821428Y-108104994D02*
X141780951Y-108024042D01*
X141780951Y-108024042D02*
X141780951Y-107943090D01*
X141780951Y-107943090D02*
X141821428Y-107862137D01*
X141821428Y-107862137D02*
X141861904Y-107821661D01*
X141861904Y-107821661D02*
X141942856Y-107781185D01*
X141942856Y-107781185D02*
X142104761Y-107740709D01*
X142104761Y-107740709D02*
X142185713Y-107700232D01*
X142185713Y-107700232D02*
X142226190Y-107659756D01*
X142226190Y-107659756D02*
X142266666Y-107578804D01*
X142266666Y-107578804D02*
X142266666Y-107497851D01*
X142266666Y-107497851D02*
X142226190Y-107416899D01*
X142226190Y-107416899D02*
X142185713Y-107376423D01*
X142185713Y-107376423D02*
X142104761Y-107335947D01*
X142104761Y-107335947D02*
X141902380Y-107335947D01*
X141902380Y-107335947D02*
X141780951Y-107376423D01*
X141416666Y-107619280D02*
X141416666Y-108469280D01*
X141416666Y-107659756D02*
X141335713Y-107619280D01*
X141335713Y-107619280D02*
X141173808Y-107619280D01*
X141173808Y-107619280D02*
X141092856Y-107659756D01*
X141092856Y-107659756D02*
X141052380Y-107700232D01*
X141052380Y-107700232D02*
X141011904Y-107781185D01*
X141011904Y-107781185D02*
X141011904Y-108024042D01*
X141011904Y-108024042D02*
X141052380Y-108104994D01*
X141052380Y-108104994D02*
X141092856Y-108145471D01*
X141092856Y-108145471D02*
X141173808Y-108185947D01*
X141173808Y-108185947D02*
X141335713Y-108185947D01*
X141335713Y-108185947D02*
X141416666Y-108145471D01*
X140323808Y-108145471D02*
X140404760Y-108185947D01*
X140404760Y-108185947D02*
X140566665Y-108185947D01*
X140566665Y-108185947D02*
X140647618Y-108145471D01*
X140647618Y-108145471D02*
X140688094Y-108064518D01*
X140688094Y-108064518D02*
X140688094Y-107740709D01*
X140688094Y-107740709D02*
X140647618Y-107659756D01*
X140647618Y-107659756D02*
X140566665Y-107619280D01*
X140566665Y-107619280D02*
X140404760Y-107619280D01*
X140404760Y-107619280D02*
X140323808Y-107659756D01*
X140323808Y-107659756D02*
X140283332Y-107740709D01*
X140283332Y-107740709D02*
X140283332Y-107821661D01*
X140283332Y-107821661D02*
X140688094Y-107902613D01*
X139595237Y-108145471D02*
X139676189Y-108185947D01*
X139676189Y-108185947D02*
X139838094Y-108185947D01*
X139838094Y-108185947D02*
X139919047Y-108145471D01*
X139919047Y-108145471D02*
X139959523Y-108064518D01*
X139959523Y-108064518D02*
X139959523Y-107740709D01*
X139959523Y-107740709D02*
X139919047Y-107659756D01*
X139919047Y-107659756D02*
X139838094Y-107619280D01*
X139838094Y-107619280D02*
X139676189Y-107619280D01*
X139676189Y-107619280D02*
X139595237Y-107659756D01*
X139595237Y-107659756D02*
X139554761Y-107740709D01*
X139554761Y-107740709D02*
X139554761Y-107821661D01*
X139554761Y-107821661D02*
X139959523Y-107902613D01*
X138826190Y-108185947D02*
X138826190Y-107335947D01*
X138826190Y-108145471D02*
X138907142Y-108185947D01*
X138907142Y-108185947D02*
X139069047Y-108185947D01*
X139069047Y-108185947D02*
X139149999Y-108145471D01*
X139149999Y-108145471D02*
X139190476Y-108104994D01*
X139190476Y-108104994D02*
X139230952Y-108024042D01*
X139230952Y-108024042D02*
X139230952Y-107781185D01*
X139230952Y-107781185D02*
X139190476Y-107700232D01*
X139190476Y-107700232D02*
X139149999Y-107659756D01*
X139149999Y-107659756D02*
X139069047Y-107619280D01*
X139069047Y-107619280D02*
X138907142Y-107619280D01*
X138907142Y-107619280D02*
X138826190Y-107659756D01*
X137773809Y-107335947D02*
X137773809Y-108024042D01*
X137773809Y-108024042D02*
X137733332Y-108104994D01*
X137733332Y-108104994D02*
X137692856Y-108145471D01*
X137692856Y-108145471D02*
X137611904Y-108185947D01*
X137611904Y-108185947D02*
X137449999Y-108185947D01*
X137449999Y-108185947D02*
X137369047Y-108145471D01*
X137369047Y-108145471D02*
X137328570Y-108104994D01*
X137328570Y-108104994D02*
X137288094Y-108024042D01*
X137288094Y-108024042D02*
X137288094Y-107335947D01*
X136923809Y-108145471D02*
X136802380Y-108185947D01*
X136802380Y-108185947D02*
X136599999Y-108185947D01*
X136599999Y-108185947D02*
X136519047Y-108145471D01*
X136519047Y-108145471D02*
X136478571Y-108104994D01*
X136478571Y-108104994D02*
X136438094Y-108024042D01*
X136438094Y-108024042D02*
X136438094Y-107943090D01*
X136438094Y-107943090D02*
X136478571Y-107862137D01*
X136478571Y-107862137D02*
X136519047Y-107821661D01*
X136519047Y-107821661D02*
X136599999Y-107781185D01*
X136599999Y-107781185D02*
X136761904Y-107740709D01*
X136761904Y-107740709D02*
X136842856Y-107700232D01*
X136842856Y-107700232D02*
X136883333Y-107659756D01*
X136883333Y-107659756D02*
X136923809Y-107578804D01*
X136923809Y-107578804D02*
X136923809Y-107497851D01*
X136923809Y-107497851D02*
X136883333Y-107416899D01*
X136883333Y-107416899D02*
X136842856Y-107376423D01*
X136842856Y-107376423D02*
X136761904Y-107335947D01*
X136761904Y-107335947D02*
X136559523Y-107335947D01*
X136559523Y-107335947D02*
X136438094Y-107376423D01*
X135790475Y-107740709D02*
X135669047Y-107781185D01*
X135669047Y-107781185D02*
X135628570Y-107821661D01*
X135628570Y-107821661D02*
X135588094Y-107902613D01*
X135588094Y-107902613D02*
X135588094Y-108024042D01*
X135588094Y-108024042D02*
X135628570Y-108104994D01*
X135628570Y-108104994D02*
X135669047Y-108145471D01*
X135669047Y-108145471D02*
X135749999Y-108185947D01*
X135749999Y-108185947D02*
X136073809Y-108185947D01*
X136073809Y-108185947D02*
X136073809Y-107335947D01*
X136073809Y-107335947D02*
X135790475Y-107335947D01*
X135790475Y-107335947D02*
X135709523Y-107376423D01*
X135709523Y-107376423D02*
X135669047Y-107416899D01*
X135669047Y-107416899D02*
X135628570Y-107497851D01*
X135628570Y-107497851D02*
X135628570Y-107578804D01*
X135628570Y-107578804D02*
X135669047Y-107659756D01*
X135669047Y-107659756D02*
X135709523Y-107700232D01*
X135709523Y-107700232D02*
X135790475Y-107740709D01*
X135790475Y-107740709D02*
X136073809Y-107740709D01*
X134616666Y-107416899D02*
X134576190Y-107376423D01*
X134576190Y-107376423D02*
X134495237Y-107335947D01*
X134495237Y-107335947D02*
X134292856Y-107335947D01*
X134292856Y-107335947D02*
X134211904Y-107376423D01*
X134211904Y-107376423D02*
X134171428Y-107416899D01*
X134171428Y-107416899D02*
X134130951Y-107497851D01*
X134130951Y-107497851D02*
X134130951Y-107578804D01*
X134130951Y-107578804D02*
X134171428Y-107700232D01*
X134171428Y-107700232D02*
X134657142Y-108185947D01*
X134657142Y-108185947D02*
X134130951Y-108185947D01*
X133766666Y-108104994D02*
X133726189Y-108145471D01*
X133726189Y-108145471D02*
X133766666Y-108185947D01*
X133766666Y-108185947D02*
X133807142Y-108145471D01*
X133807142Y-108145471D02*
X133766666Y-108104994D01*
X133766666Y-108104994D02*
X133766666Y-108185947D01*
X133199999Y-107335947D02*
X133119046Y-107335947D01*
X133119046Y-107335947D02*
X133038094Y-107376423D01*
X133038094Y-107376423D02*
X132997618Y-107416899D01*
X132997618Y-107416899D02*
X132957142Y-107497851D01*
X132957142Y-107497851D02*
X132916665Y-107659756D01*
X132916665Y-107659756D02*
X132916665Y-107862137D01*
X132916665Y-107862137D02*
X132957142Y-108024042D01*
X132957142Y-108024042D02*
X132997618Y-108104994D01*
X132997618Y-108104994D02*
X133038094Y-108145471D01*
X133038094Y-108145471D02*
X133119046Y-108185947D01*
X133119046Y-108185947D02*
X133199999Y-108185947D01*
X133199999Y-108185947D02*
X133280951Y-108145471D01*
X133280951Y-108145471D02*
X133321427Y-108104994D01*
X133321427Y-108104994D02*
X133361904Y-108024042D01*
X133361904Y-108024042D02*
X133402380Y-107862137D01*
X133402380Y-107862137D02*
X133402380Y-107659756D01*
X133402380Y-107659756D02*
X133361904Y-107497851D01*
X133361904Y-107497851D02*
X133321427Y-107416899D01*
X133321427Y-107416899D02*
X133280951Y-107376423D01*
X133280951Y-107376423D02*
X133199999Y-107335947D01*
X131904761Y-108185947D02*
X131904761Y-107335947D01*
X131904761Y-107740709D02*
X131419046Y-107740709D01*
X131419046Y-108185947D02*
X131419046Y-107335947D01*
X130892856Y-108185947D02*
X130973808Y-108145471D01*
X130973808Y-108145471D02*
X131014285Y-108104994D01*
X131014285Y-108104994D02*
X131054761Y-108024042D01*
X131054761Y-108024042D02*
X131054761Y-107781185D01*
X131054761Y-107781185D02*
X131014285Y-107700232D01*
X131014285Y-107700232D02*
X130973808Y-107659756D01*
X130973808Y-107659756D02*
X130892856Y-107619280D01*
X130892856Y-107619280D02*
X130771427Y-107619280D01*
X130771427Y-107619280D02*
X130690475Y-107659756D01*
X130690475Y-107659756D02*
X130649999Y-107700232D01*
X130649999Y-107700232D02*
X130609523Y-107781185D01*
X130609523Y-107781185D02*
X130609523Y-108024042D01*
X130609523Y-108024042D02*
X130649999Y-108104994D01*
X130649999Y-108104994D02*
X130690475Y-108145471D01*
X130690475Y-108145471D02*
X130771427Y-108185947D01*
X130771427Y-108185947D02*
X130892856Y-108185947D01*
X130285713Y-108145471D02*
X130204760Y-108185947D01*
X130204760Y-108185947D02*
X130042856Y-108185947D01*
X130042856Y-108185947D02*
X129961903Y-108145471D01*
X129961903Y-108145471D02*
X129921427Y-108064518D01*
X129921427Y-108064518D02*
X129921427Y-108024042D01*
X129921427Y-108024042D02*
X129961903Y-107943090D01*
X129961903Y-107943090D02*
X130042856Y-107902613D01*
X130042856Y-107902613D02*
X130164284Y-107902613D01*
X130164284Y-107902613D02*
X130245237Y-107862137D01*
X130245237Y-107862137D02*
X130285713Y-107781185D01*
X130285713Y-107781185D02*
X130285713Y-107740709D01*
X130285713Y-107740709D02*
X130245237Y-107659756D01*
X130245237Y-107659756D02*
X130164284Y-107619280D01*
X130164284Y-107619280D02*
X130042856Y-107619280D01*
X130042856Y-107619280D02*
X129961903Y-107659756D01*
X129678570Y-107619280D02*
X129354761Y-107619280D01*
X129557142Y-107335947D02*
X129557142Y-108064518D01*
X129557142Y-108064518D02*
X129516665Y-108145471D01*
X129516665Y-108145471D02*
X129435713Y-108185947D01*
X129435713Y-108185947D02*
X129354761Y-108185947D01*
X129071428Y-107862137D02*
X128423809Y-107862137D01*
X127533332Y-108104994D02*
X127573808Y-108145471D01*
X127573808Y-108145471D02*
X127695237Y-108185947D01*
X127695237Y-108185947D02*
X127776189Y-108185947D01*
X127776189Y-108185947D02*
X127897618Y-108145471D01*
X127897618Y-108145471D02*
X127978570Y-108064518D01*
X127978570Y-108064518D02*
X128019047Y-107983566D01*
X128019047Y-107983566D02*
X128059523Y-107821661D01*
X128059523Y-107821661D02*
X128059523Y-107700232D01*
X128059523Y-107700232D02*
X128019047Y-107538328D01*
X128019047Y-107538328D02*
X127978570Y-107457375D01*
X127978570Y-107457375D02*
X127897618Y-107376423D01*
X127897618Y-107376423D02*
X127776189Y-107335947D01*
X127776189Y-107335947D02*
X127695237Y-107335947D01*
X127695237Y-107335947D02*
X127573808Y-107376423D01*
X127573808Y-107376423D02*
X127533332Y-107416899D01*
X127047618Y-108185947D02*
X127128570Y-108145471D01*
X127128570Y-108145471D02*
X127169047Y-108104994D01*
X127169047Y-108104994D02*
X127209523Y-108024042D01*
X127209523Y-108024042D02*
X127209523Y-107781185D01*
X127209523Y-107781185D02*
X127169047Y-107700232D01*
X127169047Y-107700232D02*
X127128570Y-107659756D01*
X127128570Y-107659756D02*
X127047618Y-107619280D01*
X127047618Y-107619280D02*
X126926189Y-107619280D01*
X126926189Y-107619280D02*
X126845237Y-107659756D01*
X126845237Y-107659756D02*
X126804761Y-107700232D01*
X126804761Y-107700232D02*
X126764285Y-107781185D01*
X126764285Y-107781185D02*
X126764285Y-108024042D01*
X126764285Y-108024042D02*
X126804761Y-108104994D01*
X126804761Y-108104994D02*
X126845237Y-108145471D01*
X126845237Y-108145471D02*
X126926189Y-108185947D01*
X126926189Y-108185947D02*
X127047618Y-108185947D01*
X126399999Y-107619280D02*
X126399999Y-108185947D01*
X126399999Y-107700232D02*
X126359522Y-107659756D01*
X126359522Y-107659756D02*
X126278570Y-107619280D01*
X126278570Y-107619280D02*
X126157141Y-107619280D01*
X126157141Y-107619280D02*
X126076189Y-107659756D01*
X126076189Y-107659756D02*
X126035713Y-107740709D01*
X126035713Y-107740709D02*
X126035713Y-108185947D01*
X125752379Y-107619280D02*
X125428570Y-107619280D01*
X125630951Y-107335947D02*
X125630951Y-108064518D01*
X125630951Y-108064518D02*
X125590474Y-108145471D01*
X125590474Y-108145471D02*
X125509522Y-108185947D01*
X125509522Y-108185947D02*
X125428570Y-108185947D01*
X125145237Y-108185947D02*
X125145237Y-107619280D01*
X125145237Y-107781185D02*
X125104760Y-107700232D01*
X125104760Y-107700232D02*
X125064284Y-107659756D01*
X125064284Y-107659756D02*
X124983332Y-107619280D01*
X124983332Y-107619280D02*
X124902379Y-107619280D01*
X124497618Y-108185947D02*
X124578570Y-108145471D01*
X124578570Y-108145471D02*
X124619047Y-108104994D01*
X124619047Y-108104994D02*
X124659523Y-108024042D01*
X124659523Y-108024042D02*
X124659523Y-107781185D01*
X124659523Y-107781185D02*
X124619047Y-107700232D01*
X124619047Y-107700232D02*
X124578570Y-107659756D01*
X124578570Y-107659756D02*
X124497618Y-107619280D01*
X124497618Y-107619280D02*
X124376189Y-107619280D01*
X124376189Y-107619280D02*
X124295237Y-107659756D01*
X124295237Y-107659756D02*
X124254761Y-107700232D01*
X124254761Y-107700232D02*
X124214285Y-107781185D01*
X124214285Y-107781185D02*
X124214285Y-108024042D01*
X124214285Y-108024042D02*
X124254761Y-108104994D01*
X124254761Y-108104994D02*
X124295237Y-108145471D01*
X124295237Y-108145471D02*
X124376189Y-108185947D01*
X124376189Y-108185947D02*
X124497618Y-108185947D01*
X123728570Y-108185947D02*
X123809522Y-108145471D01*
X123809522Y-108145471D02*
X123849999Y-108064518D01*
X123849999Y-108064518D02*
X123849999Y-107335947D01*
X123283332Y-108185947D02*
X123364284Y-108145471D01*
X123364284Y-108145471D02*
X123404761Y-108064518D01*
X123404761Y-108064518D02*
X123404761Y-107335947D01*
X122635713Y-108145471D02*
X122716665Y-108185947D01*
X122716665Y-108185947D02*
X122878570Y-108185947D01*
X122878570Y-108185947D02*
X122959523Y-108145471D01*
X122959523Y-108145471D02*
X122999999Y-108064518D01*
X122999999Y-108064518D02*
X122999999Y-107740709D01*
X122999999Y-107740709D02*
X122959523Y-107659756D01*
X122959523Y-107659756D02*
X122878570Y-107619280D01*
X122878570Y-107619280D02*
X122716665Y-107619280D01*
X122716665Y-107619280D02*
X122635713Y-107659756D01*
X122635713Y-107659756D02*
X122595237Y-107740709D01*
X122595237Y-107740709D02*
X122595237Y-107821661D01*
X122595237Y-107821661D02*
X122999999Y-107902613D01*
X121866666Y-108185947D02*
X121866666Y-107335947D01*
X121866666Y-108145471D02*
X121947618Y-108185947D01*
X121947618Y-108185947D02*
X122109523Y-108185947D01*
X122109523Y-108185947D02*
X122190475Y-108145471D01*
X122190475Y-108145471D02*
X122230952Y-108104994D01*
X122230952Y-108104994D02*
X122271428Y-108024042D01*
X122271428Y-108024042D02*
X122271428Y-107781185D01*
X122271428Y-107781185D02*
X122230952Y-107700232D01*
X122230952Y-107700232D02*
X122190475Y-107659756D01*
X122190475Y-107659756D02*
X122109523Y-107619280D01*
X122109523Y-107619280D02*
X121947618Y-107619280D01*
X121947618Y-107619280D02*
X121866666Y-107659756D01*
X120814285Y-108185947D02*
X120814285Y-107335947D01*
X120814285Y-107335947D02*
X120611904Y-107335947D01*
X120611904Y-107335947D02*
X120490475Y-107376423D01*
X120490475Y-107376423D02*
X120409523Y-107457375D01*
X120409523Y-107457375D02*
X120369046Y-107538328D01*
X120369046Y-107538328D02*
X120328570Y-107700232D01*
X120328570Y-107700232D02*
X120328570Y-107821661D01*
X120328570Y-107821661D02*
X120369046Y-107983566D01*
X120369046Y-107983566D02*
X120409523Y-108064518D01*
X120409523Y-108064518D02*
X120490475Y-108145471D01*
X120490475Y-108145471D02*
X120611904Y-108185947D01*
X120611904Y-108185947D02*
X120814285Y-108185947D01*
X119842856Y-108185947D02*
X119923808Y-108145471D01*
X119923808Y-108145471D02*
X119964285Y-108104994D01*
X119964285Y-108104994D02*
X120004761Y-108024042D01*
X120004761Y-108024042D02*
X120004761Y-107781185D01*
X120004761Y-107781185D02*
X119964285Y-107700232D01*
X119964285Y-107700232D02*
X119923808Y-107659756D01*
X119923808Y-107659756D02*
X119842856Y-107619280D01*
X119842856Y-107619280D02*
X119721427Y-107619280D01*
X119721427Y-107619280D02*
X119640475Y-107659756D01*
X119640475Y-107659756D02*
X119599999Y-107700232D01*
X119599999Y-107700232D02*
X119559523Y-107781185D01*
X119559523Y-107781185D02*
X119559523Y-108024042D01*
X119559523Y-108024042D02*
X119599999Y-108104994D01*
X119599999Y-108104994D02*
X119640475Y-108145471D01*
X119640475Y-108145471D02*
X119721427Y-108185947D01*
X119721427Y-108185947D02*
X119842856Y-108185947D01*
X119195237Y-107619280D02*
X119195237Y-108185947D01*
X119195237Y-107700232D02*
X119154760Y-107659756D01*
X119154760Y-107659756D02*
X119073808Y-107619280D01*
X119073808Y-107619280D02*
X118952379Y-107619280D01*
X118952379Y-107619280D02*
X118871427Y-107659756D01*
X118871427Y-107659756D02*
X118830951Y-107740709D01*
X118830951Y-107740709D02*
X118830951Y-108185947D01*
X118061903Y-107619280D02*
X118061903Y-108307375D01*
X118061903Y-108307375D02*
X118102379Y-108388328D01*
X118102379Y-108388328D02*
X118142855Y-108428804D01*
X118142855Y-108428804D02*
X118223808Y-108469280D01*
X118223808Y-108469280D02*
X118345236Y-108469280D01*
X118345236Y-108469280D02*
X118426189Y-108428804D01*
X118061903Y-108145471D02*
X118142855Y-108185947D01*
X118142855Y-108185947D02*
X118304760Y-108185947D01*
X118304760Y-108185947D02*
X118385712Y-108145471D01*
X118385712Y-108145471D02*
X118426189Y-108104994D01*
X118426189Y-108104994D02*
X118466665Y-108024042D01*
X118466665Y-108024042D02*
X118466665Y-107781185D01*
X118466665Y-107781185D02*
X118426189Y-107700232D01*
X118426189Y-107700232D02*
X118385712Y-107659756D01*
X118385712Y-107659756D02*
X118304760Y-107619280D01*
X118304760Y-107619280D02*
X118142855Y-107619280D01*
X118142855Y-107619280D02*
X118061903Y-107659756D01*
X117535712Y-108185947D02*
X117616664Y-108145471D01*
X117616664Y-108145471D02*
X117657141Y-108064518D01*
X117657141Y-108064518D02*
X117657141Y-107335947D01*
X116888093Y-108145471D02*
X116969045Y-108185947D01*
X116969045Y-108185947D02*
X117130950Y-108185947D01*
X117130950Y-108185947D02*
X117211903Y-108145471D01*
X117211903Y-108145471D02*
X117252379Y-108064518D01*
X117252379Y-108064518D02*
X117252379Y-107740709D01*
X117252379Y-107740709D02*
X117211903Y-107659756D01*
X117211903Y-107659756D02*
X117130950Y-107619280D01*
X117130950Y-107619280D02*
X116969045Y-107619280D01*
X116969045Y-107619280D02*
X116888093Y-107659756D01*
X116888093Y-107659756D02*
X116847617Y-107740709D01*
X116847617Y-107740709D02*
X116847617Y-107821661D01*
X116847617Y-107821661D02*
X117252379Y-107902613D01*
D14*
X140357143Y-105720201D02*
X140452381Y-105815440D01*
X140452381Y-105815440D02*
X140738095Y-105910678D01*
X140738095Y-105910678D02*
X140928571Y-105910678D01*
X140928571Y-105910678D02*
X141214286Y-105815440D01*
X141214286Y-105815440D02*
X141404762Y-105624963D01*
X141404762Y-105624963D02*
X141500000Y-105434487D01*
X141500000Y-105434487D02*
X141595238Y-105053535D01*
X141595238Y-105053535D02*
X141595238Y-104767820D01*
X141595238Y-104767820D02*
X141500000Y-104386868D01*
X141500000Y-104386868D02*
X141404762Y-104196392D01*
X141404762Y-104196392D02*
X141214286Y-104005916D01*
X141214286Y-104005916D02*
X140928571Y-103910678D01*
X140928571Y-103910678D02*
X140738095Y-103910678D01*
X140738095Y-103910678D02*
X140452381Y-104005916D01*
X140452381Y-104005916D02*
X140357143Y-104101154D01*
X139214286Y-105910678D02*
X139404762Y-105815440D01*
X139404762Y-105815440D02*
X139500000Y-105720201D01*
X139500000Y-105720201D02*
X139595238Y-105529725D01*
X139595238Y-105529725D02*
X139595238Y-104958297D01*
X139595238Y-104958297D02*
X139500000Y-104767820D01*
X139500000Y-104767820D02*
X139404762Y-104672582D01*
X139404762Y-104672582D02*
X139214286Y-104577344D01*
X139214286Y-104577344D02*
X138928571Y-104577344D01*
X138928571Y-104577344D02*
X138738095Y-104672582D01*
X138738095Y-104672582D02*
X138642857Y-104767820D01*
X138642857Y-104767820D02*
X138547619Y-104958297D01*
X138547619Y-104958297D02*
X138547619Y-105529725D01*
X138547619Y-105529725D02*
X138642857Y-105720201D01*
X138642857Y-105720201D02*
X138738095Y-105815440D01*
X138738095Y-105815440D02*
X138928571Y-105910678D01*
X138928571Y-105910678D02*
X139214286Y-105910678D01*
X137690476Y-104577344D02*
X137690476Y-105910678D01*
X137690476Y-104767820D02*
X137595238Y-104672582D01*
X137595238Y-104672582D02*
X137404762Y-104577344D01*
X137404762Y-104577344D02*
X137119047Y-104577344D01*
X137119047Y-104577344D02*
X136928571Y-104672582D01*
X136928571Y-104672582D02*
X136833333Y-104863059D01*
X136833333Y-104863059D02*
X136833333Y-105910678D01*
X136166666Y-104577344D02*
X135404762Y-104577344D01*
X135880952Y-103910678D02*
X135880952Y-105624963D01*
X135880952Y-105624963D02*
X135785714Y-105815440D01*
X135785714Y-105815440D02*
X135595238Y-105910678D01*
X135595238Y-105910678D02*
X135404762Y-105910678D01*
X134738095Y-105910678D02*
X134738095Y-104577344D01*
X134738095Y-104958297D02*
X134642857Y-104767820D01*
X134642857Y-104767820D02*
X134547619Y-104672582D01*
X134547619Y-104672582D02*
X134357143Y-104577344D01*
X134357143Y-104577344D02*
X134166666Y-104577344D01*
X133214286Y-105910678D02*
X133404762Y-105815440D01*
X133404762Y-105815440D02*
X133500000Y-105720201D01*
X133500000Y-105720201D02*
X133595238Y-105529725D01*
X133595238Y-105529725D02*
X133595238Y-104958297D01*
X133595238Y-104958297D02*
X133500000Y-104767820D01*
X133500000Y-104767820D02*
X133404762Y-104672582D01*
X133404762Y-104672582D02*
X133214286Y-104577344D01*
X133214286Y-104577344D02*
X132928571Y-104577344D01*
X132928571Y-104577344D02*
X132738095Y-104672582D01*
X132738095Y-104672582D02*
X132642857Y-104767820D01*
X132642857Y-104767820D02*
X132547619Y-104958297D01*
X132547619Y-104958297D02*
X132547619Y-105529725D01*
X132547619Y-105529725D02*
X132642857Y-105720201D01*
X132642857Y-105720201D02*
X132738095Y-105815440D01*
X132738095Y-105815440D02*
X132928571Y-105910678D01*
X132928571Y-105910678D02*
X133214286Y-105910678D01*
X131404762Y-105910678D02*
X131595238Y-105815440D01*
X131595238Y-105815440D02*
X131690476Y-105624963D01*
X131690476Y-105624963D02*
X131690476Y-103910678D01*
X130357143Y-105910678D02*
X130547619Y-105815440D01*
X130547619Y-105815440D02*
X130642857Y-105624963D01*
X130642857Y-105624963D02*
X130642857Y-103910678D01*
X128833333Y-105815440D02*
X129023809Y-105910678D01*
X129023809Y-105910678D02*
X129404762Y-105910678D01*
X129404762Y-105910678D02*
X129595238Y-105815440D01*
X129595238Y-105815440D02*
X129690476Y-105624963D01*
X129690476Y-105624963D02*
X129690476Y-104863059D01*
X129690476Y-104863059D02*
X129595238Y-104672582D01*
X129595238Y-104672582D02*
X129404762Y-104577344D01*
X129404762Y-104577344D02*
X129023809Y-104577344D01*
X129023809Y-104577344D02*
X128833333Y-104672582D01*
X128833333Y-104672582D02*
X128738095Y-104863059D01*
X128738095Y-104863059D02*
X128738095Y-105053535D01*
X128738095Y-105053535D02*
X129690476Y-105244011D01*
X127023809Y-105910678D02*
X127023809Y-103910678D01*
X127023809Y-105815440D02*
X127214285Y-105910678D01*
X127214285Y-105910678D02*
X127595238Y-105910678D01*
X127595238Y-105910678D02*
X127785714Y-105815440D01*
X127785714Y-105815440D02*
X127880952Y-105720201D01*
X127880952Y-105720201D02*
X127976190Y-105529725D01*
X127976190Y-105529725D02*
X127976190Y-104958297D01*
X127976190Y-104958297D02*
X127880952Y-104767820D01*
X127880952Y-104767820D02*
X127785714Y-104672582D01*
X127785714Y-104672582D02*
X127595238Y-104577344D01*
X127595238Y-104577344D02*
X127214285Y-104577344D01*
X127214285Y-104577344D02*
X127023809Y-104672582D01*
X126071428Y-103910678D02*
X126071428Y-105529725D01*
X126071428Y-105529725D02*
X125976190Y-105720201D01*
X125976190Y-105720201D02*
X125880952Y-105815440D01*
X125880952Y-105815440D02*
X125690476Y-105910678D01*
X125690476Y-105910678D02*
X125309523Y-105910678D01*
X125309523Y-105910678D02*
X125119047Y-105815440D01*
X125119047Y-105815440D02*
X125023809Y-105720201D01*
X125023809Y-105720201D02*
X124928571Y-105529725D01*
X124928571Y-105529725D02*
X124928571Y-103910678D01*
X124071428Y-105815440D02*
X123880952Y-105910678D01*
X123880952Y-105910678D02*
X123500000Y-105910678D01*
X123500000Y-105910678D02*
X123309523Y-105815440D01*
X123309523Y-105815440D02*
X123214285Y-105624963D01*
X123214285Y-105624963D02*
X123214285Y-105529725D01*
X123214285Y-105529725D02*
X123309523Y-105339249D01*
X123309523Y-105339249D02*
X123500000Y-105244011D01*
X123500000Y-105244011D02*
X123785714Y-105244011D01*
X123785714Y-105244011D02*
X123976190Y-105148773D01*
X123976190Y-105148773D02*
X124071428Y-104958297D01*
X124071428Y-104958297D02*
X124071428Y-104863059D01*
X124071428Y-104863059D02*
X123976190Y-104672582D01*
X123976190Y-104672582D02*
X123785714Y-104577344D01*
X123785714Y-104577344D02*
X123500000Y-104577344D01*
X123500000Y-104577344D02*
X123309523Y-104672582D01*
X122357142Y-105910678D02*
X122357142Y-103910678D01*
X122357142Y-104672582D02*
X122166666Y-104577344D01*
X122166666Y-104577344D02*
X121785713Y-104577344D01*
X121785713Y-104577344D02*
X121595237Y-104672582D01*
X121595237Y-104672582D02*
X121499999Y-104767820D01*
X121499999Y-104767820D02*
X121404761Y-104958297D01*
X121404761Y-104958297D02*
X121404761Y-105529725D01*
X121404761Y-105529725D02*
X121499999Y-105720201D01*
X121499999Y-105720201D02*
X121595237Y-105815440D01*
X121595237Y-105815440D02*
X121785713Y-105910678D01*
X121785713Y-105910678D02*
X122166666Y-105910678D01*
X122166666Y-105910678D02*
X122357142Y-105815440D01*
%LPC*%
D15*
%TO.C,J2*%
X150000000Y-113500000D03*
D16*
X150000000Y-111000000D03*
X150000000Y-109000000D03*
X150000000Y-106500000D03*
D17*
X152710000Y-116570000D03*
X152710000Y-103430000D03*
%TD*%
D18*
%TO.C,J1*%
X106900000Y-112300000D03*
X106900000Y-107700000D03*
D19*
X106900000Y-115700000D03*
X106900000Y-104300000D03*
%TD*%
%LPD*%
M02*
