M48
; DRILL file KiCad 10.0.6 date 2026-10-07T11:13:57
; FORMAT={-:-/ absolute / metric / decimal}
; #@! TF.CreationDate,2026-10-07T11:13:57+03:00
; #@! TF.GenerationSoftware,Kicad,Pcbnew,10.0.6
; #@! TF.FileFunction,MixedPlating,1,4
FMAT,2
METRIC
; #@! TA.AperFunction,Plated,PTH,ViaDrill
T1C0.250
; #@! TA.AperFunction,Plated,PTH,ComponentDrill
T2C0.900
; #@! TA.AperFunction,Plated,PTH,ComponentDrill
T3C0.950
; #@! TA.AperFunction,Plated,PTH,ComponentDrill
T4C2.300
; #@! TA.AperFunction,NonPlated,NPTH,ComponentDrill
T5C1.100
%
G90
G05
T1
X116.0Y-108.55
X116.0Y-110.45
X118.438Y-117.275
X119.225Y-104.337
X121.317Y-107.276
X123.387Y-103.269
X123.6Y-110.25
X123.674Y-115.099
X124.4Y-110.75
X126.759Y-107.98
X128.39Y-111.026
X128.819Y-108.088
X129.537Y-107.359
X129.6Y-105.771
X130.418Y-107.354
X130.497Y-105.677
X130.863Y-111.979
X130.997Y-107.363
X132.585Y-114.23
X132.832Y-112.636
X132.861Y-104.119
X133.25Y-115.465
X134.056Y-106.39
X134.409Y-104.676
X134.807Y-106.932
X135.31Y-103.778
X136.526Y-104.247
X139.105Y-108.648
X139.356Y-116.055
X140.912Y-107.755
X141.615Y-114.422
X143.382Y-110.225
T3
X150.0Y-106.5
X150.0Y-109.0
X150.0Y-111.0
X150.0Y-113.5
T4
X152.71Y-103.43
X152.71Y-116.57
T5
X106.9Y-107.7
X106.9Y-112.3
T2
G00X107.7Y-104.3
M15
G01X106.1Y-104.3
M16
G05
G00X107.7Y-115.7
M15
G01X106.1Y-115.7
M16
G05
M30
