%TF.GenerationSoftware,KiCad,Pcbnew,10.0.6*%
%TF.CreationDate,2026-10-07T11:13:57+03:00*%
%TF.ProjectId,ControlledUsb,436f6e74-726f-46c6-9c65-645573622e6b,v2.1-Dense*%
%TF.SameCoordinates,Original*%
%TF.FileFunction,Copper,L2,Inr*%
%TF.FilePolarity,Positive*%
%FSLAX46Y46*%
G04 Gerber Fmt 4.6, Leading zero omitted, Abs format (unit mm)*
G04 Created by KiCad (PCBNEW 10.0.6) date 2026-10-07 11:13:57*
%MOMM*%
%LPD*%
G01*
G04 APERTURE LIST*
G04 Aperture macros list*
%AMRoundRect*
0 Rectangle with rounded corners*
0 $1 Rounding radius*
0 $2 $3 $4 $5 $6 $7 $8 $9 X,Y pos of 4 corners*
0 Add a 4 corners polygon primitive as box body*
4,1,4,$2,$3,$4,$5,$6,$7,$8,$9,$2,$3,0*
0 Add four circle primitives for the rounded corners*
1,1,$1+$1,$2,$3*
1,1,$1+$1,$4,$5*
1,1,$1+$1,$6,$7*
1,1,$1+$1,$8,$9*
0 Add four rect primitives between the rounded corners*
20,1,$1+$1,$2,$3,$4,$5,0*
20,1,$1+$1,$4,$5,$6,$7,0*
20,1,$1+$1,$6,$7,$8,$9,0*
20,1,$1+$1,$8,$9,$2,$3,0*%
G04 Aperture macros list end*
%TA.AperFunction,ComponentPad*%
%ADD10RoundRect,0.250000X0.500000X-0.550000X0.500000X0.550000X-0.500000X0.550000X-0.500000X-0.550000X0*%
%TD*%
%TA.AperFunction,ComponentPad*%
%ADD11C,1.600000*%
%TD*%
%TA.AperFunction,ComponentPad*%
%ADD12C,3.000000*%
%TD*%
%TA.AperFunction,ComponentPad*%
%ADD13O,3.500000X1.900000*%
%TD*%
%TA.AperFunction,ViaPad*%
%ADD14C,0.450000*%
%TD*%
G04 APERTURE END LIST*
D10*
%TO.N,VBUS_SW*%
%TO.C,J2*%
X150000000Y-113500000D03*
D11*
%TO.N,SW_DM*%
X150000000Y-111000000D03*
%TO.N,SW_DP*%
X150000000Y-109000000D03*
%TO.N,GND*%
X150000000Y-106500000D03*
D12*
X152710000Y-116570000D03*
X152710000Y-103430000D03*
%TD*%
D13*
%TO.N,GND*%
%TO.C,J1*%
X106900000Y-115700000D03*
X106900000Y-104300000D03*
%TD*%
D14*
%TO.N,+5V_FUSED*%
X123387100Y-103269400D03*
X143382300Y-110225000D03*
X140912500Y-107755200D03*
%TO.N,PWR_EN*%
X139104700Y-108648200D03*
X132831500Y-112636100D03*
%TO.N,+3V3*%
X134055700Y-106390300D03*
X130996800Y-107363200D03*
X135309700Y-103778000D03*
X128389900Y-111025600D03*
X118437900Y-117275000D03*
%TO.N,GND*%
X130863000Y-111978900D03*
X139356000Y-116055500D03*
%TO.N,DATA_OE_N*%
X132585200Y-114230200D03*
X141614900Y-114421700D03*
%TO.N,HUB_V33*%
X119225000Y-104336700D03*
X123674400Y-115098600D03*
X121317200Y-107276400D03*
%TO.N,MCU_USB_DM*%
X128818700Y-108087900D03*
X126758800Y-107980300D03*
%TO.N,QSPI_SS*%
X130418100Y-107354000D03*
X134806900Y-106932000D03*
X133250200Y-115465000D03*
%TO.N,QSPI_SD3*%
X130496900Y-105677100D03*
X132861300Y-104118700D03*
%TO.N,QSPI_SD0*%
X129600000Y-105770800D03*
X136526200Y-104247000D03*
%TO.N,QSPI_SD2*%
X134408600Y-104675700D03*
X129537000Y-107359300D03*
%TO.N,USB_HOST_DM*%
X124400000Y-110750000D03*
X116000000Y-110450000D03*
%TO.N,USB_HOST_DP*%
X116000000Y-108550000D03*
X123600000Y-110250000D03*
%TD*%
%TA.AperFunction,Conductor*%
%TO.N,GND*%
G36*
X160002634Y-100300688D02*
G01*
X160236585Y-100317426D01*
X160247010Y-100318925D01*
X160473632Y-100368227D01*
X160483750Y-100371199D01*
X160680015Y-100444404D01*
X160701027Y-100452242D01*
X160710631Y-100456628D01*
X160914160Y-100567766D01*
X160923041Y-100573474D01*
X161108685Y-100712445D01*
X161116665Y-100719359D01*
X161280640Y-100883334D01*
X161287554Y-100891314D01*
X161426525Y-101076958D01*
X161432233Y-101085839D01*
X161543371Y-101289368D01*
X161547757Y-101298972D01*
X161628798Y-101516243D01*
X161631773Y-101526373D01*
X161681072Y-101752977D01*
X161682574Y-101763427D01*
X161699311Y-101997365D01*
X161699500Y-102002646D01*
X161699500Y-117997353D01*
X161699311Y-118002634D01*
X161682574Y-118236572D01*
X161681072Y-118247022D01*
X161631773Y-118473626D01*
X161628798Y-118483756D01*
X161547757Y-118701027D01*
X161543371Y-118710631D01*
X161432233Y-118914160D01*
X161426525Y-118923041D01*
X161287554Y-119108685D01*
X161280640Y-119116665D01*
X161116665Y-119280640D01*
X161108685Y-119287554D01*
X160923041Y-119426525D01*
X160914160Y-119432233D01*
X160710631Y-119543371D01*
X160701027Y-119547757D01*
X160483756Y-119628798D01*
X160473626Y-119631773D01*
X160247022Y-119681072D01*
X160236572Y-119682574D01*
X160002635Y-119699311D01*
X159997354Y-119699500D01*
X102002646Y-119699500D01*
X101997365Y-119699311D01*
X101763427Y-119682574D01*
X101752977Y-119681072D01*
X101526373Y-119631773D01*
X101516243Y-119628798D01*
X101298972Y-119547757D01*
X101289368Y-119543371D01*
X101085839Y-119432233D01*
X101076958Y-119426525D01*
X100891314Y-119287554D01*
X100883334Y-119280640D01*
X100719359Y-119116665D01*
X100712445Y-119108685D01*
X100573474Y-118923041D01*
X100567766Y-118914160D01*
X100456628Y-118710631D01*
X100452242Y-118701027D01*
X100371201Y-118483756D01*
X100368226Y-118473626D01*
X100355567Y-118415437D01*
X100318925Y-118247010D01*
X100317426Y-118236583D01*
X100300689Y-118002633D01*
X100300500Y-117997353D01*
X100300500Y-117203546D01*
X117712400Y-117203546D01*
X117712400Y-117346453D01*
X117740279Y-117486614D01*
X117740281Y-117486620D01*
X117794971Y-117618653D01*
X117874368Y-117737479D01*
X117975421Y-117838532D01*
X118094247Y-117917929D01*
X118226280Y-117972619D01*
X118366445Y-118000500D01*
X118366447Y-118000500D01*
X118509353Y-118000500D01*
X118509355Y-118000500D01*
X118649520Y-117972619D01*
X118781553Y-117917929D01*
X118900379Y-117838532D01*
X119001432Y-117737479D01*
X119080829Y-117618653D01*
X119135519Y-117486620D01*
X119163400Y-117346455D01*
X119163400Y-117203545D01*
X119135519Y-117063380D01*
X119080829Y-116931347D01*
X119001432Y-116812521D01*
X118900379Y-116711468D01*
X118781553Y-116632071D01*
X118781550Y-116632069D01*
X118781549Y-116632069D01*
X118649520Y-116577381D01*
X118649514Y-116577379D01*
X118555652Y-116558709D01*
X118509355Y-116549500D01*
X118366445Y-116549500D01*
X118326710Y-116557403D01*
X118226285Y-116577379D01*
X118226279Y-116577381D01*
X118094250Y-116632069D01*
X117975421Y-116711467D01*
X117975420Y-116711469D01*
X117874369Y-116812520D01*
X117874367Y-116812521D01*
X117794969Y-116931350D01*
X117740281Y-117063379D01*
X117740279Y-117063385D01*
X117712400Y-117203546D01*
X100300500Y-117203546D01*
X100300500Y-115027146D01*
X122948900Y-115027146D01*
X122948900Y-115170053D01*
X122976779Y-115310214D01*
X122976781Y-115310220D01*
X123031471Y-115442253D01*
X123110868Y-115561079D01*
X123211921Y-115662132D01*
X123330747Y-115741529D01*
X123462780Y-115796219D01*
X123602945Y-115824100D01*
X123602947Y-115824100D01*
X123745853Y-115824100D01*
X123745855Y-115824100D01*
X123886020Y-115796219D01*
X124018053Y-115741529D01*
X124136879Y-115662132D01*
X124237932Y-115561079D01*
X124317329Y-115442253D01*
X124372019Y-115310220D01*
X124399900Y-115170055D01*
X124399900Y-115027145D01*
X124372019Y-114886980D01*
X124317329Y-114754947D01*
X124237932Y-114636121D01*
X124136879Y-114535068D01*
X124018053Y-114455671D01*
X124018050Y-114455669D01*
X124018049Y-114455669D01*
X123886020Y-114400981D01*
X123886014Y-114400979D01*
X123792152Y-114382309D01*
X123745855Y-114373100D01*
X123602945Y-114373100D01*
X123563210Y-114381003D01*
X123462785Y-114400979D01*
X123462779Y-114400981D01*
X123330750Y-114455669D01*
X123211921Y-114535067D01*
X123211920Y-114535069D01*
X123110869Y-114636120D01*
X123110867Y-114636121D01*
X123031469Y-114754950D01*
X122976781Y-114886979D01*
X122976779Y-114886985D01*
X122948900Y-115027146D01*
X100300500Y-115027146D01*
X100300500Y-114158746D01*
X131859700Y-114158746D01*
X131859700Y-114301653D01*
X131887579Y-114441814D01*
X131887581Y-114441820D01*
X131926205Y-114535068D01*
X131942271Y-114573853D01*
X131988281Y-114642712D01*
X132003507Y-114665500D01*
X132021668Y-114692679D01*
X132122721Y-114793732D01*
X132241547Y-114873129D01*
X132373580Y-114927819D01*
X132513745Y-114955700D01*
X132513747Y-114955700D01*
X132579509Y-114955700D01*
X132631835Y-114977374D01*
X132653509Y-115029700D01*
X132641038Y-115070810D01*
X132608627Y-115119318D01*
X132607269Y-115121350D01*
X132552581Y-115253379D01*
X132552579Y-115253385D01*
X132524700Y-115393546D01*
X132524700Y-115536453D01*
X132552579Y-115676614D01*
X132552581Y-115676620D01*
X132602120Y-115796219D01*
X132607271Y-115808653D01*
X132686668Y-115927479D01*
X132787721Y-116028532D01*
X132906547Y-116107929D01*
X133038580Y-116162619D01*
X133178745Y-116190500D01*
X133178747Y-116190500D01*
X133321653Y-116190500D01*
X133321655Y-116190500D01*
X133461820Y-116162619D01*
X133593853Y-116107929D01*
X133712679Y-116028532D01*
X133813732Y-115927479D01*
X133893129Y-115808653D01*
X133947819Y-115676620D01*
X133975700Y-115536455D01*
X133975700Y-115393545D01*
X133947819Y-115253380D01*
X133893129Y-115121347D01*
X133813732Y-115002521D01*
X133712679Y-114901468D01*
X133593853Y-114822071D01*
X133593850Y-114822069D01*
X133593849Y-114822069D01*
X133461820Y-114767381D01*
X133461814Y-114767379D01*
X133367952Y-114748709D01*
X133321655Y-114739500D01*
X133255891Y-114739500D01*
X133203565Y-114717826D01*
X133181891Y-114665500D01*
X133194361Y-114624389D01*
X133228129Y-114573853D01*
X133282819Y-114441820D01*
X133301035Y-114350245D01*
X140889400Y-114350245D01*
X140889400Y-114493155D01*
X140894473Y-114518656D01*
X140917279Y-114633314D01*
X140917281Y-114633320D01*
X140969164Y-114758578D01*
X140971971Y-114765353D01*
X141009869Y-114822071D01*
X141043984Y-114873129D01*
X141051368Y-114884179D01*
X141152421Y-114985232D01*
X141271247Y-115064629D01*
X141403280Y-115119319D01*
X141543445Y-115147200D01*
X141543447Y-115147200D01*
X141686353Y-115147200D01*
X141686355Y-115147200D01*
X141826520Y-115119319D01*
X141958553Y-115064629D01*
X142077379Y-114985232D01*
X142178432Y-114884179D01*
X142257829Y-114765353D01*
X142312519Y-114633320D01*
X142340400Y-114493155D01*
X142340400Y-114350245D01*
X142312519Y-114210080D01*
X142257829Y-114078047D01*
X142178432Y-113959221D01*
X142077379Y-113858168D01*
X141958553Y-113778771D01*
X141958550Y-113778769D01*
X141958549Y-113778769D01*
X141826520Y-113724081D01*
X141826514Y-113724079D01*
X141732652Y-113705409D01*
X141686355Y-113696200D01*
X141543445Y-113696200D01*
X141503710Y-113704103D01*
X141403285Y-113724079D01*
X141403279Y-113724081D01*
X141271250Y-113778769D01*
X141152421Y-113858167D01*
X141152420Y-113858169D01*
X141051369Y-113959220D01*
X141051367Y-113959221D01*
X140971969Y-114078050D01*
X140917281Y-114210079D01*
X140917279Y-114210085D01*
X140899065Y-114301655D01*
X140889400Y-114350245D01*
X133301035Y-114350245D01*
X133310700Y-114301655D01*
X133310700Y-114158745D01*
X133282819Y-114018580D01*
X133228129Y-113886547D01*
X133148732Y-113767721D01*
X133047679Y-113666668D01*
X132928853Y-113587271D01*
X132928850Y-113587269D01*
X132928849Y-113587269D01*
X132796820Y-113532581D01*
X132796814Y-113532579D01*
X132702952Y-113513909D01*
X132656655Y-113504700D01*
X132513745Y-113504700D01*
X132474010Y-113512603D01*
X132373585Y-113532579D01*
X132373579Y-113532581D01*
X132241550Y-113587269D01*
X132122721Y-113666667D01*
X132122720Y-113666669D01*
X132021669Y-113767720D01*
X132021667Y-113767721D01*
X131942269Y-113886550D01*
X131887581Y-114018579D01*
X131887579Y-114018585D01*
X131859700Y-114158746D01*
X100300500Y-114158746D01*
X100300500Y-112564646D01*
X132106000Y-112564646D01*
X132106000Y-112707553D01*
X132133879Y-112847714D01*
X132133881Y-112847720D01*
X132188571Y-112979753D01*
X132267968Y-113098579D01*
X132369021Y-113199632D01*
X132487847Y-113279029D01*
X132619880Y-113333719D01*
X132760045Y-113361600D01*
X132760047Y-113361600D01*
X132902953Y-113361600D01*
X132902955Y-113361600D01*
X133043120Y-113333719D01*
X133175153Y-113279029D01*
X133293979Y-113199632D01*
X133395032Y-113098579D01*
X133474429Y-112979753D01*
X133529119Y-112847720D01*
X133557000Y-112707555D01*
X133557000Y-112564645D01*
X133529119Y-112424480D01*
X133474429Y-112292447D01*
X133395032Y-112173621D01*
X133293979Y-112072568D01*
X133175153Y-111993171D01*
X133175150Y-111993169D01*
X133175149Y-111993169D01*
X133043120Y-111938481D01*
X133043114Y-111938479D01*
X132949252Y-111919809D01*
X132902955Y-111910600D01*
X132760045Y-111910600D01*
X132720310Y-111918503D01*
X132619885Y-111938479D01*
X132619879Y-111938481D01*
X132487850Y-111993169D01*
X132369021Y-112072567D01*
X132369020Y-112072569D01*
X132267969Y-112173620D01*
X132267967Y-112173621D01*
X132188569Y-112292450D01*
X132133881Y-112424479D01*
X132133879Y-112424485D01*
X132106000Y-112564646D01*
X100300500Y-112564646D01*
X100300500Y-110378545D01*
X115274500Y-110378545D01*
X115274500Y-110521455D01*
X115277867Y-110538380D01*
X115302379Y-110661614D01*
X115302381Y-110661620D01*
X115354949Y-110788532D01*
X115357071Y-110793653D01*
X115436468Y-110912479D01*
X115537521Y-111013532D01*
X115656347Y-111092929D01*
X115788380Y-111147619D01*
X115928545Y-111175500D01*
X115928547Y-111175500D01*
X116071453Y-111175500D01*
X116071455Y-111175500D01*
X116211620Y-111147619D01*
X116343653Y-111092929D01*
X116462479Y-111013532D01*
X116563532Y-110912479D01*
X116642929Y-110793653D01*
X116697619Y-110661620D01*
X116725500Y-110521455D01*
X116725500Y-110378545D01*
X116697619Y-110238380D01*
X116676116Y-110186468D01*
X116672835Y-110178546D01*
X122874500Y-110178546D01*
X122874500Y-110321453D01*
X122902379Y-110461614D01*
X122902381Y-110461620D01*
X122946715Y-110568653D01*
X122957071Y-110593653D01*
X123002481Y-110661614D01*
X123025101Y-110695468D01*
X123036468Y-110712479D01*
X123137521Y-110813532D01*
X123256347Y-110892929D01*
X123388380Y-110947619D01*
X123528545Y-110975500D01*
X123528547Y-110975500D01*
X123658685Y-110975500D01*
X123711011Y-110997174D01*
X123727052Y-111021181D01*
X123757070Y-111093652D01*
X123793131Y-111147620D01*
X123836468Y-111212479D01*
X123937521Y-111313532D01*
X124056347Y-111392929D01*
X124188380Y-111447619D01*
X124328545Y-111475500D01*
X124328547Y-111475500D01*
X124471453Y-111475500D01*
X124471455Y-111475500D01*
X124611620Y-111447619D01*
X124743653Y-111392929D01*
X124862479Y-111313532D01*
X124963532Y-111212479D01*
X125042929Y-111093653D01*
X125097619Y-110961620D01*
X125099106Y-110954146D01*
X127664400Y-110954146D01*
X127664400Y-111097053D01*
X127692279Y-111237214D01*
X127692281Y-111237220D01*
X127723890Y-111313532D01*
X127746971Y-111369253D01*
X127826368Y-111488079D01*
X127927421Y-111589132D01*
X128046247Y-111668529D01*
X128178280Y-111723219D01*
X128318445Y-111751100D01*
X128318447Y-111751100D01*
X128461353Y-111751100D01*
X128461355Y-111751100D01*
X128601520Y-111723219D01*
X128733553Y-111668529D01*
X128852379Y-111589132D01*
X128953432Y-111488079D01*
X129032829Y-111369253D01*
X129087519Y-111237220D01*
X129115400Y-111097055D01*
X129115400Y-110954145D01*
X129087519Y-110813980D01*
X129032829Y-110681947D01*
X128953432Y-110563121D01*
X128852379Y-110462068D01*
X128733553Y-110382671D01*
X128733550Y-110382669D01*
X128733549Y-110382669D01*
X128601520Y-110327981D01*
X128601514Y-110327979D01*
X128507652Y-110309309D01*
X128461355Y-110300100D01*
X128318445Y-110300100D01*
X128278710Y-110308003D01*
X128178285Y-110327979D01*
X128178279Y-110327981D01*
X128046250Y-110382669D01*
X127927421Y-110462067D01*
X127927420Y-110462069D01*
X127826369Y-110563120D01*
X127826367Y-110563121D01*
X127746969Y-110681950D01*
X127692281Y-110813979D01*
X127692279Y-110813985D01*
X127664400Y-110954146D01*
X125099106Y-110954146D01*
X125125500Y-110821455D01*
X125125500Y-110678545D01*
X125097619Y-110538380D01*
X125042929Y-110406347D01*
X124963532Y-110287521D01*
X124862479Y-110186468D01*
X124850621Y-110178545D01*
X124813206Y-110153545D01*
X142656800Y-110153545D01*
X142656800Y-110296455D01*
X142661773Y-110321455D01*
X142684679Y-110436614D01*
X142684681Y-110436620D01*
X142737079Y-110563121D01*
X142739371Y-110568653D01*
X142792540Y-110648226D01*
X142815073Y-110681950D01*
X142818768Y-110687479D01*
X142919821Y-110788532D01*
X143038647Y-110867929D01*
X143170680Y-110922619D01*
X143310845Y-110950500D01*
X143310847Y-110950500D01*
X143453753Y-110950500D01*
X143453755Y-110950500D01*
X143593920Y-110922619D01*
X143725953Y-110867929D01*
X143844779Y-110788532D01*
X143945832Y-110687479D01*
X144025229Y-110568653D01*
X144079919Y-110436620D01*
X144107800Y-110296455D01*
X144107800Y-110153545D01*
X144079919Y-110013380D01*
X144025229Y-109881347D01*
X143945832Y-109762521D01*
X143844779Y-109661468D01*
X143725953Y-109582071D01*
X143725950Y-109582069D01*
X143725949Y-109582069D01*
X143593920Y-109527381D01*
X143593914Y-109527379D01*
X143500052Y-109508709D01*
X143453755Y-109499500D01*
X143310845Y-109499500D01*
X143271110Y-109507403D01*
X143170685Y-109527379D01*
X143170679Y-109527381D01*
X143038650Y-109582069D01*
X142919821Y-109661467D01*
X142919820Y-109661469D01*
X142818769Y-109762520D01*
X142818767Y-109762521D01*
X142739369Y-109881350D01*
X142684681Y-110013379D01*
X142684679Y-110013385D01*
X142666188Y-110106347D01*
X142656800Y-110153545D01*
X124813206Y-110153545D01*
X124812055Y-110152776D01*
X124743653Y-110107071D01*
X124743650Y-110107069D01*
X124743649Y-110107069D01*
X124611620Y-110052381D01*
X124611614Y-110052379D01*
X124517752Y-110033709D01*
X124471455Y-110024500D01*
X124341315Y-110024500D01*
X124288989Y-110002826D01*
X124272948Y-109978819D01*
X124242930Y-109906350D01*
X124242929Y-109906347D01*
X124163532Y-109787521D01*
X124062479Y-109686468D01*
X124055208Y-109681610D01*
X124023226Y-109660240D01*
X123943653Y-109607071D01*
X123943650Y-109607069D01*
X123943649Y-109607069D01*
X123811620Y-109552381D01*
X123811614Y-109552379D01*
X123717752Y-109533709D01*
X123671455Y-109524500D01*
X123528545Y-109524500D01*
X123488810Y-109532403D01*
X123388385Y-109552379D01*
X123388379Y-109552381D01*
X123256350Y-109607069D01*
X123137521Y-109686467D01*
X123137520Y-109686469D01*
X123036469Y-109787520D01*
X123036467Y-109787521D01*
X122957069Y-109906350D01*
X122902381Y-110038379D01*
X122902379Y-110038385D01*
X122874500Y-110178546D01*
X116672835Y-110178546D01*
X116642930Y-110106350D01*
X116642929Y-110106347D01*
X116563532Y-109987521D01*
X116462479Y-109886468D01*
X116454819Y-109881350D01*
X116403746Y-109847224D01*
X116343653Y-109807071D01*
X116343650Y-109807069D01*
X116343649Y-109807069D01*
X116211620Y-109752381D01*
X116211614Y-109752379D01*
X116117752Y-109733709D01*
X116071455Y-109724500D01*
X115928545Y-109724500D01*
X115888810Y-109732403D01*
X115788385Y-109752379D01*
X115788379Y-109752381D01*
X115656350Y-109807069D01*
X115537521Y-109886467D01*
X115537520Y-109886469D01*
X115436469Y-109987520D01*
X115436467Y-109987521D01*
X115357069Y-110106350D01*
X115302381Y-110238379D01*
X115302379Y-110238385D01*
X115285856Y-110321453D01*
X115274500Y-110378545D01*
X100300500Y-110378545D01*
X100300500Y-108478546D01*
X115274500Y-108478546D01*
X115274500Y-108621453D01*
X115302379Y-108761614D01*
X115302381Y-108761620D01*
X115345791Y-108866422D01*
X115357071Y-108893653D01*
X115436468Y-109012479D01*
X115537521Y-109113532D01*
X115656347Y-109192929D01*
X115788380Y-109247619D01*
X115928545Y-109275500D01*
X115928547Y-109275500D01*
X116071453Y-109275500D01*
X116071455Y-109275500D01*
X116211620Y-109247619D01*
X116343653Y-109192929D01*
X116462479Y-109113532D01*
X116563532Y-109012479D01*
X116642929Y-108893653D01*
X116697619Y-108761620D01*
X116725500Y-108621455D01*
X116725500Y-108478545D01*
X116697619Y-108338380D01*
X116642929Y-108206347D01*
X116563532Y-108087521D01*
X116462479Y-107986468D01*
X116443849Y-107974020D01*
X116385203Y-107934834D01*
X116343653Y-107907071D01*
X116343650Y-107907069D01*
X116343649Y-107907069D01*
X116211620Y-107852381D01*
X116211614Y-107852379D01*
X116117752Y-107833709D01*
X116071455Y-107824500D01*
X115928545Y-107824500D01*
X115888810Y-107832403D01*
X115788385Y-107852379D01*
X115788379Y-107852381D01*
X115656350Y-107907069D01*
X115537521Y-107986467D01*
X115537520Y-107986469D01*
X115436469Y-108087520D01*
X115436467Y-108087521D01*
X115357069Y-108206350D01*
X115302381Y-108338379D01*
X115302379Y-108338385D01*
X115274500Y-108478546D01*
X100300500Y-108478546D01*
X100300500Y-107204946D01*
X120591700Y-107204946D01*
X120591700Y-107347853D01*
X120619579Y-107488014D01*
X120619581Y-107488020D01*
X120674271Y-107620053D01*
X120753668Y-107738879D01*
X120854721Y-107839932D01*
X120973547Y-107919329D01*
X121105580Y-107974019D01*
X121245745Y-108001900D01*
X121245747Y-108001900D01*
X121388653Y-108001900D01*
X121388655Y-108001900D01*
X121528820Y-107974019D01*
X121660853Y-107919329D01*
X121676543Y-107908845D01*
X126033300Y-107908845D01*
X126033300Y-108051755D01*
X126040649Y-108088700D01*
X126061179Y-108191914D01*
X126061181Y-108191920D01*
X126113566Y-108318390D01*
X126115871Y-108323953D01*
X126195268Y-108442779D01*
X126296321Y-108543832D01*
X126415147Y-108623229D01*
X126547180Y-108677919D01*
X126687345Y-108705800D01*
X126687347Y-108705800D01*
X126830253Y-108705800D01*
X126830255Y-108705800D01*
X126970420Y-108677919D01*
X127102453Y-108623229D01*
X127221279Y-108543832D01*
X127322332Y-108442779D01*
X127401729Y-108323953D01*
X127456419Y-108191920D01*
X127484300Y-108051755D01*
X127484300Y-108016445D01*
X128093200Y-108016445D01*
X128093200Y-108159355D01*
X128099678Y-108191920D01*
X128121079Y-108299514D01*
X128121081Y-108299520D01*
X128161926Y-108398130D01*
X128175771Y-108431553D01*
X128207170Y-108478545D01*
X128250792Y-108543831D01*
X128255168Y-108550379D01*
X128356221Y-108651432D01*
X128475047Y-108730829D01*
X128607080Y-108785519D01*
X128747245Y-108813400D01*
X128747247Y-108813400D01*
X128890153Y-108813400D01*
X128890155Y-108813400D01*
X129030320Y-108785519D01*
X129162353Y-108730829D01*
X129281179Y-108651432D01*
X129355866Y-108576745D01*
X138379200Y-108576745D01*
X138379200Y-108719655D01*
X138388409Y-108765952D01*
X138407079Y-108859814D01*
X138407081Y-108859820D01*
X138461771Y-108991853D01*
X138475553Y-109012479D01*
X138535604Y-109102353D01*
X138541168Y-109110679D01*
X138642221Y-109211732D01*
X138761047Y-109291129D01*
X138893080Y-109345819D01*
X139033245Y-109373700D01*
X139033247Y-109373700D01*
X139176153Y-109373700D01*
X139176155Y-109373700D01*
X139316320Y-109345819D01*
X139448353Y-109291129D01*
X139567179Y-109211732D01*
X139668232Y-109110679D01*
X139747629Y-108991853D01*
X139786651Y-108897646D01*
X148699500Y-108897646D01*
X148699500Y-109102353D01*
X148731522Y-109304531D01*
X148731525Y-109304544D01*
X148794777Y-109499213D01*
X148887712Y-109681610D01*
X148946497Y-109762520D01*
X149008034Y-109847219D01*
X149008039Y-109847224D01*
X149108489Y-109947674D01*
X149130163Y-110000000D01*
X149108489Y-110052326D01*
X149008034Y-110152781D01*
X149008031Y-110152784D01*
X149008031Y-110152785D01*
X148887712Y-110318389D01*
X148794777Y-110500786D01*
X148731525Y-110695455D01*
X148731522Y-110695468D01*
X148699500Y-110897646D01*
X148699500Y-111102353D01*
X148731522Y-111304531D01*
X148731525Y-111304544D01*
X148794777Y-111499213D01*
X148887712Y-111681610D01*
X148917943Y-111723219D01*
X149008034Y-111847219D01*
X149152781Y-111991966D01*
X149263720Y-112072567D01*
X149303124Y-112101196D01*
X149332717Y-112149487D01*
X149319495Y-112204559D01*
X149282905Y-112231307D01*
X149180666Y-112265186D01*
X149031344Y-112357288D01*
X148907288Y-112481344D01*
X148815186Y-112630666D01*
X148760001Y-112797201D01*
X148749500Y-112899994D01*
X148749500Y-114100000D01*
X148749500Y-114100005D01*
X148749501Y-114100008D01*
X148760001Y-114202797D01*
X148815186Y-114369334D01*
X148907288Y-114518656D01*
X149031344Y-114642712D01*
X149180666Y-114734814D01*
X149347203Y-114789999D01*
X149449991Y-114800500D01*
X150550008Y-114800499D01*
X150652797Y-114789999D01*
X150819334Y-114734814D01*
X150968656Y-114642712D01*
X151092712Y-114518656D01*
X151184814Y-114369334D01*
X151239999Y-114202797D01*
X151250500Y-114100009D01*
X151250499Y-112899992D01*
X151239999Y-112797203D01*
X151184814Y-112630666D01*
X151092712Y-112481344D01*
X150968656Y-112357288D01*
X150819334Y-112265186D01*
X150717093Y-112231306D01*
X150674242Y-112194274D01*
X150670127Y-112137786D01*
X150696874Y-112101196D01*
X150847219Y-111991966D01*
X150991966Y-111847219D01*
X151112287Y-111681610D01*
X151205220Y-111499219D01*
X151221986Y-111447618D01*
X151268474Y-111304544D01*
X151268474Y-111304541D01*
X151268477Y-111304534D01*
X151300500Y-111102352D01*
X151300500Y-110897648D01*
X151268477Y-110695466D01*
X151268475Y-110695461D01*
X151268474Y-110695455D01*
X151205222Y-110500786D01*
X151205220Y-110500783D01*
X151205220Y-110500781D01*
X151113848Y-110321453D01*
X151112287Y-110318389D01*
X151054153Y-110238375D01*
X150991966Y-110152781D01*
X150891511Y-110052326D01*
X150869837Y-110000000D01*
X150891511Y-109947674D01*
X150991961Y-109847224D01*
X150991966Y-109847219D01*
X151112287Y-109681610D01*
X151205220Y-109499219D01*
X151246004Y-109373700D01*
X151268474Y-109304544D01*
X151268474Y-109304541D01*
X151268477Y-109304534D01*
X151298729Y-109113532D01*
X151300500Y-109102353D01*
X151300500Y-108897646D01*
X151272308Y-108719653D01*
X151268477Y-108695466D01*
X151268475Y-108695461D01*
X151268474Y-108695455D01*
X151205222Y-108500786D01*
X151205220Y-108500783D01*
X151205220Y-108500781D01*
X151122475Y-108338385D01*
X151112287Y-108318389D01*
X151039116Y-108217678D01*
X150991966Y-108152781D01*
X150847219Y-108008034D01*
X150768141Y-107950581D01*
X150681610Y-107887712D01*
X150499213Y-107794777D01*
X150304544Y-107731525D01*
X150304531Y-107731522D01*
X150102354Y-107699500D01*
X150102352Y-107699500D01*
X149897648Y-107699500D01*
X149897646Y-107699500D01*
X149695468Y-107731522D01*
X149695455Y-107731525D01*
X149500786Y-107794777D01*
X149318389Y-107887712D01*
X149152785Y-108008031D01*
X149152781Y-108008034D01*
X149008034Y-108152781D01*
X149008031Y-108152784D01*
X149008031Y-108152785D01*
X148887712Y-108318389D01*
X148794777Y-108500786D01*
X148731525Y-108695455D01*
X148731522Y-108695468D01*
X148699500Y-108897646D01*
X139786651Y-108897646D01*
X139802319Y-108859820D01*
X139830200Y-108719655D01*
X139830200Y-108576745D01*
X139802319Y-108436580D01*
X139747629Y-108304547D01*
X139668232Y-108185721D01*
X139567179Y-108084668D01*
X139531483Y-108060817D01*
X139493971Y-108035752D01*
X139448353Y-108005271D01*
X139448350Y-108005269D01*
X139448349Y-108005269D01*
X139316320Y-107950581D01*
X139316314Y-107950579D01*
X139222452Y-107931909D01*
X139176155Y-107922700D01*
X139033245Y-107922700D01*
X138993510Y-107930603D01*
X138893085Y-107950579D01*
X138893079Y-107950581D01*
X138761050Y-108005269D01*
X138642221Y-108084667D01*
X138642220Y-108084669D01*
X138541169Y-108185720D01*
X138541167Y-108185721D01*
X138461769Y-108304550D01*
X138407081Y-108436579D01*
X138407079Y-108436585D01*
X138394310Y-108500781D01*
X138379200Y-108576745D01*
X129355866Y-108576745D01*
X129382232Y-108550379D01*
X129389049Y-108540176D01*
X129394515Y-108531997D01*
X129415372Y-108500781D01*
X129461629Y-108431553D01*
X129516319Y-108299520D01*
X129544200Y-108159355D01*
X129544200Y-108158197D01*
X129544349Y-108157834D01*
X129544557Y-108155734D01*
X129545194Y-108155796D01*
X129565874Y-108105871D01*
X129605239Y-108087271D01*
X129604889Y-108085509D01*
X129608453Y-108084800D01*
X129608455Y-108084800D01*
X129748620Y-108056919D01*
X129880653Y-108002229D01*
X129940403Y-107962304D01*
X129995951Y-107951255D01*
X130022627Y-107962304D01*
X130074447Y-107996929D01*
X130206480Y-108051619D01*
X130346645Y-108079500D01*
X130346647Y-108079500D01*
X130489553Y-108079500D01*
X130489555Y-108079500D01*
X130629720Y-108051619D01*
X130668026Y-108035752D01*
X130724662Y-108035752D01*
X130775767Y-108056920D01*
X130785180Y-108060819D01*
X130925345Y-108088700D01*
X130925347Y-108088700D01*
X131068253Y-108088700D01*
X131068255Y-108088700D01*
X131208420Y-108060819D01*
X131340453Y-108006129D01*
X131459279Y-107926732D01*
X131560332Y-107825679D01*
X131639729Y-107706853D01*
X131649300Y-107683746D01*
X140187000Y-107683746D01*
X140187000Y-107826653D01*
X140214879Y-107966814D01*
X140214881Y-107966820D01*
X140264876Y-108087520D01*
X140269571Y-108098853D01*
X140348968Y-108217679D01*
X140450021Y-108318732D01*
X140568847Y-108398129D01*
X140700880Y-108452819D01*
X140841045Y-108480700D01*
X140841047Y-108480700D01*
X140983953Y-108480700D01*
X140983955Y-108480700D01*
X141124120Y-108452819D01*
X141256153Y-108398129D01*
X141374979Y-108318732D01*
X141476032Y-108217679D01*
X141555429Y-108098853D01*
X141610119Y-107966820D01*
X141638000Y-107826655D01*
X141638000Y-107683745D01*
X141610119Y-107543580D01*
X141555429Y-107411547D01*
X141476032Y-107292721D01*
X141374979Y-107191668D01*
X141256153Y-107112271D01*
X141256150Y-107112269D01*
X141256149Y-107112269D01*
X141124120Y-107057581D01*
X141124114Y-107057579D01*
X141030252Y-107038909D01*
X140983955Y-107029700D01*
X140841045Y-107029700D01*
X140801310Y-107037603D01*
X140700885Y-107057579D01*
X140700879Y-107057581D01*
X140568850Y-107112269D01*
X140450021Y-107191667D01*
X140450020Y-107191669D01*
X140348969Y-107292720D01*
X140348967Y-107292721D01*
X140269569Y-107411550D01*
X140214881Y-107543579D01*
X140214879Y-107543585D01*
X140187000Y-107683746D01*
X131649300Y-107683746D01*
X131694419Y-107574820D01*
X131722300Y-107434655D01*
X131722300Y-107291745D01*
X131694419Y-107151580D01*
X131639729Y-107019547D01*
X131560332Y-106900721D01*
X131459279Y-106799668D01*
X131453442Y-106795768D01*
X131420026Y-106773440D01*
X131340453Y-106720271D01*
X131340450Y-106720269D01*
X131340449Y-106720269D01*
X131208420Y-106665581D01*
X131208414Y-106665579D01*
X131114552Y-106646909D01*
X131068255Y-106637700D01*
X130925345Y-106637700D01*
X130885610Y-106645603D01*
X130785185Y-106665579D01*
X130785179Y-106665581D01*
X130746871Y-106681448D01*
X130690237Y-106681447D01*
X130629724Y-106656382D01*
X130629714Y-106656379D01*
X130516199Y-106633800D01*
X130489555Y-106628500D01*
X130346645Y-106628500D01*
X130320001Y-106633800D01*
X130206485Y-106656379D01*
X130206479Y-106656381D01*
X130074446Y-106711071D01*
X130014695Y-106750995D01*
X129959146Y-106762044D01*
X129932471Y-106750995D01*
X129880652Y-106716370D01*
X129748620Y-106661681D01*
X129748614Y-106661679D01*
X129654092Y-106642878D01*
X129607000Y-106611412D01*
X129595951Y-106555863D01*
X129627417Y-106508771D01*
X129668529Y-106496300D01*
X129671453Y-106496300D01*
X129671455Y-106496300D01*
X129811620Y-106468419D01*
X129943653Y-106413729D01*
X130062479Y-106334332D01*
X130064604Y-106332207D01*
X130116927Y-106310527D01*
X130149834Y-106318769D01*
X130149889Y-106318638D01*
X130150776Y-106319005D01*
X130151824Y-106319268D01*
X130153243Y-106320026D01*
X130153247Y-106320029D01*
X130285280Y-106374719D01*
X130425445Y-106402600D01*
X130425447Y-106402600D01*
X130568353Y-106402600D01*
X130568355Y-106402600D01*
X130708520Y-106374719D01*
X130840553Y-106320029D01*
X130842325Y-106318845D01*
X133330200Y-106318845D01*
X133330200Y-106461755D01*
X133331526Y-106468419D01*
X133358079Y-106601914D01*
X133358081Y-106601920D01*
X133407103Y-106720271D01*
X133412771Y-106733953D01*
X133492168Y-106852779D01*
X133593221Y-106953832D01*
X133712047Y-107033229D01*
X133844080Y-107087919D01*
X133984245Y-107115800D01*
X134048313Y-107115800D01*
X134100639Y-107137474D01*
X134116680Y-107161482D01*
X134163968Y-107275648D01*
X134163969Y-107275649D01*
X134163971Y-107275653D01*
X134204202Y-107335864D01*
X134240561Y-107390279D01*
X134243368Y-107394479D01*
X134344421Y-107495532D01*
X134463247Y-107574929D01*
X134595280Y-107629619D01*
X134735445Y-107657500D01*
X134735447Y-107657500D01*
X134878353Y-107657500D01*
X134878355Y-107657500D01*
X135018520Y-107629619D01*
X135150553Y-107574929D01*
X135269379Y-107495532D01*
X135370432Y-107394479D01*
X135449829Y-107275653D01*
X135504519Y-107143620D01*
X135532400Y-107003455D01*
X135532400Y-106860545D01*
X135504519Y-106720380D01*
X135449829Y-106588347D01*
X135370432Y-106469521D01*
X135269379Y-106368468D01*
X135150553Y-106289071D01*
X135150550Y-106289069D01*
X135150549Y-106289069D01*
X135018520Y-106234381D01*
X135018514Y-106234379D01*
X134924652Y-106215709D01*
X134878355Y-106206500D01*
X134878353Y-106206500D01*
X134814287Y-106206500D01*
X134761961Y-106184826D01*
X134745920Y-106160818D01*
X134698631Y-106046651D01*
X134698630Y-106046649D01*
X134698629Y-106046647D01*
X134619232Y-105927821D01*
X134518179Y-105826768D01*
X134399353Y-105747371D01*
X134399350Y-105747369D01*
X134399349Y-105747369D01*
X134267320Y-105692681D01*
X134267314Y-105692679D01*
X134173452Y-105674009D01*
X134127155Y-105664800D01*
X133984245Y-105664800D01*
X133944510Y-105672703D01*
X133844085Y-105692679D01*
X133844079Y-105692681D01*
X133712050Y-105747369D01*
X133593221Y-105826767D01*
X133593220Y-105826769D01*
X133492169Y-105927820D01*
X133492167Y-105927821D01*
X133412769Y-106046650D01*
X133358081Y-106178679D01*
X133358079Y-106178685D01*
X133336057Y-106289401D01*
X133330200Y-106318845D01*
X130842325Y-106318845D01*
X130959379Y-106240632D01*
X131060432Y-106139579D01*
X131139829Y-106020753D01*
X131194519Y-105888720D01*
X131222400Y-105748555D01*
X131222400Y-105605645D01*
X131194519Y-105465480D01*
X131139829Y-105333447D01*
X131060432Y-105214621D01*
X130959379Y-105113568D01*
X130840553Y-105034171D01*
X130840550Y-105034169D01*
X130840549Y-105034169D01*
X130708520Y-104979481D01*
X130708514Y-104979479D01*
X130614652Y-104960809D01*
X130568355Y-104951600D01*
X130425445Y-104951600D01*
X130385710Y-104959503D01*
X130285285Y-104979479D01*
X130285279Y-104979481D01*
X130153250Y-105034169D01*
X130034421Y-105113567D01*
X130034411Y-105113576D01*
X130032284Y-105115703D01*
X129979956Y-105137372D01*
X129947065Y-105129131D01*
X129947011Y-105129262D01*
X129946129Y-105128897D01*
X129945080Y-105128634D01*
X129943651Y-105127870D01*
X129811620Y-105073181D01*
X129811614Y-105073179D01*
X129717752Y-105054509D01*
X129671455Y-105045300D01*
X129528545Y-105045300D01*
X129488810Y-105053203D01*
X129388385Y-105073179D01*
X129388379Y-105073181D01*
X129256350Y-105127869D01*
X129137521Y-105207267D01*
X129137520Y-105207269D01*
X129036469Y-105308320D01*
X129036467Y-105308321D01*
X128957069Y-105427150D01*
X128902381Y-105559179D01*
X128902379Y-105559185D01*
X128874500Y-105699346D01*
X128874500Y-105842253D01*
X128902379Y-105982414D01*
X128902381Y-105982420D01*
X128957071Y-106114453D01*
X129036468Y-106233279D01*
X129137521Y-106334332D01*
X129256347Y-106413729D01*
X129388380Y-106468419D01*
X129388384Y-106468419D01*
X129388385Y-106468420D01*
X129482908Y-106487222D01*
X129530000Y-106518688D01*
X129541049Y-106574237D01*
X129509583Y-106621329D01*
X129468471Y-106633800D01*
X129465545Y-106633800D01*
X129425810Y-106641703D01*
X129325385Y-106661679D01*
X129325379Y-106661681D01*
X129193350Y-106716369D01*
X129074521Y-106795767D01*
X129074520Y-106795769D01*
X128973469Y-106896820D01*
X128973467Y-106896821D01*
X128894069Y-107015650D01*
X128839381Y-107147679D01*
X128839379Y-107147685D01*
X128811500Y-107287846D01*
X128811500Y-107289002D01*
X128811350Y-107289363D01*
X128811143Y-107291466D01*
X128810505Y-107291403D01*
X128789826Y-107341328D01*
X128750464Y-107359946D01*
X128750811Y-107361691D01*
X128747247Y-107362400D01*
X128747245Y-107362400D01*
X128715059Y-107368802D01*
X128607085Y-107390279D01*
X128607079Y-107390281D01*
X128475050Y-107444969D01*
X128356221Y-107524367D01*
X128356220Y-107524369D01*
X128255169Y-107625420D01*
X128255167Y-107625421D01*
X128175769Y-107744250D01*
X128121081Y-107876279D01*
X128121079Y-107876285D01*
X128106301Y-107950581D01*
X128093200Y-108016445D01*
X127484300Y-108016445D01*
X127484300Y-107908845D01*
X127456419Y-107768680D01*
X127401729Y-107636647D01*
X127322332Y-107517821D01*
X127221279Y-107416768D01*
X127213465Y-107411547D01*
X127181635Y-107390279D01*
X127102453Y-107337371D01*
X127102450Y-107337369D01*
X127102449Y-107337369D01*
X126970420Y-107282681D01*
X126970414Y-107282679D01*
X126876552Y-107264009D01*
X126830255Y-107254800D01*
X126687345Y-107254800D01*
X126647610Y-107262703D01*
X126547185Y-107282679D01*
X126547179Y-107282681D01*
X126415150Y-107337369D01*
X126296321Y-107416767D01*
X126296320Y-107416769D01*
X126195269Y-107517820D01*
X126195267Y-107517821D01*
X126115869Y-107636650D01*
X126061181Y-107768679D01*
X126061179Y-107768685D01*
X126039778Y-107876279D01*
X126033300Y-107908845D01*
X121676543Y-107908845D01*
X121779679Y-107839932D01*
X121880732Y-107738879D01*
X121960129Y-107620053D01*
X122014819Y-107488020D01*
X122042700Y-107347855D01*
X122042700Y-107204945D01*
X122014819Y-107064780D01*
X121960129Y-106932747D01*
X121880732Y-106813921D01*
X121779679Y-106712868D01*
X121660853Y-106633471D01*
X121660850Y-106633469D01*
X121660849Y-106633469D01*
X121528820Y-106578781D01*
X121528814Y-106578779D01*
X121434952Y-106560109D01*
X121388655Y-106550900D01*
X121245745Y-106550900D01*
X121220795Y-106555863D01*
X121105585Y-106578779D01*
X121105579Y-106578781D01*
X120973550Y-106633469D01*
X120854721Y-106712867D01*
X120854720Y-106712869D01*
X120753669Y-106813920D01*
X120753667Y-106813921D01*
X120674269Y-106932750D01*
X120619581Y-107064779D01*
X120619579Y-107064785D01*
X120591700Y-107204946D01*
X100300500Y-107204946D01*
X100300500Y-104265245D01*
X118499500Y-104265245D01*
X118499500Y-104408155D01*
X118503969Y-104430621D01*
X118527379Y-104548314D01*
X118527381Y-104548320D01*
X118582071Y-104680353D01*
X118661468Y-104799179D01*
X118762521Y-104900232D01*
X118881347Y-104979629D01*
X119013380Y-105034319D01*
X119153545Y-105062200D01*
X119153547Y-105062200D01*
X119296453Y-105062200D01*
X119296455Y-105062200D01*
X119436620Y-105034319D01*
X119568653Y-104979629D01*
X119687479Y-104900232D01*
X119788532Y-104799179D01*
X119867929Y-104680353D01*
X119922619Y-104548320D01*
X119950500Y-104408155D01*
X119950500Y-104265245D01*
X119922619Y-104125080D01*
X119890379Y-104047246D01*
X132135800Y-104047246D01*
X132135800Y-104190153D01*
X132163679Y-104330314D01*
X132163681Y-104330320D01*
X132216824Y-104458620D01*
X132218371Y-104462353D01*
X132243116Y-104499386D01*
X132283280Y-104559497D01*
X132297768Y-104581179D01*
X132398821Y-104682232D01*
X132517647Y-104761629D01*
X132649680Y-104816319D01*
X132789845Y-104844200D01*
X132789847Y-104844200D01*
X132932753Y-104844200D01*
X132932755Y-104844200D01*
X133072920Y-104816319D01*
X133204953Y-104761629D01*
X133323779Y-104682232D01*
X133401766Y-104604245D01*
X133683100Y-104604245D01*
X133683100Y-104747155D01*
X133692309Y-104793452D01*
X133710979Y-104887314D01*
X133710981Y-104887320D01*
X133749216Y-104979629D01*
X133765671Y-105019353D01*
X133801638Y-105073181D01*
X133844528Y-105137372D01*
X133845068Y-105138179D01*
X133946121Y-105239232D01*
X134064947Y-105318629D01*
X134196980Y-105373319D01*
X134337145Y-105401200D01*
X134337147Y-105401200D01*
X134480053Y-105401200D01*
X134480055Y-105401200D01*
X134620220Y-105373319D01*
X134752253Y-105318629D01*
X134871079Y-105239232D01*
X134972132Y-105138179D01*
X135051529Y-105019353D01*
X135106219Y-104887320D01*
X135134100Y-104747155D01*
X135134100Y-104604245D01*
X135130550Y-104586400D01*
X135141599Y-104530853D01*
X135188690Y-104499386D01*
X135217563Y-104499386D01*
X135238245Y-104503500D01*
X135238247Y-104503500D01*
X135381153Y-104503500D01*
X135381155Y-104503500D01*
X135521320Y-104475619D01*
X135653353Y-104420929D01*
X135709324Y-104383530D01*
X135764869Y-104372482D01*
X135811962Y-104403947D01*
X135823011Y-104430621D01*
X135828580Y-104458617D01*
X135828581Y-104458620D01*
X135879346Y-104581179D01*
X135883271Y-104590653D01*
X135962668Y-104709479D01*
X136063721Y-104810532D01*
X136182547Y-104889929D01*
X136314580Y-104944619D01*
X136454745Y-104972500D01*
X136454747Y-104972500D01*
X136597653Y-104972500D01*
X136597655Y-104972500D01*
X136737820Y-104944619D01*
X136869853Y-104889929D01*
X136988679Y-104810532D01*
X137089732Y-104709479D01*
X137169129Y-104590653D01*
X137223819Y-104458620D01*
X137251700Y-104318455D01*
X137251700Y-104175545D01*
X137223819Y-104035380D01*
X137169129Y-103903347D01*
X137089732Y-103784521D01*
X136988679Y-103683468D01*
X136869853Y-103604071D01*
X136869850Y-103604069D01*
X136869849Y-103604069D01*
X136737820Y-103549381D01*
X136737814Y-103549379D01*
X136643952Y-103530709D01*
X136597655Y-103521500D01*
X136454745Y-103521500D01*
X136415010Y-103529403D01*
X136314585Y-103549379D01*
X136314579Y-103549381D01*
X136182548Y-103604070D01*
X136182546Y-103604071D01*
X136126577Y-103641468D01*
X136071028Y-103652517D01*
X136023937Y-103621050D01*
X136012888Y-103594376D01*
X136007320Y-103566385D01*
X136007319Y-103566384D01*
X136007319Y-103566380D01*
X135952629Y-103434347D01*
X135873232Y-103315521D01*
X135772179Y-103214468D01*
X135653353Y-103135071D01*
X135653350Y-103135069D01*
X135653349Y-103135069D01*
X135521320Y-103080381D01*
X135521314Y-103080379D01*
X135427452Y-103061709D01*
X135381155Y-103052500D01*
X135238245Y-103052500D01*
X135198510Y-103060403D01*
X135098085Y-103080379D01*
X135098079Y-103080381D01*
X134966050Y-103135069D01*
X134847221Y-103214467D01*
X134847220Y-103214469D01*
X134746169Y-103315520D01*
X134746167Y-103315521D01*
X134666769Y-103434350D01*
X134612081Y-103566379D01*
X134612079Y-103566385D01*
X134584200Y-103706546D01*
X134584200Y-103849455D01*
X134587749Y-103867300D01*
X134576699Y-103922849D01*
X134529606Y-103954313D01*
X134500736Y-103954313D01*
X134480056Y-103950200D01*
X134480055Y-103950200D01*
X134337145Y-103950200D01*
X134297410Y-103958103D01*
X134196985Y-103978079D01*
X134196979Y-103978081D01*
X134064950Y-104032769D01*
X133946121Y-104112167D01*
X133946120Y-104112169D01*
X133845069Y-104213220D01*
X133845067Y-104213221D01*
X133765669Y-104332050D01*
X133710981Y-104464079D01*
X133710979Y-104464085D01*
X133694224Y-104548320D01*
X133683100Y-104604245D01*
X133401766Y-104604245D01*
X133424832Y-104581179D01*
X133424952Y-104580998D01*
X133439320Y-104559497D01*
X133479484Y-104499386D01*
X133504229Y-104462353D01*
X133558919Y-104330320D01*
X133586800Y-104190155D01*
X133586800Y-104047245D01*
X133558919Y-103907080D01*
X133504229Y-103775047D01*
X133424832Y-103656221D01*
X133323779Y-103555168D01*
X133315118Y-103549381D01*
X133273391Y-103521500D01*
X133204953Y-103475771D01*
X133204950Y-103475769D01*
X133204949Y-103475769D01*
X133072920Y-103421081D01*
X133072914Y-103421079D01*
X132979052Y-103402409D01*
X132932755Y-103393200D01*
X132789845Y-103393200D01*
X132750110Y-103401103D01*
X132649685Y-103421079D01*
X132649679Y-103421081D01*
X132517650Y-103475769D01*
X132398821Y-103555167D01*
X132398820Y-103555169D01*
X132297769Y-103656220D01*
X132297767Y-103656221D01*
X132218369Y-103775050D01*
X132163681Y-103907079D01*
X132163679Y-103907085D01*
X132135800Y-104047246D01*
X119890379Y-104047246D01*
X119867929Y-103993047D01*
X119788532Y-103874221D01*
X119687479Y-103773168D01*
X119568653Y-103693771D01*
X119568650Y-103693769D01*
X119568649Y-103693769D01*
X119436620Y-103639081D01*
X119436614Y-103639079D01*
X119342752Y-103620409D01*
X119296455Y-103611200D01*
X119153545Y-103611200D01*
X119113810Y-103619103D01*
X119013385Y-103639079D01*
X119013379Y-103639081D01*
X118881350Y-103693769D01*
X118762521Y-103773167D01*
X118762520Y-103773169D01*
X118661469Y-103874220D01*
X118661467Y-103874221D01*
X118582069Y-103993050D01*
X118527381Y-104125079D01*
X118527379Y-104125085D01*
X118509848Y-104213221D01*
X118499500Y-104265245D01*
X100300500Y-104265245D01*
X100300500Y-103197946D01*
X122661600Y-103197946D01*
X122661600Y-103340853D01*
X122689479Y-103481014D01*
X122689481Y-103481020D01*
X122740450Y-103604071D01*
X122744171Y-103613053D01*
X122823568Y-103731879D01*
X122924621Y-103832932D01*
X123043447Y-103912329D01*
X123175480Y-103967019D01*
X123315645Y-103994900D01*
X123315647Y-103994900D01*
X123458553Y-103994900D01*
X123458555Y-103994900D01*
X123598720Y-103967019D01*
X123730753Y-103912329D01*
X123849579Y-103832932D01*
X123950632Y-103731879D01*
X124030029Y-103613053D01*
X124084719Y-103481020D01*
X124112600Y-103340855D01*
X124112600Y-103197945D01*
X124084719Y-103057780D01*
X124030029Y-102925747D01*
X123950632Y-102806921D01*
X123849579Y-102705868D01*
X123730753Y-102626471D01*
X123730750Y-102626469D01*
X123730749Y-102626469D01*
X123598720Y-102571781D01*
X123598714Y-102571779D01*
X123504852Y-102553109D01*
X123458555Y-102543900D01*
X123315645Y-102543900D01*
X123275910Y-102551803D01*
X123175485Y-102571779D01*
X123175479Y-102571781D01*
X123043450Y-102626469D01*
X122924621Y-102705867D01*
X122924620Y-102705869D01*
X122823569Y-102806920D01*
X122823567Y-102806921D01*
X122744169Y-102925750D01*
X122689481Y-103057779D01*
X122689479Y-103057785D01*
X122661600Y-103197946D01*
X100300500Y-103197946D01*
X100300500Y-102002646D01*
X100300689Y-101997366D01*
X100303331Y-101960434D01*
X100317426Y-101763414D01*
X100318924Y-101752991D01*
X100368228Y-101526364D01*
X100371198Y-101516252D01*
X100452243Y-101298968D01*
X100456628Y-101289368D01*
X100567766Y-101085839D01*
X100573474Y-101076958D01*
X100712445Y-100891314D01*
X100719352Y-100883341D01*
X100883341Y-100719352D01*
X100891314Y-100712445D01*
X101076958Y-100573474D01*
X101085839Y-100567766D01*
X101289372Y-100456625D01*
X101298968Y-100452243D01*
X101516252Y-100371198D01*
X101526364Y-100368228D01*
X101752991Y-100318924D01*
X101763414Y-100317426D01*
X101985627Y-100301528D01*
X101997366Y-100300689D01*
X102002646Y-100300500D01*
X159997354Y-100300500D01*
X160002634Y-100300688D01*
G37*
%TD.AperFunction*%
%TD*%
M02*
