%TF.GenerationSoftware,KiCad,Pcbnew,10.0.6*%
%TF.CreationDate,2026-10-04T23:35:59+03:00*%
%TF.ProjectId,ControlledUsb,436f6e74-726f-46c6-9c65-645573622e6b,v2.1-Dense*%
%TF.SameCoordinates,Original*%
%TF.FileFunction,Legend,Top*%
%TF.FilePolarity,Positive*%
%FSLAX46Y46*%
G04 Gerber Fmt 4.6, Leading zero omitted, Abs format (unit mm)*
G04 Created by KiCad (PCBNEW 10.0.6) date 2026-10-04 23:35:59*
%MOMM*%
%LPD*%
G01*
G04 APERTURE LIST*
G04 Aperture macros list*
%AMRoundRect*
0 Rectangle with rounded corners*
0 $1 Rounding radius*
0 $2 $3 $4 $5 $6 $7 $8 $9 X,Y pos of 4 corners*
0 Add a 4 corners polygon primitive as box body*
4,1,4,$2,$3,$4,$5,$6,$7,$8,$9,$2,$3,0*
0 Add four circle primitives for the rounded corners*
1,1,$1+$1,$2,$3*
1,1,$1+$1,$4,$5*
1,1,$1+$1,$6,$7*
1,1,$1+$1,$8,$9*
0 Add four rect primitives between the rounded corners*
20,1,$1+$1,$2,$3,$4,$5,0*
20,1,$1+$1,$4,$5,$6,$7,0*
20,1,$1+$1,$6,$7,$8,$9,0*
20,1,$1+$1,$8,$9,$2,$3,0*%
G04 Aperture macros list end*
%ADD10C,0.120000*%
%ADD11C,0.140000*%
%ADD12C,0.150000*%
%ADD13RoundRect,0.200000X-0.200000X-0.275000X0.200000X-0.275000X0.200000X0.275000X-0.200000X0.275000X0*%
%ADD14RoundRect,0.225000X0.250000X-0.225000X0.250000X0.225000X-0.250000X0.225000X-0.250000X-0.225000X0*%
%ADD15RoundRect,0.200000X0.275000X-0.200000X0.275000X0.200000X-0.275000X0.200000X-0.275000X-0.200000X0*%
%ADD16RoundRect,0.100000X-0.637500X-0.100000X0.637500X-0.100000X0.637500X0.100000X-0.637500X0.100000X0*%
%ADD17RoundRect,0.250000X0.500000X-0.550000X0.500000X0.550000X-0.500000X0.550000X-0.500000X-0.550000X0*%
%ADD18C,1.600000*%
%ADD19C,3.000000*%
%ADD20RoundRect,0.225000X-0.225000X-0.250000X0.225000X-0.250000X0.225000X0.250000X-0.225000X0.250000X0*%
%ADD21RoundRect,0.150000X0.512500X0.150000X-0.512500X0.150000X-0.512500X-0.150000X0.512500X-0.150000X0*%
%ADD22RoundRect,0.250000X-0.450000X-0.350000X0.450000X-0.350000X0.450000X0.350000X-0.450000X0.350000X0*%
%ADD23RoundRect,0.050000X-0.387500X-0.050000X0.387500X-0.050000X0.387500X0.050000X-0.387500X0.050000X0*%
%ADD24RoundRect,0.050000X-0.050000X-0.387500X0.050000X-0.387500X0.050000X0.387500X-0.050000X0.387500X0*%
%ADD25R,3.200000X3.200000*%
%ADD26C,1.000000*%
%ADD27R,0.700000X0.700000*%
%ADD28R,0.900000X1.000000*%
%ADD29RoundRect,0.150000X0.150000X-0.825000X0.150000X0.825000X-0.150000X0.825000X-0.150000X-0.825000X0*%
%ADD30C,1.100000*%
%ADD31RoundRect,0.250000X1.000000X0.300000X-1.000000X0.300000X-1.000000X-0.300000X1.000000X-0.300000X0*%
%ADD32O,3.500000X1.900000*%
%ADD33RoundRect,0.250000X0.625000X-0.375000X0.625000X0.375000X-0.625000X0.375000X-0.625000X-0.375000X0*%
%ADD34RoundRect,0.150000X-0.512500X-0.150000X0.512500X-0.150000X0.512500X0.150000X-0.512500X0.150000X0*%
%ADD35RoundRect,0.062500X-0.350000X-0.062500X0.350000X-0.062500X0.350000X0.062500X-0.350000X0.062500X0*%
%ADD36RoundRect,0.062500X-0.062500X-0.350000X0.062500X-0.350000X0.062500X0.350000X-0.062500X0.350000X0*%
%ADD37R,2.600000X2.600000*%
G04 APERTURE END LIST*
D10*
X111071428Y-104228474D02*
X111100000Y-104199902D01*
X111100000Y-104199902D02*
X111157143Y-104171331D01*
X111157143Y-104171331D02*
X111300000Y-104171331D01*
X111300000Y-104171331D02*
X111357143Y-104199902D01*
X111357143Y-104199902D02*
X111385714Y-104228474D01*
X111385714Y-104228474D02*
X111414285Y-104285617D01*
X111414285Y-104285617D02*
X111414285Y-104342760D01*
X111414285Y-104342760D02*
X111385714Y-104428474D01*
X111385714Y-104428474D02*
X111042857Y-104771331D01*
X111042857Y-104771331D02*
X111414285Y-104771331D01*
X111642857Y-104599902D02*
X111928572Y-104599902D01*
X111585714Y-104771331D02*
X111785714Y-104171331D01*
X111785714Y-104171331D02*
X111985714Y-104771331D01*
X133685715Y-118457045D02*
X133771429Y-118485617D01*
X133771429Y-118485617D02*
X133800000Y-118514188D01*
X133800000Y-118514188D02*
X133828572Y-118571331D01*
X133828572Y-118571331D02*
X133828572Y-118657045D01*
X133828572Y-118657045D02*
X133800000Y-118714188D01*
X133800000Y-118714188D02*
X133771429Y-118742760D01*
X133771429Y-118742760D02*
X133714286Y-118771331D01*
X133714286Y-118771331D02*
X133485715Y-118771331D01*
X133485715Y-118771331D02*
X133485715Y-118171331D01*
X133485715Y-118171331D02*
X133685715Y-118171331D01*
X133685715Y-118171331D02*
X133742858Y-118199902D01*
X133742858Y-118199902D02*
X133771429Y-118228474D01*
X133771429Y-118228474D02*
X133800000Y-118285617D01*
X133800000Y-118285617D02*
X133800000Y-118342760D01*
X133800000Y-118342760D02*
X133771429Y-118399902D01*
X133771429Y-118399902D02*
X133742858Y-118428474D01*
X133742858Y-118428474D02*
X133685715Y-118457045D01*
X133685715Y-118457045D02*
X133485715Y-118457045D01*
X134200000Y-118171331D02*
X134314286Y-118171331D01*
X134314286Y-118171331D02*
X134371429Y-118199902D01*
X134371429Y-118199902D02*
X134428572Y-118257045D01*
X134428572Y-118257045D02*
X134457143Y-118371331D01*
X134457143Y-118371331D02*
X134457143Y-118571331D01*
X134457143Y-118571331D02*
X134428572Y-118685617D01*
X134428572Y-118685617D02*
X134371429Y-118742760D01*
X134371429Y-118742760D02*
X134314286Y-118771331D01*
X134314286Y-118771331D02*
X134200000Y-118771331D01*
X134200000Y-118771331D02*
X134142858Y-118742760D01*
X134142858Y-118742760D02*
X134085715Y-118685617D01*
X134085715Y-118685617D02*
X134057143Y-118571331D01*
X134057143Y-118571331D02*
X134057143Y-118371331D01*
X134057143Y-118371331D02*
X134085715Y-118257045D01*
X134085715Y-118257045D02*
X134142858Y-118199902D01*
X134142858Y-118199902D02*
X134200000Y-118171331D01*
X134828571Y-118171331D02*
X134942857Y-118171331D01*
X134942857Y-118171331D02*
X135000000Y-118199902D01*
X135000000Y-118199902D02*
X135057143Y-118257045D01*
X135057143Y-118257045D02*
X135085714Y-118371331D01*
X135085714Y-118371331D02*
X135085714Y-118571331D01*
X135085714Y-118571331D02*
X135057143Y-118685617D01*
X135057143Y-118685617D02*
X135000000Y-118742760D01*
X135000000Y-118742760D02*
X134942857Y-118771331D01*
X134942857Y-118771331D02*
X134828571Y-118771331D01*
X134828571Y-118771331D02*
X134771429Y-118742760D01*
X134771429Y-118742760D02*
X134714286Y-118685617D01*
X134714286Y-118685617D02*
X134685714Y-118571331D01*
X134685714Y-118571331D02*
X134685714Y-118371331D01*
X134685714Y-118371331D02*
X134714286Y-118257045D01*
X134714286Y-118257045D02*
X134771429Y-118199902D01*
X134771429Y-118199902D02*
X134828571Y-118171331D01*
X135257142Y-118171331D02*
X135600000Y-118171331D01*
X135428571Y-118771331D02*
X135428571Y-118171331D01*
X136128571Y-118771331D02*
X135928571Y-118485617D01*
X135785714Y-118771331D02*
X135785714Y-118171331D01*
X135785714Y-118171331D02*
X136014285Y-118171331D01*
X136014285Y-118171331D02*
X136071428Y-118199902D01*
X136071428Y-118199902D02*
X136099999Y-118228474D01*
X136099999Y-118228474D02*
X136128571Y-118285617D01*
X136128571Y-118285617D02*
X136128571Y-118371331D01*
X136128571Y-118371331D02*
X136099999Y-118428474D01*
X136099999Y-118428474D02*
X136071428Y-118457045D01*
X136071428Y-118457045D02*
X136014285Y-118485617D01*
X136014285Y-118485617D02*
X135785714Y-118485617D01*
X136385714Y-118457045D02*
X136585714Y-118457045D01*
X136671428Y-118771331D02*
X136385714Y-118771331D01*
X136385714Y-118771331D02*
X136385714Y-118171331D01*
X136385714Y-118171331D02*
X136671428Y-118171331D01*
X136899999Y-118742760D02*
X136985714Y-118771331D01*
X136985714Y-118771331D02*
X137128571Y-118771331D01*
X137128571Y-118771331D02*
X137185714Y-118742760D01*
X137185714Y-118742760D02*
X137214285Y-118714188D01*
X137214285Y-118714188D02*
X137242856Y-118657045D01*
X137242856Y-118657045D02*
X137242856Y-118599902D01*
X137242856Y-118599902D02*
X137214285Y-118542760D01*
X137214285Y-118542760D02*
X137185714Y-118514188D01*
X137185714Y-118514188D02*
X137128571Y-118485617D01*
X137128571Y-118485617D02*
X137014285Y-118457045D01*
X137014285Y-118457045D02*
X136957142Y-118428474D01*
X136957142Y-118428474D02*
X136928571Y-118399902D01*
X136928571Y-118399902D02*
X136899999Y-118342760D01*
X136899999Y-118342760D02*
X136899999Y-118285617D01*
X136899999Y-118285617D02*
X136928571Y-118228474D01*
X136928571Y-118228474D02*
X136957142Y-118199902D01*
X136957142Y-118199902D02*
X137014285Y-118171331D01*
X137014285Y-118171331D02*
X137157142Y-118171331D01*
X137157142Y-118171331D02*
X137242856Y-118199902D01*
X137500000Y-118457045D02*
X137700000Y-118457045D01*
X137785714Y-118771331D02*
X137500000Y-118771331D01*
X137500000Y-118771331D02*
X137500000Y-118171331D01*
X137500000Y-118171331D02*
X137785714Y-118171331D01*
X137957142Y-118171331D02*
X138300000Y-118171331D01*
X138128571Y-118771331D02*
X138128571Y-118171331D01*
X139042857Y-118199902D02*
X138985715Y-118171331D01*
X138985715Y-118171331D02*
X138900000Y-118171331D01*
X138900000Y-118171331D02*
X138814286Y-118199902D01*
X138814286Y-118199902D02*
X138757143Y-118257045D01*
X138757143Y-118257045D02*
X138728572Y-118314188D01*
X138728572Y-118314188D02*
X138700000Y-118428474D01*
X138700000Y-118428474D02*
X138700000Y-118514188D01*
X138700000Y-118514188D02*
X138728572Y-118628474D01*
X138728572Y-118628474D02*
X138757143Y-118685617D01*
X138757143Y-118685617D02*
X138814286Y-118742760D01*
X138814286Y-118742760D02*
X138900000Y-118771331D01*
X138900000Y-118771331D02*
X138957143Y-118771331D01*
X138957143Y-118771331D02*
X139042857Y-118742760D01*
X139042857Y-118742760D02*
X139071429Y-118714188D01*
X139071429Y-118714188D02*
X139071429Y-118514188D01*
X139071429Y-118514188D02*
X138957143Y-118514188D01*
X139328572Y-118771331D02*
X139328572Y-118171331D01*
X139328572Y-118171331D02*
X139671429Y-118771331D01*
X139671429Y-118771331D02*
X139671429Y-118171331D01*
X139957143Y-118771331D02*
X139957143Y-118171331D01*
X139957143Y-118171331D02*
X140100000Y-118171331D01*
X140100000Y-118171331D02*
X140185714Y-118199902D01*
X140185714Y-118199902D02*
X140242857Y-118257045D01*
X140242857Y-118257045D02*
X140271428Y-118314188D01*
X140271428Y-118314188D02*
X140300000Y-118428474D01*
X140300000Y-118428474D02*
X140300000Y-118514188D01*
X140300000Y-118514188D02*
X140271428Y-118628474D01*
X140271428Y-118628474D02*
X140242857Y-118685617D01*
X140242857Y-118685617D02*
X140185714Y-118742760D01*
X140185714Y-118742760D02*
X140100000Y-118771331D01*
X140100000Y-118771331D02*
X139957143Y-118771331D01*
X141528571Y-101171331D02*
X141242857Y-101171331D01*
X141242857Y-101171331D02*
X141214285Y-101457045D01*
X141214285Y-101457045D02*
X141242857Y-101428474D01*
X141242857Y-101428474D02*
X141300000Y-101399902D01*
X141300000Y-101399902D02*
X141442857Y-101399902D01*
X141442857Y-101399902D02*
X141500000Y-101428474D01*
X141500000Y-101428474D02*
X141528571Y-101457045D01*
X141528571Y-101457045D02*
X141557142Y-101514188D01*
X141557142Y-101514188D02*
X141557142Y-101657045D01*
X141557142Y-101657045D02*
X141528571Y-101714188D01*
X141528571Y-101714188D02*
X141500000Y-101742760D01*
X141500000Y-101742760D02*
X141442857Y-101771331D01*
X141442857Y-101771331D02*
X141300000Y-101771331D01*
X141300000Y-101771331D02*
X141242857Y-101742760D01*
X141242857Y-101742760D02*
X141214285Y-101714188D01*
X141728571Y-101171331D02*
X141928571Y-101771331D01*
X141928571Y-101771331D02*
X142128571Y-101171331D01*
X142757143Y-101742760D02*
X142842858Y-101771331D01*
X142842858Y-101771331D02*
X142985715Y-101771331D01*
X142985715Y-101771331D02*
X143042858Y-101742760D01*
X143042858Y-101742760D02*
X143071429Y-101714188D01*
X143071429Y-101714188D02*
X143100000Y-101657045D01*
X143100000Y-101657045D02*
X143100000Y-101599902D01*
X143100000Y-101599902D02*
X143071429Y-101542760D01*
X143071429Y-101542760D02*
X143042858Y-101514188D01*
X143042858Y-101514188D02*
X142985715Y-101485617D01*
X142985715Y-101485617D02*
X142871429Y-101457045D01*
X142871429Y-101457045D02*
X142814286Y-101428474D01*
X142814286Y-101428474D02*
X142785715Y-101399902D01*
X142785715Y-101399902D02*
X142757143Y-101342760D01*
X142757143Y-101342760D02*
X142757143Y-101285617D01*
X142757143Y-101285617D02*
X142785715Y-101228474D01*
X142785715Y-101228474D02*
X142814286Y-101199902D01*
X142814286Y-101199902D02*
X142871429Y-101171331D01*
X142871429Y-101171331D02*
X143014286Y-101171331D01*
X143014286Y-101171331D02*
X143100000Y-101199902D01*
X143300001Y-101171331D02*
X143442858Y-101771331D01*
X143442858Y-101771331D02*
X143557144Y-101342760D01*
X143557144Y-101342760D02*
X143671429Y-101771331D01*
X143671429Y-101771331D02*
X143814287Y-101171331D01*
X134457045Y-105514285D02*
X134457045Y-105714285D01*
X134771331Y-105714285D02*
X134171331Y-105714285D01*
X134171331Y-105714285D02*
X134171331Y-105428571D01*
X134771331Y-104914285D02*
X134771331Y-105199999D01*
X134771331Y-105199999D02*
X134171331Y-105199999D01*
X134599902Y-104742857D02*
X134599902Y-104457143D01*
X134771331Y-104800000D02*
X134171331Y-104600000D01*
X134171331Y-104600000D02*
X134771331Y-104400000D01*
X134742760Y-104228571D02*
X134771331Y-104142857D01*
X134771331Y-104142857D02*
X134771331Y-103999999D01*
X134771331Y-103999999D02*
X134742760Y-103942857D01*
X134742760Y-103942857D02*
X134714188Y-103914285D01*
X134714188Y-103914285D02*
X134657045Y-103885714D01*
X134657045Y-103885714D02*
X134599902Y-103885714D01*
X134599902Y-103885714D02*
X134542760Y-103914285D01*
X134542760Y-103914285D02*
X134514188Y-103942857D01*
X134514188Y-103942857D02*
X134485617Y-103999999D01*
X134485617Y-103999999D02*
X134457045Y-104114285D01*
X134457045Y-104114285D02*
X134428474Y-104171428D01*
X134428474Y-104171428D02*
X134399902Y-104199999D01*
X134399902Y-104199999D02*
X134342760Y-104228571D01*
X134342760Y-104228571D02*
X134285617Y-104228571D01*
X134285617Y-104228571D02*
X134228474Y-104199999D01*
X134228474Y-104199999D02*
X134199902Y-104171428D01*
X134199902Y-104171428D02*
X134171331Y-104114285D01*
X134171331Y-104114285D02*
X134171331Y-103971428D01*
X134171331Y-103971428D02*
X134199902Y-103885714D01*
X134771331Y-103628570D02*
X134171331Y-103628570D01*
X134457045Y-103628570D02*
X134457045Y-103285713D01*
X134771331Y-103285713D02*
X134171331Y-103285713D01*
X128885714Y-101144462D02*
X128885714Y-101670652D01*
X128885714Y-101670652D02*
X128916667Y-101732557D01*
X128916667Y-101732557D02*
X128947619Y-101763510D01*
X128947619Y-101763510D02*
X129009524Y-101794462D01*
X129009524Y-101794462D02*
X129133333Y-101794462D01*
X129133333Y-101794462D02*
X129195238Y-101763510D01*
X129195238Y-101763510D02*
X129226191Y-101732557D01*
X129226191Y-101732557D02*
X129257143Y-101670652D01*
X129257143Y-101670652D02*
X129257143Y-101144462D01*
X129535714Y-101763510D02*
X129628571Y-101794462D01*
X129628571Y-101794462D02*
X129783333Y-101794462D01*
X129783333Y-101794462D02*
X129845238Y-101763510D01*
X129845238Y-101763510D02*
X129876190Y-101732557D01*
X129876190Y-101732557D02*
X129907143Y-101670652D01*
X129907143Y-101670652D02*
X129907143Y-101608748D01*
X129907143Y-101608748D02*
X129876190Y-101546843D01*
X129876190Y-101546843D02*
X129845238Y-101515890D01*
X129845238Y-101515890D02*
X129783333Y-101484938D01*
X129783333Y-101484938D02*
X129659524Y-101453986D01*
X129659524Y-101453986D02*
X129597619Y-101423033D01*
X129597619Y-101423033D02*
X129566666Y-101392081D01*
X129566666Y-101392081D02*
X129535714Y-101330176D01*
X129535714Y-101330176D02*
X129535714Y-101268271D01*
X129535714Y-101268271D02*
X129566666Y-101206367D01*
X129566666Y-101206367D02*
X129597619Y-101175414D01*
X129597619Y-101175414D02*
X129659524Y-101144462D01*
X129659524Y-101144462D02*
X129814285Y-101144462D01*
X129814285Y-101144462D02*
X129907143Y-101175414D01*
X130185714Y-101453986D02*
X130402381Y-101453986D01*
X130495238Y-101794462D02*
X130185714Y-101794462D01*
X130185714Y-101794462D02*
X130185714Y-101144462D01*
X130185714Y-101144462D02*
X130495238Y-101144462D01*
X131145238Y-101794462D02*
X130928571Y-101484938D01*
X130773809Y-101794462D02*
X130773809Y-101144462D01*
X130773809Y-101144462D02*
X131021428Y-101144462D01*
X131021428Y-101144462D02*
X131083333Y-101175414D01*
X131083333Y-101175414D02*
X131114286Y-101206367D01*
X131114286Y-101206367D02*
X131145238Y-101268271D01*
X131145238Y-101268271D02*
X131145238Y-101361129D01*
X131145238Y-101361129D02*
X131114286Y-101423033D01*
X131114286Y-101423033D02*
X131083333Y-101453986D01*
X131083333Y-101453986D02*
X131021428Y-101484938D01*
X131021428Y-101484938D02*
X130773809Y-101484938D01*
X154600001Y-118317593D02*
X154600001Y-117617593D01*
X154600001Y-117617593D02*
X154766668Y-117617593D01*
X154766668Y-117617593D02*
X154866668Y-117650926D01*
X154866668Y-117650926D02*
X154933335Y-117717593D01*
X154933335Y-117717593D02*
X154966668Y-117784260D01*
X154966668Y-117784260D02*
X155000001Y-117917593D01*
X155000001Y-117917593D02*
X155000001Y-118017593D01*
X155000001Y-118017593D02*
X154966668Y-118150926D01*
X154966668Y-118150926D02*
X154933335Y-118217593D01*
X154933335Y-118217593D02*
X154866668Y-118284260D01*
X154866668Y-118284260D02*
X154766668Y-118317593D01*
X154766668Y-118317593D02*
X154600001Y-118317593D01*
X155300001Y-117950926D02*
X155533335Y-117950926D01*
X155633335Y-118317593D02*
X155300001Y-118317593D01*
X155300001Y-118317593D02*
X155300001Y-117617593D01*
X155300001Y-117617593D02*
X155633335Y-117617593D01*
X155833334Y-117617593D02*
X156066668Y-118317593D01*
X156066668Y-118317593D02*
X156300001Y-117617593D01*
X156533334Y-118317593D02*
X156533334Y-117617593D01*
X157266667Y-118250926D02*
X157233334Y-118284260D01*
X157233334Y-118284260D02*
X157133334Y-118317593D01*
X157133334Y-118317593D02*
X157066667Y-118317593D01*
X157066667Y-118317593D02*
X156966667Y-118284260D01*
X156966667Y-118284260D02*
X156900001Y-118217593D01*
X156900001Y-118217593D02*
X156866667Y-118150926D01*
X156866667Y-118150926D02*
X156833334Y-118017593D01*
X156833334Y-118017593D02*
X156833334Y-117917593D01*
X156833334Y-117917593D02*
X156866667Y-117784260D01*
X156866667Y-117784260D02*
X156900001Y-117717593D01*
X156900001Y-117717593D02*
X156966667Y-117650926D01*
X156966667Y-117650926D02*
X157066667Y-117617593D01*
X157066667Y-117617593D02*
X157133334Y-117617593D01*
X157133334Y-117617593D02*
X157233334Y-117650926D01*
X157233334Y-117650926D02*
X157266667Y-117684260D01*
X157566667Y-117950926D02*
X157800001Y-117950926D01*
X157900001Y-118317593D02*
X157566667Y-118317593D01*
X157566667Y-118317593D02*
X157566667Y-117617593D01*
X157566667Y-117617593D02*
X157900001Y-117617593D01*
X158866667Y-117617593D02*
X159000000Y-117617593D01*
X159000000Y-117617593D02*
X159066667Y-117650926D01*
X159066667Y-117650926D02*
X159133333Y-117717593D01*
X159133333Y-117717593D02*
X159166667Y-117850926D01*
X159166667Y-117850926D02*
X159166667Y-118084260D01*
X159166667Y-118084260D02*
X159133333Y-118217593D01*
X159133333Y-118217593D02*
X159066667Y-118284260D01*
X159066667Y-118284260D02*
X159000000Y-118317593D01*
X159000000Y-118317593D02*
X158866667Y-118317593D01*
X158866667Y-118317593D02*
X158800000Y-118284260D01*
X158800000Y-118284260D02*
X158733333Y-118217593D01*
X158733333Y-118217593D02*
X158700000Y-118084260D01*
X158700000Y-118084260D02*
X158700000Y-117850926D01*
X158700000Y-117850926D02*
X158733333Y-117717593D01*
X158733333Y-117717593D02*
X158800000Y-117650926D01*
X158800000Y-117650926D02*
X158866667Y-117617593D01*
X159466666Y-117617593D02*
X159466666Y-118184260D01*
X159466666Y-118184260D02*
X159500000Y-118250926D01*
X159500000Y-118250926D02*
X159533333Y-118284260D01*
X159533333Y-118284260D02*
X159600000Y-118317593D01*
X159600000Y-118317593D02*
X159733333Y-118317593D01*
X159733333Y-118317593D02*
X159800000Y-118284260D01*
X159800000Y-118284260D02*
X159833333Y-118250926D01*
X159833333Y-118250926D02*
X159866666Y-118184260D01*
X159866666Y-118184260D02*
X159866666Y-117617593D01*
X160099999Y-117617593D02*
X160499999Y-117617593D01*
X160299999Y-118317593D02*
X160299999Y-117617593D01*
D11*
X102392857Y-118339684D02*
X102392857Y-117589684D01*
X102392857Y-117946827D02*
X102821428Y-117946827D01*
X102821428Y-118339684D02*
X102821428Y-117589684D01*
X103321428Y-117589684D02*
X103464285Y-117589684D01*
X103464285Y-117589684D02*
X103535714Y-117625398D01*
X103535714Y-117625398D02*
X103607142Y-117696827D01*
X103607142Y-117696827D02*
X103642857Y-117839684D01*
X103642857Y-117839684D02*
X103642857Y-118089684D01*
X103642857Y-118089684D02*
X103607142Y-118232541D01*
X103607142Y-118232541D02*
X103535714Y-118303970D01*
X103535714Y-118303970D02*
X103464285Y-118339684D01*
X103464285Y-118339684D02*
X103321428Y-118339684D01*
X103321428Y-118339684D02*
X103250000Y-118303970D01*
X103250000Y-118303970D02*
X103178571Y-118232541D01*
X103178571Y-118232541D02*
X103142857Y-118089684D01*
X103142857Y-118089684D02*
X103142857Y-117839684D01*
X103142857Y-117839684D02*
X103178571Y-117696827D01*
X103178571Y-117696827D02*
X103250000Y-117625398D01*
X103250000Y-117625398D02*
X103321428Y-117589684D01*
X103928571Y-118303970D02*
X104035714Y-118339684D01*
X104035714Y-118339684D02*
X104214285Y-118339684D01*
X104214285Y-118339684D02*
X104285714Y-118303970D01*
X104285714Y-118303970D02*
X104321428Y-118268255D01*
X104321428Y-118268255D02*
X104357142Y-118196827D01*
X104357142Y-118196827D02*
X104357142Y-118125398D01*
X104357142Y-118125398D02*
X104321428Y-118053970D01*
X104321428Y-118053970D02*
X104285714Y-118018255D01*
X104285714Y-118018255D02*
X104214285Y-117982541D01*
X104214285Y-117982541D02*
X104071428Y-117946827D01*
X104071428Y-117946827D02*
X103999999Y-117911112D01*
X103999999Y-117911112D02*
X103964285Y-117875398D01*
X103964285Y-117875398D02*
X103928571Y-117803970D01*
X103928571Y-117803970D02*
X103928571Y-117732541D01*
X103928571Y-117732541D02*
X103964285Y-117661112D01*
X103964285Y-117661112D02*
X103999999Y-117625398D01*
X103999999Y-117625398D02*
X104071428Y-117589684D01*
X104071428Y-117589684D02*
X104249999Y-117589684D01*
X104249999Y-117589684D02*
X104357142Y-117625398D01*
X104571428Y-117589684D02*
X105000000Y-117589684D01*
X104785714Y-118339684D02*
X104785714Y-117589684D01*
X105821429Y-118339684D02*
X105821429Y-117589684D01*
X106178572Y-118339684D02*
X106178572Y-117589684D01*
X106178572Y-117589684D02*
X106607143Y-118339684D01*
X106607143Y-118339684D02*
X106607143Y-117589684D01*
D12*
X102969048Y-101804474D02*
X102928572Y-101844951D01*
X102928572Y-101844951D02*
X102807143Y-101885427D01*
X102807143Y-101885427D02*
X102726191Y-101885427D01*
X102726191Y-101885427D02*
X102604762Y-101844951D01*
X102604762Y-101844951D02*
X102523810Y-101763998D01*
X102523810Y-101763998D02*
X102483333Y-101683046D01*
X102483333Y-101683046D02*
X102442857Y-101521141D01*
X102442857Y-101521141D02*
X102442857Y-101399712D01*
X102442857Y-101399712D02*
X102483333Y-101237808D01*
X102483333Y-101237808D02*
X102523810Y-101156855D01*
X102523810Y-101156855D02*
X102604762Y-101075903D01*
X102604762Y-101075903D02*
X102726191Y-101035427D01*
X102726191Y-101035427D02*
X102807143Y-101035427D01*
X102807143Y-101035427D02*
X102928572Y-101075903D01*
X102928572Y-101075903D02*
X102969048Y-101116379D01*
X103454762Y-101885427D02*
X103373810Y-101844951D01*
X103373810Y-101844951D02*
X103333333Y-101804474D01*
X103333333Y-101804474D02*
X103292857Y-101723522D01*
X103292857Y-101723522D02*
X103292857Y-101480665D01*
X103292857Y-101480665D02*
X103333333Y-101399712D01*
X103333333Y-101399712D02*
X103373810Y-101359236D01*
X103373810Y-101359236D02*
X103454762Y-101318760D01*
X103454762Y-101318760D02*
X103576191Y-101318760D01*
X103576191Y-101318760D02*
X103657143Y-101359236D01*
X103657143Y-101359236D02*
X103697619Y-101399712D01*
X103697619Y-101399712D02*
X103738095Y-101480665D01*
X103738095Y-101480665D02*
X103738095Y-101723522D01*
X103738095Y-101723522D02*
X103697619Y-101804474D01*
X103697619Y-101804474D02*
X103657143Y-101844951D01*
X103657143Y-101844951D02*
X103576191Y-101885427D01*
X103576191Y-101885427D02*
X103454762Y-101885427D01*
X104102381Y-101318760D02*
X104102381Y-101885427D01*
X104102381Y-101399712D02*
X104142858Y-101359236D01*
X104142858Y-101359236D02*
X104223810Y-101318760D01*
X104223810Y-101318760D02*
X104345239Y-101318760D01*
X104345239Y-101318760D02*
X104426191Y-101359236D01*
X104426191Y-101359236D02*
X104466667Y-101440189D01*
X104466667Y-101440189D02*
X104466667Y-101885427D01*
X104750001Y-101318760D02*
X105073810Y-101318760D01*
X104871429Y-101035427D02*
X104871429Y-101763998D01*
X104871429Y-101763998D02*
X104911906Y-101844951D01*
X104911906Y-101844951D02*
X104992858Y-101885427D01*
X104992858Y-101885427D02*
X105073810Y-101885427D01*
X105357143Y-101885427D02*
X105357143Y-101318760D01*
X105357143Y-101480665D02*
X105397620Y-101399712D01*
X105397620Y-101399712D02*
X105438096Y-101359236D01*
X105438096Y-101359236D02*
X105519048Y-101318760D01*
X105519048Y-101318760D02*
X105600001Y-101318760D01*
X106004762Y-101885427D02*
X105923810Y-101844951D01*
X105923810Y-101844951D02*
X105883333Y-101804474D01*
X105883333Y-101804474D02*
X105842857Y-101723522D01*
X105842857Y-101723522D02*
X105842857Y-101480665D01*
X105842857Y-101480665D02*
X105883333Y-101399712D01*
X105883333Y-101399712D02*
X105923810Y-101359236D01*
X105923810Y-101359236D02*
X106004762Y-101318760D01*
X106004762Y-101318760D02*
X106126191Y-101318760D01*
X106126191Y-101318760D02*
X106207143Y-101359236D01*
X106207143Y-101359236D02*
X106247619Y-101399712D01*
X106247619Y-101399712D02*
X106288095Y-101480665D01*
X106288095Y-101480665D02*
X106288095Y-101723522D01*
X106288095Y-101723522D02*
X106247619Y-101804474D01*
X106247619Y-101804474D02*
X106207143Y-101844951D01*
X106207143Y-101844951D02*
X106126191Y-101885427D01*
X106126191Y-101885427D02*
X106004762Y-101885427D01*
X106773810Y-101885427D02*
X106692858Y-101844951D01*
X106692858Y-101844951D02*
X106652381Y-101763998D01*
X106652381Y-101763998D02*
X106652381Y-101035427D01*
X107219048Y-101885427D02*
X107138096Y-101844951D01*
X107138096Y-101844951D02*
X107097619Y-101763998D01*
X107097619Y-101763998D02*
X107097619Y-101035427D01*
X107866667Y-101844951D02*
X107785715Y-101885427D01*
X107785715Y-101885427D02*
X107623810Y-101885427D01*
X107623810Y-101885427D02*
X107542857Y-101844951D01*
X107542857Y-101844951D02*
X107502381Y-101763998D01*
X107502381Y-101763998D02*
X107502381Y-101440189D01*
X107502381Y-101440189D02*
X107542857Y-101359236D01*
X107542857Y-101359236D02*
X107623810Y-101318760D01*
X107623810Y-101318760D02*
X107785715Y-101318760D01*
X107785715Y-101318760D02*
X107866667Y-101359236D01*
X107866667Y-101359236D02*
X107907143Y-101440189D01*
X107907143Y-101440189D02*
X107907143Y-101521141D01*
X107907143Y-101521141D02*
X107502381Y-101602093D01*
X108635714Y-101885427D02*
X108635714Y-101035427D01*
X108635714Y-101844951D02*
X108554762Y-101885427D01*
X108554762Y-101885427D02*
X108392857Y-101885427D01*
X108392857Y-101885427D02*
X108311905Y-101844951D01*
X108311905Y-101844951D02*
X108271428Y-101804474D01*
X108271428Y-101804474D02*
X108230952Y-101723522D01*
X108230952Y-101723522D02*
X108230952Y-101480665D01*
X108230952Y-101480665D02*
X108271428Y-101399712D01*
X108271428Y-101399712D02*
X108311905Y-101359236D01*
X108311905Y-101359236D02*
X108392857Y-101318760D01*
X108392857Y-101318760D02*
X108554762Y-101318760D01*
X108554762Y-101318760D02*
X108635714Y-101359236D01*
X109040476Y-101035427D02*
X109040476Y-101723522D01*
X109040476Y-101723522D02*
X109080953Y-101804474D01*
X109080953Y-101804474D02*
X109121429Y-101844951D01*
X109121429Y-101844951D02*
X109202381Y-101885427D01*
X109202381Y-101885427D02*
X109364286Y-101885427D01*
X109364286Y-101885427D02*
X109445238Y-101844951D01*
X109445238Y-101844951D02*
X109485715Y-101804474D01*
X109485715Y-101804474D02*
X109526191Y-101723522D01*
X109526191Y-101723522D02*
X109526191Y-101035427D01*
X109890476Y-101844951D02*
X109971429Y-101885427D01*
X109971429Y-101885427D02*
X110133333Y-101885427D01*
X110133333Y-101885427D02*
X110214286Y-101844951D01*
X110214286Y-101844951D02*
X110254762Y-101763998D01*
X110254762Y-101763998D02*
X110254762Y-101723522D01*
X110254762Y-101723522D02*
X110214286Y-101642570D01*
X110214286Y-101642570D02*
X110133333Y-101602093D01*
X110133333Y-101602093D02*
X110011905Y-101602093D01*
X110011905Y-101602093D02*
X109930952Y-101561617D01*
X109930952Y-101561617D02*
X109890476Y-101480665D01*
X109890476Y-101480665D02*
X109890476Y-101440189D01*
X109890476Y-101440189D02*
X109930952Y-101359236D01*
X109930952Y-101359236D02*
X110011905Y-101318760D01*
X110011905Y-101318760D02*
X110133333Y-101318760D01*
X110133333Y-101318760D02*
X110214286Y-101359236D01*
X110619047Y-101885427D02*
X110619047Y-101035427D01*
X110619047Y-101359236D02*
X110700000Y-101318760D01*
X110700000Y-101318760D02*
X110861905Y-101318760D01*
X110861905Y-101318760D02*
X110942857Y-101359236D01*
X110942857Y-101359236D02*
X110983333Y-101399712D01*
X110983333Y-101399712D02*
X111023809Y-101480665D01*
X111023809Y-101480665D02*
X111023809Y-101723522D01*
X111023809Y-101723522D02*
X110983333Y-101804474D01*
X110983333Y-101804474D02*
X110942857Y-101844951D01*
X110942857Y-101844951D02*
X110861905Y-101885427D01*
X110861905Y-101885427D02*
X110700000Y-101885427D01*
X110700000Y-101885427D02*
X110619047Y-101844951D01*
X112400000Y-101035427D02*
X112238095Y-101035427D01*
X112238095Y-101035427D02*
X112157143Y-101075903D01*
X112157143Y-101075903D02*
X112116667Y-101116379D01*
X112116667Y-101116379D02*
X112035714Y-101237808D01*
X112035714Y-101237808D02*
X111995238Y-101399712D01*
X111995238Y-101399712D02*
X111995238Y-101723522D01*
X111995238Y-101723522D02*
X112035714Y-101804474D01*
X112035714Y-101804474D02*
X112076191Y-101844951D01*
X112076191Y-101844951D02*
X112157143Y-101885427D01*
X112157143Y-101885427D02*
X112319048Y-101885427D01*
X112319048Y-101885427D02*
X112400000Y-101844951D01*
X112400000Y-101844951D02*
X112440476Y-101804474D01*
X112440476Y-101804474D02*
X112480953Y-101723522D01*
X112480953Y-101723522D02*
X112480953Y-101521141D01*
X112480953Y-101521141D02*
X112440476Y-101440189D01*
X112440476Y-101440189D02*
X112400000Y-101399712D01*
X112400000Y-101399712D02*
X112319048Y-101359236D01*
X112319048Y-101359236D02*
X112157143Y-101359236D01*
X112157143Y-101359236D02*
X112076191Y-101399712D01*
X112076191Y-101399712D02*
X112035714Y-101440189D01*
X112035714Y-101440189D02*
X111995238Y-101521141D01*
X112804762Y-101116379D02*
X112845238Y-101075903D01*
X112845238Y-101075903D02*
X112926191Y-101035427D01*
X112926191Y-101035427D02*
X113128572Y-101035427D01*
X113128572Y-101035427D02*
X113209524Y-101075903D01*
X113209524Y-101075903D02*
X113250000Y-101116379D01*
X113250000Y-101116379D02*
X113290477Y-101197331D01*
X113290477Y-101197331D02*
X113290477Y-101278284D01*
X113290477Y-101278284D02*
X113250000Y-101399712D01*
X113250000Y-101399712D02*
X112764286Y-101885427D01*
X112764286Y-101885427D02*
X113290477Y-101885427D01*
X113654762Y-101885427D02*
X113654762Y-101318760D01*
X113654762Y-101399712D02*
X113695239Y-101359236D01*
X113695239Y-101359236D02*
X113776191Y-101318760D01*
X113776191Y-101318760D02*
X113897620Y-101318760D01*
X113897620Y-101318760D02*
X113978572Y-101359236D01*
X113978572Y-101359236D02*
X114019048Y-101440189D01*
X114019048Y-101440189D02*
X114019048Y-101885427D01*
X114019048Y-101440189D02*
X114059524Y-101359236D01*
X114059524Y-101359236D02*
X114140477Y-101318760D01*
X114140477Y-101318760D02*
X114261905Y-101318760D01*
X114261905Y-101318760D02*
X114342858Y-101359236D01*
X114342858Y-101359236D02*
X114383334Y-101440189D01*
X114383334Y-101440189D02*
X114383334Y-101885427D01*
X114788095Y-101885427D02*
X114788095Y-101318760D01*
X114788095Y-101399712D02*
X114828572Y-101359236D01*
X114828572Y-101359236D02*
X114909524Y-101318760D01*
X114909524Y-101318760D02*
X115030953Y-101318760D01*
X115030953Y-101318760D02*
X115111905Y-101359236D01*
X115111905Y-101359236D02*
X115152381Y-101440189D01*
X115152381Y-101440189D02*
X115152381Y-101885427D01*
X115152381Y-101440189D02*
X115192857Y-101359236D01*
X115192857Y-101359236D02*
X115273810Y-101318760D01*
X115273810Y-101318760D02*
X115395238Y-101318760D01*
X115395238Y-101318760D02*
X115476191Y-101359236D01*
X115476191Y-101359236D02*
X115516667Y-101440189D01*
X115516667Y-101440189D02*
X115516667Y-101885427D01*
D10*
X142400000Y-107071331D02*
X142200000Y-106785617D01*
X142057143Y-107071331D02*
X142057143Y-106471331D01*
X142057143Y-106471331D02*
X142285714Y-106471331D01*
X142285714Y-106471331D02*
X142342857Y-106499902D01*
X142342857Y-106499902D02*
X142371428Y-106528474D01*
X142371428Y-106528474D02*
X142400000Y-106585617D01*
X142400000Y-106585617D02*
X142400000Y-106671331D01*
X142400000Y-106671331D02*
X142371428Y-106728474D01*
X142371428Y-106728474D02*
X142342857Y-106757045D01*
X142342857Y-106757045D02*
X142285714Y-106785617D01*
X142285714Y-106785617D02*
X142057143Y-106785617D01*
X142942857Y-106471331D02*
X142657143Y-106471331D01*
X142657143Y-106471331D02*
X142628571Y-106757045D01*
X142628571Y-106757045D02*
X142657143Y-106728474D01*
X142657143Y-106728474D02*
X142714286Y-106699902D01*
X142714286Y-106699902D02*
X142857143Y-106699902D01*
X142857143Y-106699902D02*
X142914286Y-106728474D01*
X142914286Y-106728474D02*
X142942857Y-106757045D01*
X142942857Y-106757045D02*
X142971428Y-106814188D01*
X142971428Y-106814188D02*
X142971428Y-106957045D01*
X142971428Y-106957045D02*
X142942857Y-107014188D01*
X142942857Y-107014188D02*
X142914286Y-107042760D01*
X142914286Y-107042760D02*
X142857143Y-107071331D01*
X142857143Y-107071331D02*
X142714286Y-107071331D01*
X142714286Y-107071331D02*
X142657143Y-107042760D01*
X142657143Y-107042760D02*
X142628571Y-107014188D01*
X116514188Y-116885714D02*
X116542760Y-116914286D01*
X116542760Y-116914286D02*
X116571331Y-117000000D01*
X116571331Y-117000000D02*
X116571331Y-117057143D01*
X116571331Y-117057143D02*
X116542760Y-117142857D01*
X116542760Y-117142857D02*
X116485617Y-117200000D01*
X116485617Y-117200000D02*
X116428474Y-117228571D01*
X116428474Y-117228571D02*
X116314188Y-117257143D01*
X116314188Y-117257143D02*
X116228474Y-117257143D01*
X116228474Y-117257143D02*
X116114188Y-117228571D01*
X116114188Y-117228571D02*
X116057045Y-117200000D01*
X116057045Y-117200000D02*
X115999902Y-117142857D01*
X115999902Y-117142857D02*
X115971331Y-117057143D01*
X115971331Y-117057143D02*
X115971331Y-117000000D01*
X115971331Y-117000000D02*
X115999902Y-116914286D01*
X115999902Y-116914286D02*
X116028474Y-116885714D01*
X116571331Y-116314286D02*
X116571331Y-116657143D01*
X116571331Y-116485714D02*
X115971331Y-116485714D01*
X115971331Y-116485714D02*
X116057045Y-116542857D01*
X116057045Y-116542857D02*
X116114188Y-116600000D01*
X116114188Y-116600000D02*
X116142760Y-116657143D01*
X115971331Y-115771428D02*
X115971331Y-116057142D01*
X115971331Y-116057142D02*
X116257045Y-116085714D01*
X116257045Y-116085714D02*
X116228474Y-116057142D01*
X116228474Y-116057142D02*
X116199902Y-116000000D01*
X116199902Y-116000000D02*
X116199902Y-115857142D01*
X116199902Y-115857142D02*
X116228474Y-115800000D01*
X116228474Y-115800000D02*
X116257045Y-115771428D01*
X116257045Y-115771428D02*
X116314188Y-115742857D01*
X116314188Y-115742857D02*
X116457045Y-115742857D01*
X116457045Y-115742857D02*
X116514188Y-115771428D01*
X116514188Y-115771428D02*
X116542760Y-115800000D01*
X116542760Y-115800000D02*
X116571331Y-115857142D01*
X116571331Y-115857142D02*
X116571331Y-116000000D01*
X116571331Y-116000000D02*
X116542760Y-116057142D01*
X116542760Y-116057142D02*
X116514188Y-116085714D01*
X124571331Y-108099999D02*
X124285617Y-108299999D01*
X124571331Y-108442856D02*
X123971331Y-108442856D01*
X123971331Y-108442856D02*
X123971331Y-108214285D01*
X123971331Y-108214285D02*
X123999902Y-108157142D01*
X123999902Y-108157142D02*
X124028474Y-108128571D01*
X124028474Y-108128571D02*
X124085617Y-108099999D01*
X124085617Y-108099999D02*
X124171331Y-108099999D01*
X124171331Y-108099999D02*
X124228474Y-108128571D01*
X124228474Y-108128571D02*
X124257045Y-108157142D01*
X124257045Y-108157142D02*
X124285617Y-108214285D01*
X124285617Y-108214285D02*
X124285617Y-108442856D01*
X124571331Y-107528571D02*
X124571331Y-107871428D01*
X124571331Y-107699999D02*
X123971331Y-107699999D01*
X123971331Y-107699999D02*
X124057045Y-107757142D01*
X124057045Y-107757142D02*
X124114188Y-107814285D01*
X124114188Y-107814285D02*
X124142760Y-107871428D01*
X142900000Y-116571331D02*
X142700000Y-116285617D01*
X142557143Y-116571331D02*
X142557143Y-115971331D01*
X142557143Y-115971331D02*
X142785714Y-115971331D01*
X142785714Y-115971331D02*
X142842857Y-115999902D01*
X142842857Y-115999902D02*
X142871428Y-116028474D01*
X142871428Y-116028474D02*
X142900000Y-116085617D01*
X142900000Y-116085617D02*
X142900000Y-116171331D01*
X142900000Y-116171331D02*
X142871428Y-116228474D01*
X142871428Y-116228474D02*
X142842857Y-116257045D01*
X142842857Y-116257045D02*
X142785714Y-116285617D01*
X142785714Y-116285617D02*
X142557143Y-116285617D01*
X143414286Y-115971331D02*
X143300000Y-115971331D01*
X143300000Y-115971331D02*
X143242857Y-115999902D01*
X143242857Y-115999902D02*
X143214286Y-116028474D01*
X143214286Y-116028474D02*
X143157143Y-116114188D01*
X143157143Y-116114188D02*
X143128571Y-116228474D01*
X143128571Y-116228474D02*
X143128571Y-116457045D01*
X143128571Y-116457045D02*
X143157143Y-116514188D01*
X143157143Y-116514188D02*
X143185714Y-116542760D01*
X143185714Y-116542760D02*
X143242857Y-116571331D01*
X143242857Y-116571331D02*
X143357143Y-116571331D01*
X143357143Y-116571331D02*
X143414286Y-116542760D01*
X143414286Y-116542760D02*
X143442857Y-116514188D01*
X143442857Y-116514188D02*
X143471428Y-116457045D01*
X143471428Y-116457045D02*
X143471428Y-116314188D01*
X143471428Y-116314188D02*
X143442857Y-116257045D01*
X143442857Y-116257045D02*
X143414286Y-116228474D01*
X143414286Y-116228474D02*
X143357143Y-116199902D01*
X143357143Y-116199902D02*
X143242857Y-116199902D01*
X143242857Y-116199902D02*
X143185714Y-116228474D01*
X143185714Y-116228474D02*
X143157143Y-116257045D01*
X143157143Y-116257045D02*
X143128571Y-116314188D01*
X119614285Y-102514188D02*
X119585713Y-102542760D01*
X119585713Y-102542760D02*
X119499999Y-102571331D01*
X119499999Y-102571331D02*
X119442856Y-102571331D01*
X119442856Y-102571331D02*
X119357142Y-102542760D01*
X119357142Y-102542760D02*
X119299999Y-102485617D01*
X119299999Y-102485617D02*
X119271428Y-102428474D01*
X119271428Y-102428474D02*
X119242856Y-102314188D01*
X119242856Y-102314188D02*
X119242856Y-102228474D01*
X119242856Y-102228474D02*
X119271428Y-102114188D01*
X119271428Y-102114188D02*
X119299999Y-102057045D01*
X119299999Y-102057045D02*
X119357142Y-101999902D01*
X119357142Y-101999902D02*
X119442856Y-101971331D01*
X119442856Y-101971331D02*
X119499999Y-101971331D01*
X119499999Y-101971331D02*
X119585713Y-101999902D01*
X119585713Y-101999902D02*
X119614285Y-102028474D01*
X120185713Y-102571331D02*
X119842856Y-102571331D01*
X120014285Y-102571331D02*
X120014285Y-101971331D01*
X120014285Y-101971331D02*
X119957142Y-102057045D01*
X119957142Y-102057045D02*
X119899999Y-102114188D01*
X119899999Y-102114188D02*
X119842856Y-102142760D01*
X120757142Y-102571331D02*
X120414285Y-102571331D01*
X120585714Y-102571331D02*
X120585714Y-101971331D01*
X120585714Y-101971331D02*
X120528571Y-102057045D01*
X120528571Y-102057045D02*
X120471428Y-102114188D01*
X120471428Y-102114188D02*
X120414285Y-102142760D01*
X145014188Y-107610714D02*
X145042760Y-107639286D01*
X145042760Y-107639286D02*
X145071331Y-107725000D01*
X145071331Y-107725000D02*
X145071331Y-107782143D01*
X145071331Y-107782143D02*
X145042760Y-107867857D01*
X145042760Y-107867857D02*
X144985617Y-107925000D01*
X144985617Y-107925000D02*
X144928474Y-107953571D01*
X144928474Y-107953571D02*
X144814188Y-107982143D01*
X144814188Y-107982143D02*
X144728474Y-107982143D01*
X144728474Y-107982143D02*
X144614188Y-107953571D01*
X144614188Y-107953571D02*
X144557045Y-107925000D01*
X144557045Y-107925000D02*
X144499902Y-107867857D01*
X144499902Y-107867857D02*
X144471331Y-107782143D01*
X144471331Y-107782143D02*
X144471331Y-107725000D01*
X144471331Y-107725000D02*
X144499902Y-107639286D01*
X144499902Y-107639286D02*
X144528474Y-107610714D01*
X145071331Y-107039286D02*
X145071331Y-107382143D01*
X145071331Y-107210714D02*
X144471331Y-107210714D01*
X144471331Y-107210714D02*
X144557045Y-107267857D01*
X144557045Y-107267857D02*
X144614188Y-107325000D01*
X144614188Y-107325000D02*
X144642760Y-107382143D01*
X144471331Y-106839285D02*
X144471331Y-106439285D01*
X144471331Y-106439285D02*
X145071331Y-106696428D01*
X119900000Y-105014188D02*
X119871428Y-105042760D01*
X119871428Y-105042760D02*
X119785714Y-105071331D01*
X119785714Y-105071331D02*
X119728571Y-105071331D01*
X119728571Y-105071331D02*
X119642857Y-105042760D01*
X119642857Y-105042760D02*
X119585714Y-104985617D01*
X119585714Y-104985617D02*
X119557143Y-104928474D01*
X119557143Y-104928474D02*
X119528571Y-104814188D01*
X119528571Y-104814188D02*
X119528571Y-104728474D01*
X119528571Y-104728474D02*
X119557143Y-104614188D01*
X119557143Y-104614188D02*
X119585714Y-104557045D01*
X119585714Y-104557045D02*
X119642857Y-104499902D01*
X119642857Y-104499902D02*
X119728571Y-104471331D01*
X119728571Y-104471331D02*
X119785714Y-104471331D01*
X119785714Y-104471331D02*
X119871428Y-104499902D01*
X119871428Y-104499902D02*
X119900000Y-104528474D01*
X120100000Y-104471331D02*
X120471428Y-104471331D01*
X120471428Y-104471331D02*
X120271428Y-104699902D01*
X120271428Y-104699902D02*
X120357143Y-104699902D01*
X120357143Y-104699902D02*
X120414286Y-104728474D01*
X120414286Y-104728474D02*
X120442857Y-104757045D01*
X120442857Y-104757045D02*
X120471428Y-104814188D01*
X120471428Y-104814188D02*
X120471428Y-104957045D01*
X120471428Y-104957045D02*
X120442857Y-105014188D01*
X120442857Y-105014188D02*
X120414286Y-105042760D01*
X120414286Y-105042760D02*
X120357143Y-105071331D01*
X120357143Y-105071331D02*
X120185714Y-105071331D01*
X120185714Y-105071331D02*
X120128571Y-105042760D01*
X120128571Y-105042760D02*
X120100000Y-105014188D01*
X124571331Y-111099999D02*
X124285617Y-111299999D01*
X124571331Y-111442856D02*
X123971331Y-111442856D01*
X123971331Y-111442856D02*
X123971331Y-111214285D01*
X123971331Y-111214285D02*
X123999902Y-111157142D01*
X123999902Y-111157142D02*
X124028474Y-111128571D01*
X124028474Y-111128571D02*
X124085617Y-111099999D01*
X124085617Y-111099999D02*
X124171331Y-111099999D01*
X124171331Y-111099999D02*
X124228474Y-111128571D01*
X124228474Y-111128571D02*
X124257045Y-111157142D01*
X124257045Y-111157142D02*
X124285617Y-111214285D01*
X124285617Y-111214285D02*
X124285617Y-111442856D01*
X124028474Y-110871428D02*
X123999902Y-110842856D01*
X123999902Y-110842856D02*
X123971331Y-110785714D01*
X123971331Y-110785714D02*
X123971331Y-110642856D01*
X123971331Y-110642856D02*
X123999902Y-110585714D01*
X123999902Y-110585714D02*
X124028474Y-110557142D01*
X124028474Y-110557142D02*
X124085617Y-110528571D01*
X124085617Y-110528571D02*
X124142760Y-110528571D01*
X124142760Y-110528571D02*
X124228474Y-110557142D01*
X124228474Y-110557142D02*
X124571331Y-110899999D01*
X124571331Y-110899999D02*
X124571331Y-110528571D01*
X116514188Y-112885714D02*
X116542760Y-112914286D01*
X116542760Y-112914286D02*
X116571331Y-113000000D01*
X116571331Y-113000000D02*
X116571331Y-113057143D01*
X116571331Y-113057143D02*
X116542760Y-113142857D01*
X116542760Y-113142857D02*
X116485617Y-113200000D01*
X116485617Y-113200000D02*
X116428474Y-113228571D01*
X116428474Y-113228571D02*
X116314188Y-113257143D01*
X116314188Y-113257143D02*
X116228474Y-113257143D01*
X116228474Y-113257143D02*
X116114188Y-113228571D01*
X116114188Y-113228571D02*
X116057045Y-113200000D01*
X116057045Y-113200000D02*
X115999902Y-113142857D01*
X115999902Y-113142857D02*
X115971331Y-113057143D01*
X115971331Y-113057143D02*
X115971331Y-113000000D01*
X115971331Y-113000000D02*
X115999902Y-112914286D01*
X115999902Y-112914286D02*
X116028474Y-112885714D01*
X116571331Y-112314286D02*
X116571331Y-112657143D01*
X116571331Y-112485714D02*
X115971331Y-112485714D01*
X115971331Y-112485714D02*
X116057045Y-112542857D01*
X116057045Y-112542857D02*
X116114188Y-112600000D01*
X116114188Y-112600000D02*
X116142760Y-112657143D01*
X116171331Y-111800000D02*
X116571331Y-111800000D01*
X115942760Y-111942857D02*
X116371331Y-112085714D01*
X116371331Y-112085714D02*
X116371331Y-111714285D01*
X124900000Y-115014188D02*
X124871428Y-115042760D01*
X124871428Y-115042760D02*
X124785714Y-115071331D01*
X124785714Y-115071331D02*
X124728571Y-115071331D01*
X124728571Y-115071331D02*
X124642857Y-115042760D01*
X124642857Y-115042760D02*
X124585714Y-114985617D01*
X124585714Y-114985617D02*
X124557143Y-114928474D01*
X124557143Y-114928474D02*
X124528571Y-114814188D01*
X124528571Y-114814188D02*
X124528571Y-114728474D01*
X124528571Y-114728474D02*
X124557143Y-114614188D01*
X124557143Y-114614188D02*
X124585714Y-114557045D01*
X124585714Y-114557045D02*
X124642857Y-114499902D01*
X124642857Y-114499902D02*
X124728571Y-114471331D01*
X124728571Y-114471331D02*
X124785714Y-114471331D01*
X124785714Y-114471331D02*
X124871428Y-114499902D01*
X124871428Y-114499902D02*
X124900000Y-114528474D01*
X125442857Y-114471331D02*
X125157143Y-114471331D01*
X125157143Y-114471331D02*
X125128571Y-114757045D01*
X125128571Y-114757045D02*
X125157143Y-114728474D01*
X125157143Y-114728474D02*
X125214286Y-114699902D01*
X125214286Y-114699902D02*
X125357143Y-114699902D01*
X125357143Y-114699902D02*
X125414286Y-114728474D01*
X125414286Y-114728474D02*
X125442857Y-114757045D01*
X125442857Y-114757045D02*
X125471428Y-114814188D01*
X125471428Y-114814188D02*
X125471428Y-114957045D01*
X125471428Y-114957045D02*
X125442857Y-115014188D01*
X125442857Y-115014188D02*
X125414286Y-115042760D01*
X125414286Y-115042760D02*
X125357143Y-115071331D01*
X125357143Y-115071331D02*
X125214286Y-115071331D01*
X125214286Y-115071331D02*
X125157143Y-115042760D01*
X125157143Y-115042760D02*
X125128571Y-115014188D01*
X124900000Y-102514188D02*
X124871428Y-102542760D01*
X124871428Y-102542760D02*
X124785714Y-102571331D01*
X124785714Y-102571331D02*
X124728571Y-102571331D01*
X124728571Y-102571331D02*
X124642857Y-102542760D01*
X124642857Y-102542760D02*
X124585714Y-102485617D01*
X124585714Y-102485617D02*
X124557143Y-102428474D01*
X124557143Y-102428474D02*
X124528571Y-102314188D01*
X124528571Y-102314188D02*
X124528571Y-102228474D01*
X124528571Y-102228474D02*
X124557143Y-102114188D01*
X124557143Y-102114188D02*
X124585714Y-102057045D01*
X124585714Y-102057045D02*
X124642857Y-101999902D01*
X124642857Y-101999902D02*
X124728571Y-101971331D01*
X124728571Y-101971331D02*
X124785714Y-101971331D01*
X124785714Y-101971331D02*
X124871428Y-101999902D01*
X124871428Y-101999902D02*
X124900000Y-102028474D01*
X125414286Y-102171331D02*
X125414286Y-102571331D01*
X125271428Y-101942760D02*
X125128571Y-102371331D01*
X125128571Y-102371331D02*
X125500000Y-102371331D01*
X116014188Y-103885714D02*
X116042760Y-103914286D01*
X116042760Y-103914286D02*
X116071331Y-104000000D01*
X116071331Y-104000000D02*
X116071331Y-104057143D01*
X116071331Y-104057143D02*
X116042760Y-104142857D01*
X116042760Y-104142857D02*
X115985617Y-104200000D01*
X115985617Y-104200000D02*
X115928474Y-104228571D01*
X115928474Y-104228571D02*
X115814188Y-104257143D01*
X115814188Y-104257143D02*
X115728474Y-104257143D01*
X115728474Y-104257143D02*
X115614188Y-104228571D01*
X115614188Y-104228571D02*
X115557045Y-104200000D01*
X115557045Y-104200000D02*
X115499902Y-104142857D01*
X115499902Y-104142857D02*
X115471331Y-104057143D01*
X115471331Y-104057143D02*
X115471331Y-104000000D01*
X115471331Y-104000000D02*
X115499902Y-103914286D01*
X115499902Y-103914286D02*
X115528474Y-103885714D01*
X116071331Y-103314286D02*
X116071331Y-103657143D01*
X116071331Y-103485714D02*
X115471331Y-103485714D01*
X115471331Y-103485714D02*
X115557045Y-103542857D01*
X115557045Y-103542857D02*
X115614188Y-103600000D01*
X115614188Y-103600000D02*
X115642760Y-103657143D01*
X115471331Y-103114285D02*
X115471331Y-102742857D01*
X115471331Y-102742857D02*
X115699902Y-102942857D01*
X115699902Y-102942857D02*
X115699902Y-102857142D01*
X115699902Y-102857142D02*
X115728474Y-102800000D01*
X115728474Y-102800000D02*
X115757045Y-102771428D01*
X115757045Y-102771428D02*
X115814188Y-102742857D01*
X115814188Y-102742857D02*
X115957045Y-102742857D01*
X115957045Y-102742857D02*
X116014188Y-102771428D01*
X116014188Y-102771428D02*
X116042760Y-102800000D01*
X116042760Y-102800000D02*
X116071331Y-102857142D01*
X116071331Y-102857142D02*
X116071331Y-103028571D01*
X116071331Y-103028571D02*
X116042760Y-103085714D01*
X116042760Y-103085714D02*
X116014188Y-103114285D01*
%TO.C,R5*%
X142262742Y-107477500D02*
X142737258Y-107477500D01*
X142262742Y-108522500D02*
X142737258Y-108522500D01*
%TO.C,C15*%
X116990000Y-116640580D02*
X116990000Y-116359420D01*
X118010000Y-116640580D02*
X118010000Y-116359420D01*
%TO.C,C2*%
X137490000Y-114415580D02*
X137490000Y-114134420D01*
X138510000Y-114415580D02*
X138510000Y-114134420D01*
%TO.C,R1*%
X124977500Y-108237258D02*
X124977500Y-107762742D01*
X126022500Y-108237258D02*
X126022500Y-107762742D01*
%TO.C,R6*%
X142762742Y-116977500D02*
X143237258Y-116977500D01*
X142762742Y-118022500D02*
X143237258Y-118022500D01*
%TO.C,U5*%
X140690000Y-109765000D02*
X145310000Y-109765000D01*
X145310000Y-115235000D02*
X140690000Y-115235000D01*
X139140000Y-110220000D02*
X138810000Y-110460000D01*
X138810000Y-109980000D01*
X139140000Y-110220000D01*
G36*
X139140000Y-110220000D02*
G01*
X138810000Y-110460000D01*
X138810000Y-109980000D01*
X139140000Y-110220000D01*
G37*
%TO.C,J2*%
X147400000Y-114400000D02*
X147400000Y-112600000D01*
X147620000Y-103340000D02*
X150950000Y-103340000D01*
X147620000Y-116660000D02*
X147620000Y-103340000D01*
X147620000Y-116660000D02*
X150950000Y-116660000D01*
%TO.C,C11*%
X119859420Y-102990000D02*
X120140580Y-102990000D01*
X119859420Y-104010000D02*
X120140580Y-104010000D01*
%TO.C,U6*%
X112590000Y-113940000D02*
X114410000Y-113940000D01*
X112590000Y-113990000D02*
X112590000Y-113940000D01*
X112590000Y-115890000D02*
X112590000Y-115110000D01*
X112590000Y-117060000D02*
X112590000Y-117010000D01*
X114410000Y-113940000D02*
X114410000Y-113990000D01*
X114410000Y-117010000D02*
X114410000Y-117060000D01*
X114410000Y-117060000D02*
X112590000Y-117060000D01*
X114950000Y-117010000D02*
X115190000Y-117340000D01*
X114710000Y-117340000D01*
X114950000Y-117010000D01*
G36*
X115190000Y-117340000D02*
G01*
X114710000Y-117340000D01*
X114950000Y-117010000D01*
X115190000Y-117340000D01*
G37*
%TO.C,C17*%
X145490000Y-107365580D02*
X145490000Y-107084420D01*
X146510000Y-107365580D02*
X146510000Y-107084420D01*
%TO.C,Y1*%
X127940000Y-114290000D02*
X127940000Y-117710000D01*
X127940000Y-117710000D02*
X132060000Y-117710000D01*
%TO.C,U1*%
X127390000Y-106390000D02*
X128040000Y-106390000D01*
X127390000Y-107040000D02*
X127390000Y-106390000D01*
X127390000Y-113610000D02*
X127390000Y-112960000D01*
X128040000Y-113610000D02*
X127390000Y-113610000D01*
X133960000Y-106390000D02*
X134610000Y-106390000D01*
X134610000Y-106390000D02*
X134610000Y-107040000D01*
X134610000Y-112960000D02*
X134610000Y-113610000D01*
X134610000Y-113610000D02*
X133960000Y-113610000D01*
X126860000Y-107400000D02*
X126530000Y-107640000D01*
X126530000Y-107160000D01*
X126860000Y-107400000D01*
G36*
X126860000Y-107400000D02*
G01*
X126530000Y-107640000D01*
X126530000Y-107160000D01*
X126860000Y-107400000D01*
G37*
%TO.C,C3*%
X119859420Y-105490000D02*
X120140580Y-105490000D01*
X119859420Y-106510000D02*
X120140580Y-106510000D01*
%TO.C,R2*%
X124977500Y-111237258D02*
X124977500Y-110762742D01*
X126022500Y-111237258D02*
X126022500Y-110762742D01*
%TO.C,C14*%
X116990000Y-112640580D02*
X116990000Y-112359420D01*
X118010000Y-112640580D02*
X118010000Y-112359420D01*
%TO.C,C5*%
X124859420Y-115490000D02*
X125140580Y-115490000D01*
X124859420Y-116510000D02*
X125140580Y-116510000D01*
%TO.C,TP1*%
X135200000Y-117000000D02*
G75*
G02*
X133800000Y-117000000I-700000J0D01*
G01*
X133800000Y-117000000D02*
G75*
G02*
X135200000Y-117000000I700000J0D01*
G01*
%TO.C,C4*%
X124859420Y-102990000D02*
X125140580Y-102990000D01*
X124859420Y-104010000D02*
X125140580Y-104010000D01*
%TO.C,D1*%
X135850000Y-108900000D02*
X138150000Y-108900000D01*
X135850000Y-111800000D02*
X135850000Y-108900000D01*
X135850000Y-111800000D02*
X136150000Y-112100000D01*
X138150000Y-112100000D02*
X136150000Y-112100000D01*
X138150000Y-112100000D02*
X138150000Y-108900000D01*
%TO.C,SW1*%
X127800000Y-103550000D02*
X127800000Y-103450000D01*
X127800000Y-105050000D02*
X132200000Y-105050000D01*
X132200000Y-101950000D02*
X127800000Y-101950000D01*
X132200000Y-103550000D02*
X132200000Y-103450000D01*
%TO.C,U2*%
X135440000Y-102440000D02*
X135535000Y-102440000D01*
X135440000Y-106560000D02*
X135440000Y-102440000D01*
X135535000Y-106560000D02*
X135440000Y-106560000D01*
X140465000Y-102440000D02*
X140560000Y-102440000D01*
X140560000Y-102440000D02*
X140560000Y-106560000D01*
X140560000Y-106560000D02*
X140465000Y-106560000D01*
X135530000Y-107100000D02*
X135200000Y-107340000D01*
X135200000Y-106860000D01*
X135530000Y-107100000D01*
G36*
X135530000Y-107100000D02*
G01*
X135200000Y-107340000D01*
X135200000Y-106860000D01*
X135530000Y-107100000D01*
G37*
%TO.C,J1*%
X104850000Y-103855000D02*
X103800000Y-103855000D01*
X104850000Y-116145000D02*
X103800000Y-116145000D01*
X108020000Y-114400000D02*
X108020000Y-105600000D01*
X108020000Y-114400000D02*
X108775000Y-114400000D01*
%TO.C,C1*%
X135490000Y-114415580D02*
X135490000Y-114134420D01*
X136510000Y-114415580D02*
X136510000Y-114134420D01*
%TO.C,F1*%
X112590000Y-105102064D02*
X112590000Y-103897936D01*
X114410000Y-105102064D02*
X114410000Y-103897936D01*
%TO.C,U4*%
X142090000Y-102440000D02*
X143910000Y-102440000D01*
X142090000Y-102490000D02*
X142090000Y-102440000D01*
X142090000Y-105560000D02*
X142090000Y-105510000D01*
X143910000Y-102440000D02*
X143910000Y-102490000D01*
X143910000Y-105510000D02*
X143910000Y-105560000D01*
X143910000Y-105560000D02*
X142090000Y-105560000D01*
X141550000Y-102490000D02*
X141310000Y-102160000D01*
X141790000Y-102160000D01*
X141550000Y-102490000D01*
G36*
X141550000Y-102490000D02*
G01*
X141310000Y-102160000D01*
X141790000Y-102160000D01*
X141550000Y-102490000D01*
G37*
%TO.C,U7*%
X112590000Y-107940000D02*
X114410000Y-107940000D01*
X112590000Y-107990000D02*
X112590000Y-107940000D01*
X112590000Y-111060000D02*
X112590000Y-111010000D01*
X114410000Y-107940000D02*
X114410000Y-107990000D01*
X114410000Y-111010000D02*
X114410000Y-111060000D01*
X114410000Y-111060000D02*
X112590000Y-111060000D01*
X112050000Y-107990000D02*
X111810000Y-107660000D01*
X112290000Y-107660000D01*
X112050000Y-107990000D01*
G36*
X112050000Y-107990000D02*
G01*
X111810000Y-107660000D01*
X112290000Y-107660000D01*
X112050000Y-107990000D01*
G37*
%TO.C,Y2*%
X118940000Y-114290000D02*
X118940000Y-117710000D01*
X118940000Y-117710000D02*
X123060000Y-117710000D01*
%TO.C,TP2*%
X137700000Y-117000000D02*
G75*
G02*
X136300000Y-117000000I-700000J0D01*
G01*
X136300000Y-117000000D02*
G75*
G02*
X137700000Y-117000000I700000J0D01*
G01*
%TO.C,C13*%
X116490000Y-103640580D02*
X116490000Y-103359420D01*
X117510000Y-103640580D02*
X117510000Y-103359420D01*
%TO.C,TP3*%
X140200000Y-117000000D02*
G75*
G02*
X138800000Y-117000000I-700000J0D01*
G01*
X138800000Y-117000000D02*
G75*
G02*
X140200000Y-117000000I700000J0D01*
G01*
%TO.C,U3*%
X118890000Y-107890000D02*
X119365000Y-107890000D01*
X118890000Y-108365000D02*
X118890000Y-107890000D01*
X118890000Y-112110000D02*
X118890000Y-111635000D01*
X119365000Y-112110000D02*
X118890000Y-112110000D01*
X122635000Y-107890000D02*
X123110000Y-107890000D01*
X123110000Y-107890000D02*
X123110000Y-108365000D01*
X123110000Y-111635000D02*
X123110000Y-112110000D01*
X123110000Y-112110000D02*
X122635000Y-112110000D01*
X118390000Y-108750000D02*
X118060000Y-108990000D01*
X118060000Y-108510000D01*
X118390000Y-108750000D01*
G36*
X118390000Y-108750000D02*
G01*
X118060000Y-108990000D01*
X118060000Y-108510000D01*
X118390000Y-108750000D01*
G37*
%TD*%
%LPC*%
D13*
%TO.C,R5*%
X141675000Y-108000000D03*
X143325000Y-108000000D03*
%TD*%
D14*
%TO.C,C15*%
X117500000Y-117275000D03*
X117500000Y-115725000D03*
%TD*%
%TO.C,C2*%
X138000000Y-115050000D03*
X138000000Y-113500000D03*
%TD*%
D15*
%TO.C,R1*%
X125500000Y-108825000D03*
X125500000Y-107175000D03*
%TD*%
D13*
%TO.C,R6*%
X142175000Y-117500000D03*
X143825000Y-117500000D03*
%TD*%
D16*
%TO.C,U5*%
X140137500Y-110225000D03*
X140137500Y-110875000D03*
X140137500Y-111525000D03*
X140137500Y-112175000D03*
X140137500Y-112825000D03*
X140137500Y-113475000D03*
X140137500Y-114125000D03*
X140137500Y-114775000D03*
X145862500Y-114775000D03*
X145862500Y-114125000D03*
X145862500Y-113475000D03*
X145862500Y-112825000D03*
X145862500Y-112175000D03*
X145862500Y-111525000D03*
X145862500Y-110875000D03*
X145862500Y-110225000D03*
%TD*%
D17*
%TO.C,J2*%
X150000000Y-113500000D03*
D18*
X150000000Y-111000000D03*
X150000000Y-109000000D03*
X150000000Y-106500000D03*
D19*
X152710000Y-116570000D03*
X152710000Y-103430000D03*
%TD*%
D20*
%TO.C,C11*%
X119225000Y-103500000D03*
X120775000Y-103500000D03*
%TD*%
D21*
%TO.C,U6*%
X114637500Y-116450000D03*
X114637500Y-115500000D03*
X114637500Y-114550000D03*
X112362500Y-114550000D03*
X112362500Y-116450000D03*
%TD*%
D14*
%TO.C,C17*%
X146000000Y-108000000D03*
X146000000Y-106450000D03*
%TD*%
D22*
%TO.C,Y1*%
X128900000Y-116850000D03*
X131100000Y-116850000D03*
X131100000Y-115150000D03*
X128900000Y-115150000D03*
%TD*%
D23*
%TO.C,U1*%
X127562500Y-107400000D03*
X127562500Y-107800000D03*
X127562500Y-108200000D03*
X127562500Y-108600000D03*
X127562500Y-109000000D03*
X127562500Y-109400000D03*
X127562500Y-109800000D03*
X127562500Y-110200000D03*
X127562500Y-110600000D03*
X127562500Y-111000000D03*
X127562500Y-111400000D03*
X127562500Y-111800000D03*
X127562500Y-112200000D03*
X127562500Y-112600000D03*
D24*
X128400000Y-113437500D03*
X128800000Y-113437500D03*
X129200000Y-113437500D03*
X129600000Y-113437500D03*
X130000000Y-113437500D03*
X130400000Y-113437500D03*
X130800000Y-113437500D03*
X131200000Y-113437500D03*
X131600000Y-113437500D03*
X132000000Y-113437500D03*
X132400000Y-113437500D03*
X132800000Y-113437500D03*
X133200000Y-113437500D03*
X133600000Y-113437500D03*
D23*
X134437500Y-112600000D03*
X134437500Y-112200000D03*
X134437500Y-111800000D03*
X134437500Y-111400000D03*
X134437500Y-111000000D03*
X134437500Y-110600000D03*
X134437500Y-110200000D03*
X134437500Y-109800000D03*
X134437500Y-109400000D03*
X134437500Y-109000000D03*
X134437500Y-108600000D03*
X134437500Y-108200000D03*
X134437500Y-107800000D03*
X134437500Y-107400000D03*
D24*
X133600000Y-106562500D03*
X133200000Y-106562500D03*
X132800000Y-106562500D03*
X132400000Y-106562500D03*
X132000000Y-106562500D03*
X131600000Y-106562500D03*
X131200000Y-106562500D03*
X130800000Y-106562500D03*
X130400000Y-106562500D03*
X130000000Y-106562500D03*
X129600000Y-106562500D03*
X129200000Y-106562500D03*
X128800000Y-106562500D03*
X128400000Y-106562500D03*
D25*
X131000000Y-110000000D03*
%TD*%
D20*
%TO.C,C3*%
X119225000Y-106000000D03*
X120775000Y-106000000D03*
%TD*%
D15*
%TO.C,R2*%
X125500000Y-111825000D03*
X125500000Y-110175000D03*
%TD*%
D14*
%TO.C,C14*%
X117500000Y-113275000D03*
X117500000Y-111725000D03*
%TD*%
D20*
%TO.C,C5*%
X124225000Y-116000000D03*
X125775000Y-116000000D03*
%TD*%
D26*
%TO.C,TP1*%
X134500000Y-117000000D03*
%TD*%
D20*
%TO.C,C4*%
X124225000Y-103500000D03*
X125775000Y-103500000D03*
%TD*%
D27*
%TO.C,D1*%
X136450000Y-111415000D03*
X137550000Y-111415000D03*
X137550000Y-109585000D03*
X136450000Y-109585000D03*
%TD*%
D28*
%TO.C,SW1*%
X127950000Y-102700000D03*
X132050000Y-102700000D03*
X127950000Y-104300000D03*
X132050000Y-104300000D03*
%TD*%
D29*
%TO.C,U2*%
X136095000Y-106975000D03*
X137365000Y-106975000D03*
X138635000Y-106975000D03*
X139905000Y-106975000D03*
X139905000Y-102025000D03*
X138635000Y-102025000D03*
X137365000Y-102025000D03*
X136095000Y-102025000D03*
%TD*%
D30*
%TO.C,J1*%
X106900000Y-112300000D03*
X106900000Y-107700000D03*
D31*
X109650000Y-113500000D03*
X109650000Y-111000000D03*
X109650000Y-109000000D03*
X109650000Y-106500000D03*
D32*
X106900000Y-115700000D03*
X106900000Y-104300000D03*
%TD*%
D14*
%TO.C,C1*%
X136000000Y-115050000D03*
X136000000Y-113500000D03*
%TD*%
D33*
%TO.C,F1*%
X113500000Y-105900000D03*
X113500000Y-103100000D03*
%TD*%
D34*
%TO.C,U4*%
X141862500Y-103050000D03*
X141862500Y-104000000D03*
X141862500Y-104950000D03*
X144137500Y-104950000D03*
X144137500Y-104000000D03*
X144137500Y-103050000D03*
%TD*%
%TO.C,U7*%
X112362500Y-108550000D03*
X112362500Y-109500000D03*
X112362500Y-110450000D03*
X114637500Y-110450000D03*
X114637500Y-109500000D03*
X114637500Y-108550000D03*
%TD*%
D22*
%TO.C,Y2*%
X119900000Y-116850000D03*
X122100000Y-116850000D03*
X122100000Y-115150000D03*
X119900000Y-115150000D03*
%TD*%
D26*
%TO.C,TP2*%
X137000000Y-117000000D03*
%TD*%
D14*
%TO.C,C13*%
X117000000Y-104275000D03*
X117000000Y-102725000D03*
%TD*%
D26*
%TO.C,TP3*%
X139500000Y-117000000D03*
%TD*%
D35*
%TO.C,U3*%
X119062500Y-108750000D03*
X119062500Y-109250000D03*
X119062500Y-109750000D03*
X119062500Y-110250000D03*
X119062500Y-110750000D03*
X119062500Y-111250000D03*
D36*
X119750000Y-111937500D03*
X120250000Y-111937500D03*
X120750000Y-111937500D03*
X121250000Y-111937500D03*
X121750000Y-111937500D03*
X122250000Y-111937500D03*
D35*
X122937500Y-111250000D03*
X122937500Y-110750000D03*
X122937500Y-110250000D03*
X122937500Y-109750000D03*
X122937500Y-109250000D03*
X122937500Y-108750000D03*
D36*
X122250000Y-108062500D03*
X121750000Y-108062500D03*
X121250000Y-108062500D03*
X120750000Y-108062500D03*
X120250000Y-108062500D03*
X119750000Y-108062500D03*
D37*
X121000000Y-110000000D03*
%TD*%
%LPD*%
M02*
