M48
METRIC
T1C25.000
T2C90.000
T3C95.000
T4C230.000
%
G90
G05
T1
X11600.0Y-10855.0
X11600.0Y-11045.0
X11843.79Y-11727.5
X11922.5Y-10433.67
X12131.72Y-10727.64
X12338.71Y-10326.94
X12360.0Y-11025.0
X12367.44Y-11509.86
X12440.0Y-11075.0
X12675.88Y-10798.03
X12838.99Y-11102.56
X12881.87Y-10808.79
X12953.7Y-10735.93
X12960.0Y-10577.08
X13041.81Y-10735.4
X13049.69Y-10567.71
X13086.3Y-11197.89
X13099.68Y-10736.32
X13258.52Y-11423.02
X13283.15Y-11263.61
X13286.13Y-10411.87
X13325.02Y-11546.5
X13405.57Y-10639.03
X13440.86Y-10467.57
X13480.69Y-10693.2
X13530.97Y-10377.8
X13652.62Y-10424.7
X13910.47Y-10864.82
X13935.6Y-11605.55
X14091.25Y-10775.52
X14161.49Y-11442.17
X14338.23Y-11022.5
T3
X15000.0Y-10650.0
X15000.0Y-10900.0
X15000.0Y-11100.0
X15000.0Y-11350.0
T4
X15271.0Y-10343.0
X15271.0Y-11657.0
T2
G00X10770.0Y-10430.0
M15
G01X10610.0Y-10430.0
M16
G05
G00X10770.0Y-11570.0
M15
G01X10610.0Y-11570.0
M16
G05
M30
